<mxfile host="app.diagrams.net" agent="Mozilla/5.0 (Macintosh; Intel Mac OS X 10_15_7) AppleWebKit/537.36 (KHTML, like Gecko) Chrome/133.0.0.0 Safari/537.36" version="26.1.1">
  <diagram name="Page-1" id="9DZwixzUk7h8iILx_hxP">
    <mxGraphModel dx="3383" dy="1742" grid="0" gridSize="10" guides="1" tooltips="1" connect="1" arrows="1" fold="1" page="0" pageScale="1" pageWidth="850" pageHeight="1100" math="0" shadow="0">
      <root>
        <mxCell id="0" />
        <mxCell id="1" parent="0" />
        <mxCell id="sdSFOSKggI8gM6giwSen-277" value="" style="container=1;collapsible=0;expand=0;recursiveResize=0;html=1;whiteSpace=wrap;strokeColor=light-dark(#326de5, #55ae70);fillColor=none;strokeWidth=1" parent="1" vertex="1">
          <mxGeometry x="20" y="10" width="700" height="870" as="geometry" />
        </mxCell>
        <mxCell id="sdSFOSKggI8gM6giwSen-278" value="Minikube Cluster" style="shape=rect;fillColor=none;aspect=fixed;resizable=0;labelPosition=right;verticalLabelPosition=middle;align=left;verticalAlign=middle;strokeColor=none;part=1;spacingLeft=5;fontSize=14;" parent="sdSFOSKggI8gM6giwSen-277" vertex="1">
          <mxGeometry width="48" height="48" relative="1" as="geometry" />
        </mxCell>
        <mxCell id="sdSFOSKggI8gM6giwSen-279" value="" style="fillColor=#198038;shape=mxgraph.ibm_cloud.ibm-cloud--kubernetes-service;strokeColor=none;dashed=0;outlineConnect=0;html=1;labelPosition=center;verticalLabelPosition=bottom;verticalAlign=top;part=1;movable=0;resizable=0;rotatable=0;" parent="sdSFOSKggI8gM6giwSen-278" vertex="1">
          <mxGeometry width="24" height="24" relative="1" as="geometry">
            <mxPoint x="12" y="12" as="offset" />
          </mxGeometry>
        </mxCell>
        <mxCell id="sdSFOSKggI8gM6giwSen-280" value="" style="shape=rect;fillColor=light-dark(#326de5, #55ae70);aspect=fixed;resizable=0;labelPosition=right;verticalLabelPosition=middle;align=left;verticalAlign=middle;strokeColor=none;part=1;spacingLeft=5;fontSize=14;" parent="sdSFOSKggI8gM6giwSen-277" vertex="1">
          <mxGeometry width="4" height="48" relative="1" as="geometry" />
        </mxCell>
        <mxCell id="sdSFOSKggI8gM6giwSen-281" value="" style="sketch=0;html=1;verticalAlign=top;labelPosition=center;verticalLabelPosition=bottom;align=center;spacingTop=-6;fontSize=11;fontStyle=1;fontColor=#999999;shape=image;aspect=fixed;imageAspect=0;image=data:image/svg+xml,PHN2ZyB4bWxucz0iaHR0cDovL3d3dy53My5vcmcvMjAwMC9zdmciIHhtbG5zOnY9Imh0dHBzOi8vdmVjdGEuaW8vbmFubyIgd2lkdGg9IjcwMi44NDYzMTM0NzY1NjI1IiBoZWlnaHQ9IjY4MS45NjcxMDIwNTA3ODEyIiB2aWV3Qm94PSIxMC4wMDEwMjYxNTM1NjQ0NTMgMTAuMDAwOTMzNjQ3MTU1NzYyIDcwMi44NDYzMTM0NzY1NjI1IDY4MS45NjcxMDIwNTA3ODEyIj4mI3hhOwk8c3R5bGUgdHlwZT0idGV4dC9jc3MiPiYjeGE7CS5zdDB7ZmlsbDojMzI2Y2U1O30mI3hhOwkuc3Qxe2ZpbGw6I2ZmZjt9JiN4YTsJPC9zdHlsZT4mI3hhOwk8cGF0aCBjbGFzcz0ic3QwIiBkPSJNMzU4Ljk4NyAxMC4wNmMtNi4yMTMuMzEzLTEyLjMwMSAxLjg1NC0xNy45MDYgNC41MzFMOTYuNzM3IDEzMS4zNDJjLTEyLjgxMSA2LjExOC0yMi4xMTYgMTcuNjg5LTI1LjI4MSAzMS40MzhsLTYwLjI4MSAyNjIuMjVjLTIuODEyIDEyLjIwNy0uNTI0IDI1LjAyNCA2LjM0NCAzNS41MzFhNDYuMzUgNDYuMzUgMCAwIDAgMi42NTYgMy42ODhsMTY5LjEyNSAyMTAuMjgxYzguODY4IDExLjAyMiAyMi4zMTMgMTcuNDQgMzYuNTMxIDE3LjQzOGwyNzEuMjE5LS4wNjJjMTQuMjEyLjAxIDI3LjY1Ny02LjM5NiAzNi41MzEtMTcuNDA2bDE2OS4wNjMtMjEwLjMxM2M4Ljg3My0xMS4wMjggMTIuMTk3LTI1LjQ2NCA5LjAzMS0zOS4yMTlsLTYwLjM3NS0yNjIuMjVjLTMuMTY1LTEzLjc0OC0xMi40Ny0yNS4zMTktMjUuMjgxLTMxLjQzN0wzODEuNjQzIDE0LjU5MmMtNy4wNS0zLjM2OC0xNC44NDEtNC45MjYtMjIuNjU2LTQuNTMxeiIvPiYjeGE7CTxwYXRoIGNsYXNzPSJzdDEgc3QyIiBkPSJNMzYxLjQwOCA5OS4zMDhjLTguMDc3LjAwMS0xNC42MjYgNy4yNzYtMTQuNjI1IDE2LjI1IDAgLjEzOC4wMjguMjY5LjAzMS40MDYtLjAxMiAxLjIxOS0uMDcxIDIuNjg4LS4wMzEgMy43NS4xOTMgNS4xNzYgMS4zMjEgOS4xMzcgMiAxMy45MDYgMS4yMyAxMC4yMDcgMi4yNjEgMTguNjY3IDEuNjI1IDI2LjUzMS0uNjE5IDIuOTY1LTIuODAzIDUuNjc3LTQuNzUgNy41NjNsLS4zNDQgNi4xODhjLTguNzc3LjcyNy0xNy42MTIgMi4wNTktMjYuNDM3IDQuMDYzLTM3Ljk3NSA4LjYyMi03MC42NyAyOC4xODMtOTUuNTYyIDU0LjU5NC0xLjYxNS0xLjEwMi00LjQ0MS0zLjEyOS01LjI4MS0zLjc1LTIuNjExLjM1My01LjI1IDEuMTU4LTguNjg3LS44NDQtNi41NDUtNC40MDYtMTIuNTA2LTEwLjQ4Ny0xOS43MTktMTcuODEyLTMuMzA1LTMuNTA0LTUuNjk4LTYuODQxLTkuNjI1LTEwLjIxOS0uODkyLS43NjctMi4yNTMtMS44MDUtMy4yNS0yLjU5NC0zLjA3LTIuNDQ4LTYuNjkxLTMuNzI0LTEwLjE4Ny0zLjg0NC00LjQ5Ni0uMTU0LTguODI0IDEuNjA0LTExLjY1NiA1LjE1Ni01LjAzNSA2LjMxNS0zLjQyMyAxNS45NjggMy41OTQgMjEuNTYzLjA3MS4wNTcuMTQ3LjEwMS4yMTkuMTU2Ljk2NC43ODIgMi4xNDUgMS43ODMgMy4wMzEgMi40MzggNC4xNjcgMy4wNzcgNy45NzMgNC42NTEgMTIuMTI1IDcuMDk0IDguNzQ3IDUuNDAyIDE1Ljk5OCA5Ljg4MSAyMS43NSAxNS4yODEgMi4yNDYgMi4zOTQgMi42MzkgNi42MTMgMi45MzggOC40MzhsNC42ODggNC4xODhjLTI1LjA5MyAzNy43NjQtMzYuNzA3IDg0LjQwOS0yOS44NDQgMTMxLjkzOGwtNi4xMjUgMS43ODFjLTEuNjE0IDIuMDg1LTMuODk1IDUuMzY1LTYuMjgxIDYuMzQ0LTcuNTI1IDIuMzctMTUuOTk0IDMuMjQxLTI2LjIxOSA0LjMxMy00LjguMzk5LTguOTQyLjE2MS0xNC4wMzEgMS4xMjUtMS4xMi4yMTItMi42ODEuNjE5LTMuOTA2LjkwNi0uMDQzLjAwOS0uMDgyLjAyMi0uMTI1LjAzMS0uMDY3LjAxNS0uMTU1LjA0OC0uMjE5LjA2My04LjYyIDIuMDgzLTE0LjE1OCAxMC4wMDYtMTIuMzc1IDE3LjgxM3MxMC4yMDMgMTIuNTU3IDE4Ljg3NSAxMC42ODhjLjA2My0uMDE0LjE1NC0uMDE3LjIxOS0uMDMxLjA5OC0uMDIyLjE4NC0uMDcuMjgxLS4wOTQgMS4yMDktLjI2NSAyLjcyNC0uNTYxIDMuNzgxLS44NDQgNS4wMDMtMS4zNCA4LjYyNy0zLjMwOCAxMy4xMjUtNS4wMzEgOS42NzctMy40NzEgMTcuNjkyLTYuMzcgMjUuNS03LjUgMy4yNjEtLjI1NSA2LjY5NyAyLjAxMiA4LjQwNiAyLjk2OWw2LjM3NS0xLjA5NGMxNC42NyA0NS40ODMgNDUuNDE0IDgyLjI0NSA4NC4zNDQgMTA1LjMxMmwtMi42NTYgNi4zNzVjLjk1NyAyLjQ3NSAyLjAxMyA1LjgyNSAxLjMgOC4yNjktMi44MzkgNy4zNjEtNy43MDEgMTUuMTMxLTEzLjIzOCAyMy43OTMtMi42ODEgNC4wMDItNS40MjUgNy4xMDgtNy44NDQgMTEuNjg4LS41NzkgMS4wOTYtMS4zMTYgMi43NzktMS44NzUgMy45MzgtMy43NTkgOC4wNDItMS4wMDIgMTcuMzA1IDYuMjE5IDIwLjc4MSA3LjI2NiAzLjQ5OCAxNi4yODQtLjE5MSAyMC4xODctOC4yNS4wMDYtLjAxMS4wMjYtLjAyLjAzMS0uMDMxcy0uMDA0LS4wMjMgMC0uMDMxYy41NTYtMS4xNDMgMS4zNDQtMi42NDQgMS44MTMtMy43MTkgMi4wNzItNC43NDcgMi43NjItOC44MTUgNC4yMTktMTMuNDA2IDMuODctOS43MiA1Ljk5Ni0xOS45MTkgMTEuMzIzLTI2LjI3NCAxLjQ1OS0xLjc0IDMuODM3LTIuNDA5IDYuMzAyLTMuMDdsMy4zMTMtNmMzMy45MzggMTMuMDI3IDcxLjkyNyAxNi41MjIgMTA5Ljg3NSA3LjkwNmExODkuNzcgMTg5Ljc3IDAgMCAwIDI1LjA5NC03LjU2MmwzLjEyNSA1LjYyNWMyLjUwNi44MTUgNS4yNCAxLjIzNiA3LjQ2OSA0LjUzMSAzLjk4NSA2LjgwOSA2LjcxMSAxNC44NjQgMTAuMDMxIDI0LjU5NCAxLjQ1NyA0LjU5MSAyLjE3OCA4LjY1OSA0LjI1IDEzLjQwNi40NzIgMS4wODIgMS4yNTYgMi42MDUgMS44MTMgMy43NSAzLjg5NSA4LjA4NSAxMi45NDIgMTEuNzg3IDIwLjIxOSA4LjI4MSA3LjIxOS0zLjQ3OCA5Ljk4LTEyLjc0IDYuMjE5LTIwLjc4MWwtMS45MDYtMy45MzdjLTIuNDE5LTQuNTgtNS4xNjMtNy42NTQtNy44NDQtMTEuNjU2LTUuNTM3LTguNjYyLTEwLjEzLTE1Ljg1OC0xMi45NjktMjMuMjE5LTEuMTg3LTMuNzk3LjItNi4xNTggMS4xMjUtOC42MjUtLjU1NC0uNjM1LTEuNzM5LTQuMjItMi40MzctNS45MDYgNDAuNDU3LTIzLjg4OCA3MC4yOTktNjIuMDIxIDg0LjMxMy0xMDYuMDYyIDEuODkyLjI5NyA1LjE4Mi44NzkgNi4yNSAxLjA5NCAyLjItMS40NTEgNC4yMjItMy4zNDQgOC4xODgtMy4wMzEgNy44MDggMS4xMjkgMTUuODIzIDQuMDMgMjUuNSA3LjUgNC40OTggMS43MjMgOC4xMjIgMy43MjMgMTMuMTI1IDUuMDYzIDEuMDU3LjI4MyAyLjU3Mi41NDcgMy43ODEuODEzLjA5Ny4wMjQuMTgzLjA3MS4yODEuMDk0LjA2NS4wMTUuMTU2LjAxNy4yMTkuMDMxIDguNjcyIDEuODY3IDE3LjA5NC0yLjg3OSAxOC44NzUtMTAuNjg3cy0zLjc1NC0xNS43MzItMTIuMzc1LTE3LjgxMmMtMS4yNTQtLjI4NS0zLjAzMi0uNzY5LTQuMjUtMS01LjA4OS0uOTY0LTkuMjMxLS43MjYtMTQuMDMxLTEuMTI1LTEwLjIyNS0xLjA3MS0xOC42OTMtMS45NDMtMjYuMjE5LTQuMzEyLTMuMDY4LTEuMTktNS4yNTEtNC44NDEtNi4zMTMtNi4zNDRsLTUuOTA2LTEuNzE5YzMuMDYyLTIyLjE1NCAyLjIzNy00NS4yMTEtMy4wNjItNjguMjgxLTUuMzQ4LTIzLjI4NS0xNC44LTQ0LjU4MS0yNy40MDYtNjMuMzQ0bDUuMTg4LTQuNjU2Yy4yMzctMi42MjQuMDMzLTUuMzc2IDIuNzUtOC4yODEgNS43NTEtNS40MDEgMTMuMDAzLTkuODc5IDIxLjc1LTE1LjI4MSA0LjE1Mi0yLjQ0MyA3Ljk5LTQuMDE3IDEyLjE1Ni03LjA5NC45NDItLjY5NiAyLjIyOS0xLjc5OCAzLjIxOS0yLjU5NCA3LjAxNS01LjU5NiA4LjYzMS0xNS4yNDggMy41OTQtMjEuNTYycy0xNC43OTctNi45MDktMjEuODEyLTEuMzEyYy0uOTk5Ljc5MS0yLjM1NCAxLjgyMy0zLjI1IDIuNTk0LTMuOTI3IDMuMzc4LTYuMzUxIDYuNzE0LTkuNjU2IDEwLjIxOS03LjIxMiA3LjMyNi0xMy4xNzQgMTMuNDM4LTE5LjcxOSAxNy44NDQtMi44MzYgMS42NTEtNi45OSAxLjA4LTguODc1Ljk2OWwtNS41NjIgMy45NjljLTMxLjcxOS0zMy4yNjEtNzQuOTA1LTU0LjUyNS0xMjEuNDA2LTU4LjY1NmwtLjM0NC02LjUzMWMtMS45MDQtMS44MjItNC4yMDMtMy4zNzctNC43ODEtNy4zMTItLjYzNi03Ljg2NC40MjYtMTYuMzI1IDEuNjU2LTI2LjUzMS42NzktNC43NjkgMS44MDctOC43MyAyLTEzLjkwNi4wNDQtMS4xNzctLjAyNi0yLjg4NC0uMDMxLTQuMTU2LS4wMDEtOC45NzQtNi41NDgtMTYuMjUxLTE0LjYyNS0xNi4yNXptLTE4LjMxMiAxMTMuNDM4bC00LjM0NCA3Ni43MTktLjMxMi4xNTZjLS4yOTEgNi44NjMtNS45NCAxMi4zNDQtMTIuODc1IDEyLjM0NGExMi44MiAxMi44MiAwIDAgMS03LjU5NC0yLjQ2OWwtLjEyNS4wNjMtNjIuOTA2LTQ0LjU5NGMxOS4zMzQtMTkuMDExIDQ0LjA2My0zMy4wNiA3Mi41NjItMzkuNTMxIDUuMjA2LTEuMTgyIDEwLjQxLTIuMDU5IDE1LjU5NC0yLjY4N3ptMzYuNjU2IDBjMzMuMjczIDQuMDkyIDY0LjA0NSAxOS4xNTkgODcuNjI1IDQyLjI1bC02Mi41IDQ0LjMxMy0uMjE5LS4wOTRhMTIuOTEgMTIuOTEgMCAwIDEtMTcuNjg3LTIuMzc1Yy0xLjc3MS0yLjIyMS0yLjcwMS00LjgzMi0yLjgxMi03LjQ2OWwtLjA2Mi0uMDMxek0yMzIuMTI2IDI4My42Mmw1Ny40MzcgNTEuMzc1LS4wNjIuMzEzYTEyLjg4IDEyLjg4IDAgMCAxIDEuNjI1IDE3Ljc1IDEyLjg5IDEyLjg5IDAgMCAxLTYuNjg3IDQuNDA2bC0uMDYyLjI1LTczLjYyNSAyMS4yNWMtMy43NDctMzQuMjY1IDQuMzI5LTY3LjU3NCAyMS4zNzUtOTUuMzQ0em0yNTguMTU2LjAzMWM4LjUzNCAxMy44MzMgMTQuOTk3IDI5LjI4MiAxOC44NDQgNDYuMDMxIDMuODAxIDE2LjU0OCA0Ljc1NSAzMy4wNjcgMy4xODggNDkuMDMxbC03NC0yMS4zMTItLjA2Mi0uMzEyYy02LjYyNy0xLjgxMS0xMC42OTktOC41NTItOS4xNTYtMTUuMzEyLjYzMi0yLjc3IDIuMTAyLTUuMTEzIDQuMDk0LTYuODQ0bC0uMDMxLS4xNTYgNTcuMTI1LTUxLjEyNXptLTE0MC42NTYgNTUuMzEzaDIzLjUzMWwxNC42MjUgMTguMjgxLTUuMjUgMjIuODEzLTIxLjEyNSAxMC4xNTYtMjEuMTg3LTEwLjE4Ny01LjI1LTIyLjgxMnptNzUuNDM4IDYyLjU2M2ExMi44MyAxMi44MyAwIDAgMSAyLjk2OS4yMTlsLjEyNS0uMTU2IDc2LjE1NiAxMi44NzVjLTExLjE0NiAzMS4zMTMtMzIuNDczIDU4LjQ0LTYwLjk2OSA3Ni41OTRsLTI5LjU2Mi03MS40MDYuMDk0LS4xMjVjLTIuNzE2LTYuMzEuMDAyLTEzLjcxIDYuMjUtMTYuNzE5IDEuNi0uNzcgMy4yNzEtMS4xOTcgNC45MzgtMS4yODF6bS0xMjcuOTA2LjMxM2ExMi45IDEyLjkgMCAwIDEgMTIuMzc1IDEwLjAzMSAxMi43NyAxMi43NyAwIDAgMS0uNzE5IDcuOTM4bC4yMTkuMjgxLTI5LjI1IDcwLjY4OGMtMjcuMzQ3LTE3LjU0OS00OS4xMjktNDMuODI0LTYwLjc4MS03Ni4wNjJsNzUuNS0xMi44MTIuMTI1LjE1NmMuODQ1LS4xNTUgMS43MDEtLjIzIDIuNTMxLS4yMTl6bTYzLjc4MSAzMC45NjljMi4wMjQtLjA3NCA0LjA3OS4zNDEgNi4wMzEgMS4yODEgMi41NiAxLjIzMyA0LjUzNyAzLjE3MyA1Ljc4MSA1LjVoLjI4MWwzNy4yMTkgNjcuMjVjLTQuODMgMS42MTktOS43OTYgMy4wMDMtMTQuODc1IDQuMTU2LTI4LjQ2NSA2LjQ2My01Ni44MzkgNC41MDUtODIuNTMxLTQuMjVsMzcuMTI1LTY3LjEyNWguMDYzYTEyLjkxIDEyLjkxIDAgMCAxIDEwLjkwNi02LjgxMnoiIHN0cm9rZT0ibm9uZSIgc3Ryb2tlLXdpZHRoPSIuMjUiLz4mI3hhOzwvc3ZnPg==;" parent="sdSFOSKggI8gM6giwSen-277" vertex="1">
          <mxGeometry x="10" y="10" width="31.5" height="30" as="geometry" />
        </mxCell>
        <mxCell id="sdSFOSKggI8gM6giwSen-282" value="" style="container=1;collapsible=0;expand=0;recursiveResize=0;html=1;whiteSpace=wrap;strokeColor=light-dark(#326de5, #55ae70);fillColor=none;strokeWidth=1" parent="sdSFOSKggI8gM6giwSen-277" vertex="1">
          <mxGeometry x="30" y="60" width="550" height="758" as="geometry" />
        </mxCell>
        <mxCell id="sdSFOSKggI8gM6giwSen-283" value="Minikube Node" style="shape=rect;fillColor=none;aspect=fixed;resizable=0;labelPosition=right;verticalLabelPosition=middle;align=left;verticalAlign=middle;strokeColor=none;part=1;spacingLeft=5;fontSize=14;" parent="sdSFOSKggI8gM6giwSen-282" vertex="1">
          <mxGeometry width="48" height="48" relative="1" as="geometry" />
        </mxCell>
        <mxCell id="sdSFOSKggI8gM6giwSen-284" value="" style="fillColor=#198038;shape=mxgraph.ibm_cloud.ibm-cloud--kubernetes-service;strokeColor=none;dashed=0;outlineConnect=0;html=1;labelPosition=center;verticalLabelPosition=bottom;verticalAlign=top;part=1;movable=0;resizable=0;rotatable=0;" parent="sdSFOSKggI8gM6giwSen-283" vertex="1">
          <mxGeometry width="24" height="24" relative="1" as="geometry">
            <mxPoint x="12" y="12" as="offset" />
          </mxGeometry>
        </mxCell>
        <mxCell id="sdSFOSKggI8gM6giwSen-285" value="" style="shape=rect;fillColor=light-dark(#326de5, #55ae70);aspect=fixed;resizable=0;labelPosition=right;verticalLabelPosition=middle;align=left;verticalAlign=middle;strokeColor=none;part=1;spacingLeft=5;fontSize=14;" parent="sdSFOSKggI8gM6giwSen-282" vertex="1">
          <mxGeometry width="4" height="48" relative="1" as="geometry" />
        </mxCell>
        <mxCell id="sdSFOSKggI8gM6giwSen-287" value="" style="container=1;collapsible=0;expand=0;recursiveResize=0;html=1;whiteSpace=wrap;strokeColor=light-dark(#326de5, #55ae70);fillColor=none;strokeWidth=1" parent="sdSFOSKggI8gM6giwSen-282" vertex="1">
          <mxGeometry x="75" y="430" width="400" height="310" as="geometry" />
        </mxCell>
        <mxCell id="sdSFOSKggI8gM6giwSen-288" value="kubernetes-grafana-k8s" style="shape=rect;fillColor=none;aspect=fixed;resizable=0;labelPosition=right;verticalLabelPosition=middle;align=left;verticalAlign=middle;strokeColor=none;part=1;spacingLeft=5;fontSize=14;" parent="sdSFOSKggI8gM6giwSen-287" vertex="1">
          <mxGeometry width="48" height="48" relative="1" as="geometry" />
        </mxCell>
        <mxCell id="sdSFOSKggI8gM6giwSen-289" value="" style="fillColor=#198038;shape=mxgraph.ibm_cloud.ibm-cloud--kubernetes-service;strokeColor=none;dashed=0;outlineConnect=0;html=1;labelPosition=center;verticalLabelPosition=bottom;verticalAlign=top;part=1;movable=0;resizable=0;rotatable=0;" parent="sdSFOSKggI8gM6giwSen-288" vertex="1">
          <mxGeometry width="24" height="24" relative="1" as="geometry">
            <mxPoint x="12" y="12" as="offset" />
          </mxGeometry>
        </mxCell>
        <mxCell id="sdSFOSKggI8gM6giwSen-290" value="" style="shape=rect;fillColor=light-dark(#326de5, #55ae70);aspect=fixed;resizable=0;labelPosition=right;verticalLabelPosition=middle;align=left;verticalAlign=middle;strokeColor=none;part=1;spacingLeft=5;fontSize=14;" parent="sdSFOSKggI8gM6giwSen-287" vertex="1">
          <mxGeometry width="4" height="48" relative="1" as="geometry" />
        </mxCell>
        <mxCell id="sdSFOSKggI8gM6giwSen-291" value="" style="aspect=fixed;sketch=0;html=1;dashed=0;whitespace=wrap;verticalLabelPosition=bottom;verticalAlign=top;fillColor=#2875E2;strokeColor=#ffffff;points=[[0.005,0.63,0],[0.1,0.2,0],[0.9,0.2,0],[0.5,0,0],[0.995,0.63,0],[0.72,0.99,0],[0.5,1,0],[0.28,0.99,0]];shape=mxgraph.kubernetes.icon2;kubernetesLabel=1;prIcon=ns" parent="sdSFOSKggI8gM6giwSen-287" vertex="1">
          <mxGeometry x="10" width="41.67" height="40" as="geometry" />
        </mxCell>
        <mxCell id="sdSFOSKggI8gM6giwSen-292" style="edgeStyle=orthogonalEdgeStyle;rounded=0;orthogonalLoop=1;jettySize=auto;html=1;" parent="sdSFOSKggI8gM6giwSen-287" source="sdSFOSKggI8gM6giwSen-294" target="sdSFOSKggI8gM6giwSen-298" edge="1">
          <mxGeometry relative="1" as="geometry" />
        </mxCell>
        <mxCell id="sdSFOSKggI8gM6giwSen-293" style="edgeStyle=orthogonalEdgeStyle;rounded=0;orthogonalLoop=1;jettySize=auto;html=1;" parent="sdSFOSKggI8gM6giwSen-287" source="sdSFOSKggI8gM6giwSen-294" target="sdSFOSKggI8gM6giwSen-297" edge="1">
          <mxGeometry relative="1" as="geometry" />
        </mxCell>
        <mxCell id="sdSFOSKggI8gM6giwSen-294" value="NodeJS App" style="aspect=fixed;sketch=0;html=1;dashed=0;whitespace=wrap;verticalLabelPosition=bottom;verticalAlign=top;fillColor=#2875E2;strokeColor=#ffffff;points=[[0.005,0.63,0],[0.1,0.2,0],[0.9,0.2,0],[0.5,0,0],[0.995,0.63,0],[0.72,0.99,0],[0.5,1,0],[0.28,0.99,0]];shape=mxgraph.kubernetes.icon2;kubernetesLabel=1;prIcon=pod" parent="sdSFOSKggI8gM6giwSen-287" vertex="1">
          <mxGeometry x="150" y="192" width="50" height="48" as="geometry" />
        </mxCell>
        <mxCell id="sdSFOSKggI8gM6giwSen-295" value="Grafana" style="aspect=fixed;sketch=0;html=1;dashed=0;whitespace=wrap;verticalLabelPosition=bottom;verticalAlign=top;fillColor=#2875E2;strokeColor=#ffffff;points=[[0.005,0.63,0],[0.1,0.2,0],[0.9,0.2,0],[0.5,0,0],[0.995,0.63,0],[0.72,0.99,0],[0.5,1,0],[0.28,0.99,0]];shape=mxgraph.kubernetes.icon2;kubernetesLabel=1;prIcon=pod" parent="sdSFOSKggI8gM6giwSen-287" vertex="1">
          <mxGeometry x="330" y="192" width="50" height="48" as="geometry" />
        </mxCell>
        <mxCell id="sdSFOSKggI8gM6giwSen-296" style="edgeStyle=orthogonalEdgeStyle;rounded=0;orthogonalLoop=1;jettySize=auto;html=1;" parent="sdSFOSKggI8gM6giwSen-287" source="sdSFOSKggI8gM6giwSen-297" target="sdSFOSKggI8gM6giwSen-295" edge="1">
          <mxGeometry relative="1" as="geometry" />
        </mxCell>
        <mxCell id="sdSFOSKggI8gM6giwSen-297" value="Prometheus" style="aspect=fixed;sketch=0;html=1;dashed=0;whitespace=wrap;verticalLabelPosition=bottom;verticalAlign=top;fillColor=#2875E2;strokeColor=#ffffff;points=[[0.005,0.63,0],[0.1,0.2,0],[0.9,0.2,0],[0.5,0,0],[0.995,0.63,0],[0.72,0.99,0],[0.5,1,0],[0.28,0.99,0]];shape=mxgraph.kubernetes.icon2;kubernetesLabel=1;prIcon=pod" parent="sdSFOSKggI8gM6giwSen-287" vertex="1">
          <mxGeometry x="260" y="192" width="50" height="48" as="geometry" />
        </mxCell>
        <mxCell id="sdSFOSKggI8gM6giwSen-298" value="Postgres" style="aspect=fixed;sketch=0;html=1;dashed=0;whitespace=wrap;verticalLabelPosition=bottom;verticalAlign=top;fillColor=#2875E2;strokeColor=#ffffff;points=[[0.005,0.63,0],[0.1,0.2,0],[0.9,0.2,0],[0.5,0,0],[0.995,0.63,0],[0.72,0.99,0],[0.5,1,0],[0.28,0.99,0]];shape=mxgraph.kubernetes.icon2;kubernetesLabel=1;prIcon=pod" parent="sdSFOSKggI8gM6giwSen-287" vertex="1">
          <mxGeometry x="34" y="192" width="50" height="48" as="geometry" />
        </mxCell>
        <mxCell id="sdSFOSKggI8gM6giwSen-299" value="" style="shape=image;verticalLabelPosition=bottom;labelBackgroundColor=default;verticalAlign=top;aspect=fixed;imageAspect=0;image=data:image/png,iVBORw0KGgoAAAANSUhEUgAAAGQAAABvCAYAAAAaJWWXAAAAAXNSR0IArs4c6QAAFh1JREFUeF7tXXl8VNW9/51z752ZzJZ9G0I2Q4hY+551K9Wi2Fq1y3v6LEj4KC6tYIuIbIo8lKgoIAJabLFafC6VsLS1T0W01Ypi1Vaq7avWhDUhIQnZZzKZySz3nPe5AwnJzNy5524x0N6/ks/89u9Zf2dD8K9vTEUAjSlrDDLm8IyqUheQjX8Q9109fQeIBokdFTGnHSDt1VWrLAiWDkZvQKRXF2yr/99RiaYBSk4rQLqrJ36CEfr3+LiIFHZm19Z914B4mS7itAGku7qqBSMolIsYIXA4a2tduekR1angtACku7qqCSMoUooFobQpq7a+WInui/z9lAeku3riHzBCU1mDKFJ4P7u27iJW+tGmO6UBaZ9RdZMFw/+oDVpQhHmF2+qeUMs3GvSnLCCfTZtkGSeQkLYgIeixBNPKnm0Y0MZvHtcpC0h3ddWnGMFZWkNDKPo8q/bzSVr5zeI7JQE5PG1SQaZAWvUGJUBJrqd2X6deOUbyn5KA6K0dgwEUKXyQXVv3NSMDqlfWKQcIBUDemVVEneOSmzQpS0dP1DZh1wGNfZE6K1ioTzlAWq+rvCqNw6+xOpcchkRuCuATKf1dSITHPJPqP0A1oAj68ZwZXYARXIMRkial/KDkHgJlZVvrGljsHE5zygDSel3l+QLGa3kEUwDAJLtP1iQK4I0SsiHS71/reaUlMBg0WgO48/OJ6wQO3QEAWC7ghEJrVm2d57QCpO2GLzv4SGgTj9H15oGgHDIK0DNA6GwOaL4FY4X5y0lQ+yJ++/gdzUFlDScpTCppakxIpG2aVjnOweM3MYIqfZK+WO4woWvyttYPZZ5ZrBlTgDTOLM50U/uHCEEli/EjaOT77Vj7xtqXaNebqIUC9GVuqXOrkakLkP1XVVjdLv5SniM3IsBTEII8BCAkMUCUqr1I6QeiSJ8J2MOvx8+Su6ort3AIVw/ymhpENRHSSZuxpU5VjFURS7a1TqvIFXj+UR6BFLxkwWdygQKERUKfjALZYsPc+6k6SCaBCkT6AdYm4ZOWAmHq7t1RVh+YATl8dWlGht12BAG4WIUbRicXC20xMswsFkFdkXDGGTsOeVloJRpmQFqurjrXboe9rIJPbTrjkPaCkFWy5e89rPFgBqT5+5XfcFrwm6yCxz6dcUGP93W45KMRbD1rxz/CrPFgBqTluopv2Tn+jSHBhvtjuMBkMZAGWxSAilLjIKVhEACnpqVQCmy8F6Z16u3TKi+2CHjP8VZOxyAyjl1RmiJBYogIhRZKxFdCwP0miuin7W5nx3lP/SWSKphvX3opf0ZBa56FoEsEDmZxCC4FAJsSAAq/009aCiymdOot11ZW2a34c50GmsIeS3OIZH2AG9hYsuUIc3utZMz2acB9HVVeYeW4RzGiZ2opi9Jo8veROjvr/jDmJkuatKWDvVvJCb2/qxhQ0SilP+mzhpaOxsqf1Lx1TJ94s8CjJxBAmho/KUB/5pY6JwsPMyBSUs27r2os7AIUB0RyfcG2fVtZHDSDpn1GxTkC5t9EAFms8glFB7NqP69QomcGRBLUO7NKR+dx3BQNXcKQD2FC783bWr9SyanR+v3YtIrJFoHfjQAsLDojhG7O3Vr/w1S0qgDpmVnVjwDsLMo10cigRSkcC/p95cPT4Jrkm8TUPqPyYQvG97CI90eiXyvaceADOVpVgHRWT3yZR+h7LIqNogmL9Gd52+rnGiXPLDnN11RlO9JAymQoFtj0yjpObgFMFSBHp0+8yMGj94x1Sr4RC0bpdYXb67cbq89caV3VE3dxCF2ZSkuUwic5tXVfSUajChDW9Ww9/cSgkYEI+bpnxz6DwTcXjEHp7TMq5yotZAUIPd+ztT4hFaUKEElhz8yqTgSQbaZrwSi9rHB7/dtm6jBb9rHqMy+3Ivq7FHoiGVvqEgYDqgFpm1E108bBi+Y4hCBE6G35tXU/N0f+6Eo9OqPiHAfHfyynNUTI3PzafT8b/rtqQCTm3hsm6h7+JjNSJHRn9ov7TolzHKzQNldXTHbysfWeZB/NeKF+xEYJTYB03iCNtsDQ0RYFCGY+X684QmENxFiia71+4vQ0DNuS2RQi5Lb8X+4fahE0ASIt3eblY0M3KneIYn7FCwfbx1IgjbSl44bK9QIHC5IEXEx/dt/Qfi5NgEiGdt404WVBZk4itWdqBBNCn818bv/NRgZgLMrquamyHifZwBEIk7MKXzzwD8lmNXEb4aOU2/I1VRqR26Lpm/fJbjgzMrBSzU7PxZdxAp2FKfoqAsgFFNtteHykTiFIKRwliLwvEvqbqCX4ruepk5vk9NoiTRt8P4jFbETcCaWfZj6z/2xdgEjMx26ZcK0Nw6/0GBoi9Id5zxzYrEdGKl5pneNL5U33CRgvQQrrGzI1m0QpvB0KwzzPC/t1Lz8cvbniK04O/SXe5vRf7I+BpLmGDArsvXVCO0KQmzQoyjNEkv7UfmnFzvBv+7RJlsszIjsxgm8aKFwME7oy5xcH7kc6Vum6fzjhHQ7HtsTGlvqkMAUJnVzwiwMf6gbEO6dC8xA4RMideU8fetzAgMVEdc2uqOERrDBa7nB5YQIP5D59QJOOWHPfWjGiuReB7sn6+cEpugBpmTNhigPTd7Q6nr7pgC798Xpjx9yyw0cRghwtNqkdjABAtC+Kzi96ev9f1errnFN+t4Dx6qEqAkDSNx3gdAWk57aKv3AYfUVL7RUpei9z0/6vq3VEjr5ldnmxk8fS9n9dPmmxJ0rptqxNB2eo5fX9uEI68jBkrytPJyC+289gbq7iu5P+qFhW+GSD6vMTyZxumV1a5bRwujtctQEdTk8pdLhzDxawnCsZ5Ov6UfmdAoc2DP7vJ9FJmkvT/nkV7nygCjvyZBsB6t540JChbuvNFbkOJzV2Qqmh7ToR1Kg/FExXM1T2zTtZqMNRulQzIB3zym61YvSUllIlivBu5hOHLtHCO6JUAiD//PIoTXFwRq8ODfzUHxxwsoLSfXt5Lc9BrLmT4qIZkJ755Z9wCBIuemEZ/gZCZHLBpoYPNTg7gqV3fvnfMIIvs8oRKfw+HBVX+LDw8YSNI84VorpbJjoz0wa+aeXxEozQV1n7IpmRvfj60UNWlq0/n/041zne4uqLDYEpSEsb2j7fwnJpR7emOYTLfUh2CZPVmvb5ZVNsHJIZ4Y0IEw2JdE7u44efZpUt0XXMK73EwnMvIUQz1fAN0lIK3ekbDjGtG3kXlPsRAgdQiGoHZFEZc4ce55DoXnd4KJmmxVmJx7eoLKFAxJdWkdL3M9Y3XKxnEnfszuKL0jhOAl514RMJ/Dpzw+HvK/nYeWfpXRYOrZHoNAHStjjf4UB2v5KiZL+LBP6Wse4wW1Mno6B9Qdn0NH4wnZ28Bw6JdFnO+oZVWmxMxuNdWPYu5kD1MD0YoefkPdaQcp7StKAoLYMXYgdLNQHSsqj4XBeHUx5NkBuohKJ0ec76xof0BMp3V2kwVV4qLMKd2esajM8ALC6tseDkGYDj/g6vo0N/i65HGhRbhL67SqWZO1YNCJ0GnLesdCeH4QotQe2LkPM8644kJNdYZTX+qDgzKx3LbmmNEvht5iMN17DKU0vXtbhkoYVH69TwhaOkJvvRI/en4uleXLoaY/iWKkC67yq+W+DwajXGxNO2E5xxxhr2E0Xx/F1LSx+3IJDOiCf5aNS1qlHzMTtWv3ruLtnMY3QLK71E51rVwBRrJiKpz7BbbE0IgaYRx3DDd+1r5FmGg3LO+paV+BBKfqwuEIWL8tc0yq1fq4mfIq1vWcmJLDfbLDIi0qVZq4/EOu5UnyIg7XcXX5wmoD1Kglh/d61sVNSZSlbf8pKkoztp2797ZaOV1Q69dLGBjc2WMLBJAQ9xrWxUHKmlDE73PcVzeAGeVB9B+YUQ1wPSbktt397Z5woTCzqSHg8Li7Ag+6Ejj2mTrI2rd3lJLYcpc1IxEKQV+WubDmqqIV3Lxy+wcmi9NlPluZz3awekYVlJYY5AW5JJb+222OJm30abniBPOtDz7UnFzEeeCYG33Q8euUw1IF33FU+zcmDKnlrnCu2AtN5TPMllg8+SOaRHrh7kfCuK/44xfIlRBnWuOJIyqZrQfLQtzy9zWiyHGBXIkMm3pA7SpDlt0n1v0dkWAf1fvFJKweta0ZShz2Zt3G33Fl3oFBBzXs5HRIenRn7jxAhApF0R/Q+OT9gVIWsq2wBjBHtzX9Bd9UhnLJmm9mv578ISt41PWEMhFA6572s6Q608I+hPxEzxbq1BXQMiXJNT0/RbOd0jAPGtLPorRvBvRhgqJ6MvAhcW1jT/WYuOlhqP3S3g/nhekUJ9+vLmL+zmIP9DRcyJ1ihBOzLubZquCEjHA0WXpPGwW0ug1PCERbIm694WVVcWDZfvf7goYdgrXWzjWtbMfN5Pjb0stL6Hi1owyF9zPlwGAWhzL2uWvRJ9qIb4VxeJaBQWekQKje57mktZHE1G419dlDSP5VjarHk4rdWWQT7fw0Xvcxgms8ihABHn0mbZM4kxJ3of9iwWeLSWRaARNI67jmoOXu+qwk0Ch2+Lt6Ozm8sqWW3cGXU1fvau9rwpYPQNVp5U/scC07923IndDxp6aVYrhtF1Rrmsknu0Ba9jTY7Ljq2+eLURkb6UsbTlvzSYo5ulb+24PRjgYlZBjiXyBRJ1rSq81iYgXdtB2Qw5OXsPE9iYeVeLTIJQWVrfWs+JpylGZgT+7G8RptYA80RNWRMbhX+t5xBCUMZGDeBY3CLbQiD/Oo8XIVB1DR2r4hR0omNhi+IagRz/0ZWe8Rl2OBL/O6H0765Frcxr7Ab4ERPhX+8ZQADMeTTHwhSA+NYV7uQw+rZm4zS2cn1RsbxgybHDWvV613ne5DEktNthQmoyF7WlXHvQqlOOr3+DR345OzE+1LFAGpQl/2JVx7eh8E8chguMNjSVPEKh3nVnq665g/9xTxgBTVj/CBN6X+aCtgdHw5+6NTmu8TYhoU+T0y1lpZ3zW2Vr01Bb1vdY4XschhQPnchVBZYqkpymPxhx596tbdYuOdxek+t0ZvFJZ/1RCh+5Clsno+nmvtLWsz5/vpXHqrLMhEKDc35r0j5n5Ez98fwXeC52afGofITCp855bbGDKlq/xlXFmbmusPTCQdJmICLCpu4e28KymuRvhUipj97H8hZaebyidwCd7Vnc2qjGlv6fFHQgrH5zN6Vw0DGvLeEymoTevufxghutPDyrxig9tP6oWJk3v2O/Hhlv1wB/QU5BM0KQn6KpGCAE/kQQvMMB+AlBlRjTK4e/XRUm8GjGvLYlrLbQ7cAFOwo0j+qiFJ5x3972g+H6kg6/2tbm57kcqBEhZNOys53VoePX7NGQ40dtem9ui6ns2Zi/wMprW8OJEnjdPbftKnbbAXqfyH/IwqFlanjiaXv7UenwWplyxuz9ad5PBQ79WI9CFt6oCM+45x4bUVJY+JLRxK7/2Ji3RBDQAyxDUUrhQG+Au2zcopYmtToDT+afPE6AAJB0m6NaIQB99tuODU07FFMY7T/Nddo5/D7GcPbJA1jqtSpxBCLogpy5bR8p0an5vW1tvkNII9/hOXwNh2FSbHMEBTFK4GMiwpa/dh7bqXUi6f1Z/nKBB/0jOQTQHxLPzb29M3bjgyIggwFo/UlBrstGXsXIvOGxrxc5C5YcS0ivqwFhNGhjfYc3T3PfEW+jdGmnc3b7OFWADAqRjPH15M4VOHQ/QmDoKp2UCU1rarepOfQyGgDE6+h/Ou9TjOUeJJPf4HFSTiKNrak9tpLKXEOSttc1gLsK888XODpLQOgyhGiKiV4KQ4f9JF0YmXak3T1WQel9Ome2lcOGX44TDJP/yLqt8xVdgMSD5N+cu4vjIOXlXSwlmlIIHe1LT59wx9h5G0qyu+vJrEl2GzdskwXLpJjFYwAiwh8dP+iQduob91EKaOD5XOb1ZQXN1BvGZxTcqj3fZZxnAB2bczxOHh1VLXM4Zql20VFoctzUUWwoIJKx3c/kfDdNgFdUGy7DEInCIvfNnYbvD1NjX8fmnIlOC9QNO8Kshl2RNiKi5903ddyoqVNXlC6lo5/P+ZjDcA4LLQsNoXDEG7Cc6Zlj3L0jLHolGu9z2ddbOPQCK70i3fD+kkJ7cICcm31rd/Mgn+E1RBIca7pqc6RhoSEnbQeNjYiwwX1D50JFpw0gkHwIvJizB6dMuGpTJBL4kz8YqS641Zuw/GAKILGm67nMYrsFq0rUMbpHIyJ60Hmg836zRmLeX2Zeb+Xw82rmaUltR9A7EKG/4gF6ogB7B6iwu2DWsZRHuE0DJFbdX8ieZbXAc4yBVk0WJXRPIMrdkndDxwHVzHEMUo3o25J9o8DBUwhpf8ppuNjWgJhZdnNvrxrbTAVEMqSvNnOjwOHb1RilnpZSkdCPoyI8KvphV9acHqYnhvb+HIQKR9ZUgaerOIwT7tFlmeLJ2RqOkrvdM3seUeuL6YBIBvm3Zb3Kc/AdtcbpoZdm/dK5b0qhGSHaSimSHnHhAWghRlCGUOwifRX+s8MjEviHY3q3pqfFVRikPTz9O7I+4jCcd1wCu2PaNX5xnBRQKO3aLs3LCaMCyMBLmbJZ6dMMHtoRcTjGT1f33Orw4mM6IE3bi9JyLf1Dj/uaV3bZ0xjshYBF5kmannAkr3C6v0OPj6YD0rs9/bI0G3pLj5HJeY0Nq177vANCYd70jja9ckwHxP9SxjqBh1GZzOkNhkZ+0e/FWdnXdzNvBUqlx3RAAi9nvMNxxy98PN0+6c10297eIiMnqKYDEnw1vR5jDa8/j3H0oiJscnzPa/h+A/MBeS39MMag+TzIWMXFeqXXlNiZInR4EAO73J9z+NR+qD5JoaDWK3yGJk4HdZgOSHCX6y3Mo5Rns8dqLZCzS3q43na5z5QTA6YD4n/D9bCFQ8ovmLGPYjXgZ6zwaBRetl/p+08NhiiymA5I9y7XxU4r6L4rhRA4+OnBvjMrx7u+Y7HASoxhkrpclGIsmKc7wTC6MP1Kn6aTxEpWmA7I/tfAWpLm0vPWCA2F6DTXlf5fxzvT9VqW28KFr+IxmoU5+OqJ24pM98kytc80HaYJHh688DvOETc4K5WSE7/TSARWOL7pV7078LPtYBlnT3cQEnIRq2C3YooGooikWWCOhacLGPUnJRMJ+ihtap9pZ2lGBZDgbucfOQxfG+GhTLMuTbZCYXxr+uW+nXoCJ8c7sNuZYpObssbuIOQXXOE39uLmYWpHBZCuN52yl8ZIe7AIgQ/DInnE3Rl4w+wDNpLvA+86DmOMVM+NCKGHbVP6y5Vh004xKoBI5vW8YZsCmMfIRvrEAG33WYIdZVNBT9+i3WsACLzreEvgQNVw3Oe1pmd/25iclZzxowaIruiZxNz3jvM6m4UmfQY8PvEeicBj9in9uvofFjf+qQGRAhTbyT7O/muBA9l5hbQUbJkcSP6KEEuUVdD80wMyGKu9e0GYFHKsFnh6x4mHwo7/RIG+FwhYpk4dnQsJ/gVIktLbuyc904LCN3E8mtUV5C73TO2TDpWOyvcvQEYlzOxK/h+nbm70Zo/b5wAAAABJRU5ErkJggg==;" parent="sdSFOSKggI8gM6giwSen-287" vertex="1">
          <mxGeometry x="341.58000000000004" y="260.2" width="26.84" height="29.8" as="geometry" />
        </mxCell>
        <mxCell id="sdSFOSKggI8gM6giwSen-300" value="" style="shape=image;verticalLabelPosition=bottom;labelBackgroundColor=default;verticalAlign=top;aspect=fixed;imageAspect=0;image=data:image/png,iVBORw0KGgoAAAANSUhEUgAAAGQAAABkCAYAAABw4pVUAAAAAXNSR0IArs4c6QAAEO9JREFUeF7tXXmQHFd5/76eHe1K1uELSrYlbB3TK0sGTc9axiQGZDBF2db02IbFwUaGBEIlYFelKlwBEuQQUjY4ISnbRUJx2cSm7A1I+1YSkNhBxqZAmJ0ey8jy9MhSBMioCIe1kiytdqe/6M3O7M70TPd7r/v16ID+b3e++/fO710Ip8n388HXzT527OWlaBgDHmEOgFYAwEIAmA8A6bobEwAwBgAHAPB5Qioanjfa1zdnz+KhHx49HVzFU9HIvWvX9k3MO3g9IX4QgV4HAH2a7DxGgD9EovvThxZsWbJt2zFNcrWJOWUA2XXjajM1adwDCNcBQCq6hwQA0m5VgWBrtcf70KUbn3Gj69THKW25PpUzknbdeMV5qerEFwHgRpUoimzhTnFYQr92Is6ysZpKv//SjT/+jYg9qd9PCiBuwboGCIYA4OykHIskdwaklwBh0Bx2HoskJwZTVwFxC9lbgPABAOiJYbNWVkFtmgSkd5vDpYe1Kg0R1hVAdturr/bA+G7TaEjsn1S7UxPzm6pBl6c8YwcAzeskGIGA5PuVTiImDPDeupw98z2x4fEoEgVk7w3Zsyc83AkAFwaZKR/3dgkI8JMMc9ZUbnrNIppM/TxeKKS4X0wbtGrJptJLUtQRiBIDpGJb9xDAX0ewKZDFB95hkzm1GuHa1t8CwN/r1BUmCwH+KcOcDyWhTzsglWtfO5/Sx3lp5RO2xL7JHuPCld8a/WUdkK8BwLsTU9ZZ8BhOzFqc+fZ2PhHV9mkFpGJnBwnwUW3WBQvaYTJndePncj77cUT8jLxepblKqFgEekeGlfiIUcunDRDXzj0KQINarBII6ZmES5ZudfbNADKwAtHblazuTiA2/odDJiu+Q4d+LYC4trUHAJZIGxSnJwfwTOa0zeRd25qeC8YTL+2Fn3CvyZylkbnrjLEAIRhMVezdfMQxN64hCvxPm8y5wk/v2hYfza1UkFONl6LpqOlwpnf52Tg0xGVH+iID8pP3D6TnH/AOA8CsTpqTKKU1mUQfNkdK9/h1lvPZNYj4Y8ko7AcAXqtfL0mvQnZ8bKEx9/IvjvLMs/IXCZDvrV3bc9H8gy8rTfSUTWswtLbd5ME1/ZudxzuJc23Lk8iJeRnm9FRsi5fiSP5z3YICN7F/bMGcq7dtm1R1W9kgAsCKbR0BgNktyrRWiZBREBpXmsOj2zs5WrGz9xHgB8OCQERXmH2ZYmV8t3KwFIN7NMOcs1Aiz9ksVxmQsm39EqcWhvR+BLsAcVFQ+qOhDMm7LDPyDO8v2r7aOsr8g2ELUb8wmbN45+DKuenx3kN6HWiXRgAH+plzgYoeJUBc29oGAG9UUaBAe8RkztyynX0EAQOHkOnJnguWbH36QJBc17Z+BgCLOzUrHlRXrGA7ys/b/fMMmBN7QjfdKIS3Dk+YzFkrGwdpQFw7+2EA/KysYHU6ApOVavY0B9UvBycO9WW+vXs8SH4lb72REHjB8X8TJnNqA5D6gOS4uo1ROegjJit9ToZbCpDn869ZYmCKj0qifZL9SybnpHADeGEl2GSO0ObmOUnDYCK4q3/E+ZvG351oojknx+VRdemKkR17RdRC5+ollneAMZZVRWZM/Z5hjtHoBN28tR0Q/PONjpNCv/SKbW0lgGub/48TsxY0551c2+JD9rPkLNNCVTWZI1wHEgLi2tZ/A8A1Wkxqa39a11qbS/+uG7KXpDxsKVGEsK9/2LlEZMue66yLJ3vgfzldvXK2AVkuWA8iwXqRLM2/P2Yy5y1hMkMBKa+zVqMBJWWjJJso32D+mMmclqG0f16BAP+cYY5USr+Vl7abrHRlsx/NoCn7F4OBPMj2b3aeCRIRCohrW7zja+x5imGGmJUAvtPPnJZmpmxbP0CAP2pwN0ZJYmkAFdt6igD+eKqW4PoMK/6Hn8+1rcCmWLZMydjio5keXHTiDQSkbOc2INCnIiiMxOIBXbWClX7QzOxP58t06A3+ip29lQBrIEz0Hj9v1dDO37b1NYXcZ4jo45EMFs/WA8US4J39rLhBGhDaAEalWEstRPzE6w3+EtjcoTeU1peAf1f/e7/JnEWyBj1308AFPZPei5w+CMj4fspaM0PX8LsxovRL6FhD3Lz1ECDcIkrYqJsTxEF7TFZa5v+1nqbh+SlAhMHMsPOfsjppcDBVT49MmswJbHYrtnUvAdwuK1eZLqjtI3jYHHFuFQLS5Iicbg2NrUzCUKW5ahjuFiwiEI/MZJKSsdxsFHvf7r1M7/Ief6q+rYa4tvWFE5uV/0IODT1UYcF2besoAH7TZMV3qWo7sfmBN7ubTOa8LYy3ub9R1RGT/gsmcz7QLKMTIMJdmJGMCC5i3zeZE5gfc23r/zK9yxdGWfRxbesIIn4yM1z8vMhm17b4xuteEZ3u3/2FsQWQSsF6O01t8RQm/LUZVu1ZZm55OjAtUynk3poZLvJNdsqfa1v7kOC2zIjzhIi5nLeuRYStIjrh74ptm79vbAHEtS0+NDxHqNRHoGhDM7dUOkHVnuk+xLa2pTzjtmWbR3kGWPiFzUuEzNEJXjKZMx3zaUBezA/MOYweX3jq2kcAX+5nzvuSUujmrX+d6Bv/xKqh53jeSvhV7OynTmw57Tg/EDLXCaIUzrlknHXhyChfgZ1ZwnRti+/84zsAu/ZVU+nzk9z6Xy7kbn7x4Pxvyi6l7hxcOSs93huY2k8wMJ82mfN3rYDkrSOAMCdBpX7RUpnbOPbwBOWKTaV9Ksuorp0bE61axrEpgLe2ODcNSH3TQqRdEmrGzczgO+Wu1GSJqflMnK+viClnKMqF3P1I1DIUVeH308o2YfvHFqR5TZ5aocvn1gHSSKhiWcmS1nfKXUmyJkoWOcMd1yrCvDlS3NxYMv1+QnuUAs1slIi4fujmP4n9yJMmc97QAKRrafZ6AMlkjqE7mLrkJbe8G5p0raXlsTmBp8uhqa1IoUstvzOZc64+fXolteS2ak210B8tBtQy3uV1qy9Cw/iFFonSQtAxWTEnTd5lQr4whwDp+DkkNSDJ8xZh/SDmQ1p9Fg4AcIvJiuu06tQojOfAALo6BZiyHulWvi30AQK4LYo/wrgHCqWNJivdFEVnN3j8O1Ki+6lmLQI8iBG28TdpUauSTYyhGV41N/RTdy/z2xa/5zgg/HzHgim3mggCi0VkEJojV9tjqz+UeiTKLFjF0hRc5Q5yQPgMPWADly/4+upuolneOMFKZtQpbdEkB0TmTIW0RFnCoEV+Wf6k6HYX1iz2aFIqXR/dhsBWhjgg8Ud3ESwLW0ePIE4bi1vIfQ6IEjiDLtfUnzRAAOB5kzmXaoukJkGubfF1idbDSDFlq7T02gFRUX6q5bPq10X9Omb8Y7FrB0TJGoJ/N0ecru5wCbPPta2uJ1n99uju1J8EgMtVqvypUksinqrii3o/AoI3iwuiVB9S69S1nf0gxNv7h4v3c+P2Xrdm4UTPxM0A+OcAwPsKI2AnZMdz52IH9VK4dvYFAAw7+M8vNXscPPyah0eeWMHKtTOKZdv6EwT4hiZrqhh1yTKgr3jZZE7HQzB8VXLR3INrPIM+gID5mclobUK6zmSlLZqcUhZTLli3IQG/WG3qI/gtGMQQ4YG+9OztYTea8n1jAHC+stKODHSI1xB++WNGImUupTPlGRfLbrvhm6knPXgLEa4/Ol595+r/2tHVXS/coZ2Dq85NH5/1KBr01VnHq1sv3vJsY3O30F/fZvAO9FLNVDNfhdcQrZfGIICbYU6/0JszgMC1s08C4FXBrqgCgkNYyVvvJYQv6YwP9lQXZ761o8trLDo9EMtSOusuORdAgvdh2wlbSWaByb82mfMKsVunL4VbyD0LRJfp9ICf1MXEDq0Q/ak5UuI3vZ1xX2XdQI4Mb1S3Y7X8Hheqc+jbbKTokL9uh7olrzleehqUmuW1DHgdkFwRgCzdDkW560O3DbrlVWzrcQJ4k265AFP7DGqAJHlgBQHuyzDnDv0OdF9iJW+tJ4QHk9CMQO/KsNJDNUAkbtFps0GlqiLBWpkzGkk4qktm7bGAqlHWJa9VDkF67OzZ/LWG6c1Trm3xXd8db4fTYURvdfJclUmXDp26ZNQmj+Ozkryg/7jJnNrprWZAunG2cGoxjG9H52uluiKWvBxtpga0LP9mMucvWwDZd/2rzhlPndd0uF5ulqnSdCUft2YNYvtPju3tdjW3Hi3IJ7Fa1k0QtARYixAlr4+azJk+l9MCSNnO3Y5A94rFiUtfrFFAmAHdD5g4HDEoCPCOfla8ryGiBZA4W2Ak4sQAcVMM208aq0d0gwFgRzEgNC4IkBmeuSOspQ9pKCvb1iYEKERRHsYTduGKbl265e2ycxtSCVzEQwDD/cy5odnettEDf57u6Pixl9XXR8KbsdMZkKRuRprd2zfHv/jVcTiXxO2jfwDEV28JtpkjztX+2twRkCgzd1EzccYAItFZimLBf0+PLajNzKUA4USubak/khJi7BkDiEy0xTQPmMx5TyeywBlofcTVfj96xBLyB0Cmw08ZVlv36LiFNzQl4NrZ6wFwsxhwMcXvHyBBg5zwHTbCHI1rr94FYPCHgGN9HBCTFe+MJeQkMbt5awMi1K6+6PxJT5SF+5mFgMjf8iBtVPSwKjeXXbBJwRuZXZpCQLi+ciH3eiTi+17PzK8D0MrYCyJDiG/oHy7yrbahnxQg9VHXlwHgz0QCT4vfdUdb7PRXTOa8V0ymuCTRePwrWX+wG+96NK3F8OdaGwMe6fKp0pcoPRamZEF9KMwPtOh6cN7v2PTrnTKlSQeNa1u8ACT1qNmxDHPmqFwPpQQID0Dl2uW9lJ7HQYlwV4mwk+36HSgJnrH0cOLQnLC3TjoVKGVAuBDxJmNOJQx+xwLeKeGmoyZ0kjGTSK3/qrEtTht0TpRHjCMBUht55QfOR/R+JbplRjWYiPiPmeHiJ1T5otC7+ew/AKJuXURkvLJ/ZDTS0bjIgPAAvDA4sKA67vF1ePXmK7g0dq3ZSqC58lK9xrnLhkYPRikgnCcWIFxA/T0nfqZC52s13zCZc0tUp2T4XNt6+ERFf6cMbVBb70tGHRlbaJwT9UHJho7YgDQEubb1U0BY1TllFuB2WHYY6fr+4VL8i407qC4Xstchoc4TWztN5mjZCa8NEO63a2fvBsCPBJY6xU4zicsFyuusN6MBj0WtGe189FmTlT6qS55WQGrD4oK1kgienelXYk66EO42h52P6XDYLVh3AYGu4HmI8OrMsPOcDtu0N1nNRtUmkHnrfwBB+kHFcKfwEKTgtebGYqQ3090bc5dCFba33cerWGOnbSTYlhlx3qQy4ZMFTXsNaVZcv3KVv+Csac8wHkKgvzq40Pi6qPPkg40FB7z1BPgvGi9GPk4eXBH2qJds4IPoEgWkobSStz5KCHfFNdbHz1cz+a09zxJi7TwjEvEnkV4NAK/S/e4iEnwsM+LcrdmHNnFdAYRr5c3Ybjt778xrzjMz+cCWI2qTojFqCHT/cla6I4nmKWg4rdF8sah6gvKTJyj5KwTqE0qxCh0UvMO+c/mw8+luAZFopy4bkUo+dyWh91DwlRbR8mGy+jsMYfcgGbdmRoo/ii4jHmfXmqwwM2sngUetm2Gqn+Htfze/nwHvHwacR1Qv7k/CyFMCEL9jL6zLZqopvAMIbgaAV4Y7rlyLfgUIj6SqdO+yzaVKEkGNI/OUBMTvEB/Czj0wsTRFqavIwKuQ6DICuAgA5tWH1A0/ODr8HvtDCLAfEX9KHj1VxepThxem94iGynECqYv3/wFy0Eg8srXmiQAAAABJRU5ErkJggg==;" parent="sdSFOSKggI8gM6giwSen-287" vertex="1">
          <mxGeometry x="271.1" y="260.2" width="29.8" height="29.8" as="geometry" />
        </mxCell>
        <mxCell id="sdSFOSKggI8gM6giwSen-301" value="" style="aspect=fixed;sketch=0;html=1;dashed=0;whitespace=wrap;verticalLabelPosition=bottom;verticalAlign=top;fillColor=#2875E2;strokeColor=#ffffff;points=[[0.005,0.63,0],[0.1,0.2,0],[0.9,0.2,0],[0.5,0,0],[0.995,0.63,0],[0.72,0.99,0],[0.5,1,0],[0.28,0.99,0]];shape=mxgraph.kubernetes.icon2;kubernetesLabel=1;prIcon=svc" parent="sdSFOSKggI8gM6giwSen-287" vertex="1">
          <mxGeometry x="260" y="126" width="50" height="48" as="geometry" />
        </mxCell>
        <mxCell id="sdSFOSKggI8gM6giwSen-302" value="" style="aspect=fixed;sketch=0;html=1;dashed=0;whitespace=wrap;verticalLabelPosition=bottom;verticalAlign=top;fillColor=#2875E2;strokeColor=#ffffff;points=[[0.005,0.63,0],[0.1,0.2,0],[0.9,0.2,0],[0.5,0,0],[0.995,0.63,0],[0.72,0.99,0],[0.5,1,0],[0.28,0.99,0]];shape=mxgraph.kubernetes.icon2;kubernetesLabel=1;prIcon=svc" parent="sdSFOSKggI8gM6giwSen-287" vertex="1">
          <mxGeometry x="330" y="126" width="50" height="48" as="geometry" />
        </mxCell>
        <mxCell id="sdSFOSKggI8gM6giwSen-303" value="" style="aspect=fixed;sketch=0;html=1;dashed=0;whitespace=wrap;verticalLabelPosition=bottom;verticalAlign=top;fillColor=#2875E2;strokeColor=#ffffff;points=[[0.005,0.63,0],[0.1,0.2,0],[0.9,0.2,0],[0.5,0,0],[0.995,0.63,0],[0.72,0.99,0],[0.5,1,0],[0.28,0.99,0]];shape=mxgraph.kubernetes.icon2;kubernetesLabel=1;prIcon=ing" parent="sdSFOSKggI8gM6giwSen-287" vertex="1">
          <mxGeometry x="260" y="56" width="50" height="48" as="geometry" />
        </mxCell>
        <mxCell id="sdSFOSKggI8gM6giwSen-304" value="" style="aspect=fixed;sketch=0;html=1;dashed=0;whitespace=wrap;verticalLabelPosition=bottom;verticalAlign=top;fillColor=#2875E2;strokeColor=#ffffff;points=[[0.005,0.63,0],[0.1,0.2,0],[0.9,0.2,0],[0.5,0,0],[0.995,0.63,0],[0.72,0.99,0],[0.5,1,0],[0.28,0.99,0]];shape=mxgraph.kubernetes.icon2;kubernetesLabel=1;prIcon=ing" parent="sdSFOSKggI8gM6giwSen-287" vertex="1">
          <mxGeometry x="330" y="56" width="50" height="48" as="geometry" />
        </mxCell>
        <mxCell id="sdSFOSKggI8gM6giwSen-305" style="edgeStyle=orthogonalEdgeStyle;rounded=0;orthogonalLoop=1;jettySize=auto;html=1;exitX=0.995;exitY=0.63;exitDx=0;exitDy=0;exitPerimeter=0;entryX=0.005;entryY=0.63;entryDx=0;entryDy=0;entryPerimeter=0;" parent="sdSFOSKggI8gM6giwSen-287" source="sdSFOSKggI8gM6giwSen-298" target="sdSFOSKggI8gM6giwSen-297" edge="1">
          <mxGeometry relative="1" as="geometry">
            <Array as="points">
              <mxPoint x="110" y="222" />
              <mxPoint x="110" y="298" />
              <mxPoint x="240" y="298" />
              <mxPoint x="240" y="222" />
            </Array>
          </mxGeometry>
        </mxCell>
        <mxCell id="sdSFOSKggI8gM6giwSen-306" value="" style="aspect=fixed;sketch=0;html=1;dashed=0;whitespace=wrap;verticalLabelPosition=bottom;verticalAlign=top;fillColor=#2875E2;strokeColor=#ffffff;points=[[0.005,0.63,0],[0.1,0.2,0],[0.9,0.2,0],[0.5,0,0],[0.995,0.63,0],[0.72,0.99,0],[0.5,1,0],[0.28,0.99,0]];shape=mxgraph.kubernetes.icon2;kubernetesLabel=1;prIcon=svc" parent="sdSFOSKggI8gM6giwSen-287" vertex="1">
          <mxGeometry x="150" y="126" width="50" height="48" as="geometry" />
        </mxCell>
        <mxCell id="sdSFOSKggI8gM6giwSen-307" value="" style="aspect=fixed;sketch=0;html=1;dashed=0;whitespace=wrap;verticalLabelPosition=bottom;verticalAlign=top;fillColor=#2875E2;strokeColor=#ffffff;points=[[0.005,0.63,0],[0.1,0.2,0],[0.9,0.2,0],[0.5,0,0],[0.995,0.63,0],[0.72,0.99,0],[0.5,1,0],[0.28,0.99,0]];shape=mxgraph.kubernetes.icon2;kubernetesLabel=1;prIcon=ing" parent="sdSFOSKggI8gM6giwSen-287" vertex="1">
          <mxGeometry x="150" y="56" width="50" height="48" as="geometry" />
        </mxCell>
        <mxCell id="sdSFOSKggI8gM6giwSen-308" value="" style="aspect=fixed;sketch=0;html=1;dashed=0;whitespace=wrap;verticalLabelPosition=bottom;verticalAlign=top;fillColor=#2875E2;strokeColor=#ffffff;points=[[0.005,0.63,0],[0.1,0.2,0],[0.9,0.2,0],[0.5,0,0],[0.995,0.63,0],[0.72,0.99,0],[0.5,1,0],[0.28,0.99,0]];shape=mxgraph.kubernetes.icon2;kubernetesLabel=1;prIcon=svc" parent="sdSFOSKggI8gM6giwSen-287" vertex="1">
          <mxGeometry x="34" y="126" width="50" height="48" as="geometry" />
        </mxCell>
        <mxCell id="sdSFOSKggI8gM6giwSen-309" value="" style="aspect=fixed;sketch=0;html=1;dashed=0;whitespace=wrap;verticalLabelPosition=bottom;verticalAlign=top;fillColor=#2875E2;strokeColor=#ffffff;points=[[0.005,0.63,0],[0.1,0.2,0],[0.9,0.2,0],[0.5,0,0],[0.995,0.63,0],[0.72,0.99,0],[0.5,1,0],[0.28,0.99,0]];shape=mxgraph.kubernetes.icon2;kubernetesLabel=1;prIcon=ing" parent="sdSFOSKggI8gM6giwSen-287" vertex="1">
          <mxGeometry x="34" y="56" width="50" height="48" as="geometry" />
        </mxCell>
        <mxCell id="sdSFOSKggI8gM6giwSen-310" style="edgeStyle=orthogonalEdgeStyle;rounded=0;orthogonalLoop=1;jettySize=auto;html=1;entryX=0.5;entryY=1;entryDx=0;entryDy=0;entryPerimeter=0;" parent="sdSFOSKggI8gM6giwSen-287" source="sdSFOSKggI8gM6giwSen-298" target="sdSFOSKggI8gM6giwSen-308" edge="1">
          <mxGeometry relative="1" as="geometry" />
        </mxCell>
        <mxCell id="sdSFOSKggI8gM6giwSen-311" style="edgeStyle=orthogonalEdgeStyle;rounded=0;orthogonalLoop=1;jettySize=auto;html=1;entryX=0.5;entryY=1;entryDx=0;entryDy=0;entryPerimeter=0;" parent="sdSFOSKggI8gM6giwSen-287" source="sdSFOSKggI8gM6giwSen-308" target="sdSFOSKggI8gM6giwSen-309" edge="1">
          <mxGeometry relative="1" as="geometry" />
        </mxCell>
        <mxCell id="sdSFOSKggI8gM6giwSen-312" style="edgeStyle=orthogonalEdgeStyle;rounded=0;orthogonalLoop=1;jettySize=auto;html=1;entryX=0.5;entryY=1;entryDx=0;entryDy=0;entryPerimeter=0;" parent="sdSFOSKggI8gM6giwSen-287" source="sdSFOSKggI8gM6giwSen-306" target="sdSFOSKggI8gM6giwSen-307" edge="1">
          <mxGeometry relative="1" as="geometry" />
        </mxCell>
        <mxCell id="sdSFOSKggI8gM6giwSen-313" style="edgeStyle=orthogonalEdgeStyle;rounded=0;orthogonalLoop=1;jettySize=auto;html=1;entryX=0.5;entryY=1;entryDx=0;entryDy=0;entryPerimeter=0;" parent="sdSFOSKggI8gM6giwSen-287" source="sdSFOSKggI8gM6giwSen-294" target="sdSFOSKggI8gM6giwSen-306" edge="1">
          <mxGeometry relative="1" as="geometry" />
        </mxCell>
        <mxCell id="sdSFOSKggI8gM6giwSen-314" style="edgeStyle=orthogonalEdgeStyle;rounded=0;orthogonalLoop=1;jettySize=auto;html=1;entryX=0.5;entryY=1;entryDx=0;entryDy=0;entryPerimeter=0;" parent="sdSFOSKggI8gM6giwSen-287" source="sdSFOSKggI8gM6giwSen-297" target="sdSFOSKggI8gM6giwSen-301" edge="1">
          <mxGeometry relative="1" as="geometry" />
        </mxCell>
        <mxCell id="sdSFOSKggI8gM6giwSen-315" style="edgeStyle=orthogonalEdgeStyle;rounded=0;orthogonalLoop=1;jettySize=auto;html=1;entryX=0.5;entryY=1;entryDx=0;entryDy=0;entryPerimeter=0;" parent="sdSFOSKggI8gM6giwSen-287" source="sdSFOSKggI8gM6giwSen-301" target="sdSFOSKggI8gM6giwSen-303" edge="1">
          <mxGeometry relative="1" as="geometry" />
        </mxCell>
        <mxCell id="sdSFOSKggI8gM6giwSen-316" style="edgeStyle=orthogonalEdgeStyle;rounded=0;orthogonalLoop=1;jettySize=auto;html=1;entryX=0.5;entryY=1;entryDx=0;entryDy=0;entryPerimeter=0;" parent="sdSFOSKggI8gM6giwSen-287" source="sdSFOSKggI8gM6giwSen-295" target="sdSFOSKggI8gM6giwSen-302" edge="1">
          <mxGeometry relative="1" as="geometry" />
        </mxCell>
        <mxCell id="sdSFOSKggI8gM6giwSen-317" style="edgeStyle=orthogonalEdgeStyle;rounded=0;orthogonalLoop=1;jettySize=auto;html=1;entryX=0.5;entryY=1;entryDx=0;entryDy=0;entryPerimeter=0;" parent="sdSFOSKggI8gM6giwSen-287" source="sdSFOSKggI8gM6giwSen-302" target="sdSFOSKggI8gM6giwSen-304" edge="1">
          <mxGeometry relative="1" as="geometry" />
        </mxCell>
        <mxCell id="sdSFOSKggI8gM6giwSen-318" value="" style="shape=image;verticalLabelPosition=bottom;labelBackgroundColor=default;verticalAlign=top;aspect=fixed;imageAspect=0;image=data:image/png,iVBORw0KGgoAAAANSUhEUgAAAGQAAABdCAYAAABTl8MxAAAAAXNSR0IArs4c6QAADaBJREFUeF7tXWt0VNUV/s488oYESQDz4CEoBmqriEhmQkIAIYBLLaJSxUJbXa6+bIUkvqpmtUstJLooXbZV29XFKlakWrTKIwk1PJKAGLFqQVDBEJJAIBIw5DWZmVPPnUyY15177p17b+5Qzr9k9tln7/3tvc85+95zLkEUt7I63A2KtQAu61fjBIB7i+14N1rVItEo+KoaTDQBO0AwSkT+w9SKmSXTcDLa9IsqQErrkZDQi38RYDaPoSnwSpcDy0sL4OShNwJNVABCKUh5HZ4E8BQATpkZGWU2dgH4cbEdLxvB4FIycConxUa738tqMQvA2wASIhzlK5gxq3g6Po6Qj6bdDQvImr0Y2efCTgATVbZAnZui8OFcdKjMVxV2hgOktBqWxBj8FcBSQUOWdQQpB1IQv+IDfUN0ISgrysHDhHjymlGaoQApr8F9lOBPAMzcBgpndGkmvX0Eix+z4R1pUn0oDAHI83W4xkWFvUOqPmr7Rp4Qew3EibyV+Tiu2/giAw0qIC9UI6krBlsB5EZqiMgCpX90ik2dw7CkdDIckcqjtP+gAEIpJeV15FkAJcLkoIo1lZogqJ+bEKwosuF3qnGUwUh3QFbXYAEheANAXJCcxgLmnJtg7sM27JNhz4hJdQNk1V5kEhd2EuCKAalVAUDB6kvSbH489zvdmPPoDLRLdlOBQHNASg8gJvEsXgGw2E9eVcBQwQIiLEKI94dOG35eSuDWblTuMoQyEcpq8DMQIReblHAwIGZ9oFhanIuNSvTh6aNJhJTvxvXUhO0AUow9T4RJd+G9ocVMkL/Chi94jCyHRlVAfluPZHMvqgDcIEeIwaFVZe6p6HTgttIC9KilgyqAlFKYEurwPAF+oZZg4fgYLJUxcZ4osuEZNcowEQNSXoNFlOBVADF6gGHYMQg6KbCwxCYURBU3xYCU7cQ4WITBsxSPrkFHyeiRJIhQKIKDfU7MfCwPp5Vwkg3I2i2IdSTjdQrcrGRA7j5qGU4tPtyC9xMSrBvThB/deafwgIy7yQKkvAYPUYLn+J/acctxkRISF0DvL7YLjxO4GjcgZbV4CcD9XFwvGiJVVmKsmvxakR1LeMzCBcjqWlxLgA95GBqFRtNMpYA5NeOqkun4XMo+XICU1WK3GiVyKWE8v6vjlQIrBYbjk1E+FXsDpsTe/xQ0THdeQJoBpMsX41IPHwvUF9ulN8y8gLQAuFxv8xrIwdVQPfoBkWOFKADvIgZEFetHPlfJFOMiBkRO6AwWbTBaGgIi0zUGyyYXxo08GlTQQUNAVJBusFkcefVepN7wHpInfBZeFFnOJwa88H8tATGEx0WE6RevLAN1m2CKcSBjVhXi0k5FxI+js5aASA0fHjAep+OhkZIi3N7QC4iXR9zwNmQtYO90a9YGExA5Sg1OtAUCQkxuTLhnnRzB5dJGCyAceomFSwRhpDcg3zyuqC+J9p06B1SKSfQGBMBFFCGKzS7e0QuIN2FeSlkaGFkOS60iJEwW1TBCIsjdoY2m/8QuBoikapIEom6hISBhXPHMf78NS1w3hk6QfBYj6dDDEyZjUupS1B5/Am4a+UHarpPpiB/RCmJyQTxC+JyjszkTJosT8SO5T15rA4iYg3SdSEdL9WxQl0UwtDm2FxlztyI2Rf47ylZzEm7P3oLMoTMEXpS6UHnkAXxy6i+ev2U+1O89MxxNVYVwOzxvKl12zUdgjgN64ekD7xzSdz4JTZUL4OxMFHhZh3yNjHlbYY3vknIwbQAJHNXZlYimyvno6xgSUiC2A86YXQmTtU9KYBAQ5I55FjdmeI6NBLbuvja8dmAW2ro+keTFCBgAzdvnoecr6YNZUoBQlxkndhWgsyn0W09JYxowKncnGB+Rpi0grOxwclcBzh8fHTB+aP8dNvkTpE75wHt2PEjmccMW4taJr8NiCj42Ekjc3FGHNw4WwuESOUhLCU7X34izh7K5gGNEooBQoP3gNWjbP1WaF6FIu34fUrIPhqLVDhAWFV/+8w6/kJeWFiBmF8Z/bz0I8fei5dceQGrCJB4WfjSbPr0FR9r9yx09bWloqlgg1KnktFCAsPR7dOMSuJ1WOaxgsjow/q6/A4Q5p6dpujHsPj0STdsWhBFSPMuPX7I+KH2ttLlAJE8sUI8D+GSy/SfW4t0v/V8nPrFrJs4fGyfLgALLEKUTx9fJOPbWIlm8vMTM8UwWvzStXYSIAZKU1YhRedVw91nRXDUfve3DgpQZAMQHs9CAUNQ0PomPW1/EXZN3YHiICAoNSAHOHxsbNG5c6mlkzKlA24fX49zh4FQWKkLEADHH9iBz7jZhcdFcOR+u3thgPQcbkJTsA0ib6n8cr/Gd24JA4YkQN+3D2r0pcNILK5fstKVYeOXf/BTnBSTjpm1IGMVubvKs0Ny9sTi68W4/XmKANL61yO9mAcYnfdZ2NG2fB0tcF0bl7UBzVSG6Wy9cTJQ0ugGX51cHgqRvhKROqQebuH1bU8VCdJ8a4fc/HkCcrh6seS/er19a4nVY9p39igAZt3gDLPHdfn0/X79cctk7ECE+W5MhY48ifmQrTr2XI/DLmr8Z7QcnC1FpjutBVuFmYSns2/qTQRQD4u7Bmr0qAnLHBmGz6tukAGFG7AsxhzBAkiceEpb6LKrG3vqGsAqzDjmHlKs/DTffGBgQNtl5J2cKrLQHT+qbP1uKT9vYWVHAYooXNopZyTMVRUjS6GMYNWPHwB6BeXTbB9O4UlbgpM5255nztiBmWDuIsIq6sJKSmP0NDEjAJlFslXXe0YKPWl+CLespYdMY2ILnEALPKit4UmdL0NTrPhB26N4du8CvPx3JmdRZt9jhbcicUyE8AuZs+gIyYnodkq887CdbS/WcoJ1tyDkkxwlC+O+b8Q6yt+kZ1DQ+7jfmyd356Gi4cBSe01ghN4Z9HUPR8ObtF1gElLnYn0OvOoQR0/b27znC1sH0AYR51kj7brDcGqp99dF1OPPxtQM/hQIkwToSS761A5fFX81pP4q6479G3fHSIHrqtAj5nadc4u3MyjpsScyWxoGt4+h4tNbNAPWpewXSCDbIqcGQK47oNYeQFoAOvNvr3YekTDyEtBu83iEuC9vxssIjK0D6ARKwf8xKLsCi7HdgNYlfHnfs7L+x6dAtcLrDF/MCC4ohpWNpbMr7GDbpQHhHoASn9uXg3Gfh71JLn1WFxIwmseqndhHCyhKs2MZTMPTVlJVcLAmdElFAMD3zceSO/rXfzrzTcRIbDuSjvVviPaoA7ucOX41T708PKvMkZjXi8rzqcMXAIDldjlg0V80DA9u3sRJ8esF2KXtoBwhnXpFJ5p9/LSQet2ZvwujkAmz9fDkOtbGDvsoac6DW2jx0NIyDNek8MudugSVRyjHEx2LpkFWRzTG9yLipAtYkrtsCow0QZcYW7xUwwbJSGDXJigiVJdIZELlPjVTWNgrY6QxIFFhENRGVOd8lQFQDIEJGmteyIpRP5+58Ly3oIFT0RIhvBlCWDXQwZ+RD6ASIBu/dhtNdXcB8o0fzSNIJkLCeo7mSkfutfhyMAIh+2hp9JE1fcjC68pLyBeQ9ddOg6OiqRojfTQ46KSBu10EXQFEqVg+Q1bXYQ4Dpkp53iSBcJWddsQ3LpUzEdbXGqhoUmEj0fmhLygiSv6sQkRYX0h/Kg+fVlzCNCxDWX4sbgVTQU0q/8L/rtwH6VbEdT/MIyw2IAEoNikGwSubL5zxyeGjkIiSXnl8StShdhGJZUa5wszdXkwUI46jNnYuKJkkuBdUlkiEnwbrOXtwn9wtxsgHxKvjsHoy1uLHLaLeSqguAgsAlOAiKgmI7FN1EoBgQr+JldfguKDb8X93bGypVEnTChZuLZ2BHJE4RMSBscHazdWItngPBL3mEGazUr9G47H2UJ1fa8LQhbrb2BYDd/W7pRSWlmMb7+UceAA1MU2kmuG2FDf7vqUYgsCoREjj+6j2YQtzC1xGCzyOoecllBIqLdhUrq/j//wQ1I5/nllG5ImoCiFeI8lr8hAK/V/r9ELnK6EDPTuB8v9guzJmaNE0BYRK/WA/r1w6sB8WdvBrIzfVy6Xnl8KOjeHFMC34q9+pwuWNpDohXoFU1SDcR4fL+Cex/uhhRrjVC0//HTDB7hQ1n1GEXnotugAyksTrMoxRvhvxKmx4a84/BTt0UFtuxh79L5JS6AyJEh+dz3L8B8FhQGWbwQ4ctY4uL7MJHB3RvgwKIV8uyCiQiCZsB5MvXXEYZg5c5wduxZ3HHgwvQy9tFbbpBBWQgje3CpG+WkeyUpOdAooIoUdDF15aNThPyH81Bg9oGlsvPEIAMAFODZZTgz+wUW1hFIrS+D28HIbiryCbMaYZohgKEWWTjRpiPZeBlAD/wWEiD1OSJwjWddqzU+kORclE2HCBeBZ7ZhbQYM6opMNlXqUiDgwD7nLGY+8hUnJNrLD3oDQvIQBqrRR6FMPEnKTaIB8V2asKckhz4H3ZXzFSbjoYHRMgubJlci0dAhMegcmV2U4IHS2x4QRsTqstVrnLqji6TW2k14hKt2ASCQtGuPjmNAP8YEot7HpgK6cu6ZMqiFXlUAeI1wupajCcQyjAZIoY50v+tWvY+WVS1qATEZ35ZTIE/AvCewjxJCX5YYsO2qELBR9j/AQ28N6n/sni3AAAAAElFTkSuQmCC;" parent="sdSFOSKggI8gM6giwSen-287" vertex="1">
          <mxGeometry x="156.99" y="260.2" width="36.02" height="33.5" as="geometry" />
        </mxCell>
        <mxCell id="sdSFOSKggI8gM6giwSen-319" value="" style="shape=image;verticalLabelPosition=bottom;labelBackgroundColor=default;verticalAlign=top;aspect=fixed;imageAspect=0;image=data:image/png,iVBORw0KGgoAAAANSUhEUgAAAGQAAABkCAYAAABw4pVUAAAAAXNSR0IArs4c6QAAIABJREFUeF7VXQVcVMv3/y5INyKoYCIWdovdiondiorY3d3d3c17is8O7Hh2PxsUEQMRkO7a/f9mLne5u3t3995l8b3/fD5+PrJ35syZcybOnBoJ/uNlwQKZQTuvLyXsbC1am5uaehqZGFUzKlDA0cDAwERiIJFIlPCXAZBJZTKpVJqenZUVmZqZ9TItJfVCbFzylYBTJb4sWCCR/peHrDyefx3Xixc/mpSqYNPbztZqmpmpSQWJKs3zgKMMMhlkqenpgbGxiSs/v48/6unplp4HgHpv+p9gyJ1Xr+yKO5VYZ2NlOcDAwMBQ76PUAFAqlWbHJyYdDvv0fbKHh3vM7+ybr69/jSEymUzy6UfM5IK2tssMDQ2MBBGCYEv2pHwq2dnSzOi4+NmuRe3WSCSSfOxJ/QB+O0POPX1qXr14+dPW1hat8omuegGbkJR87UVoYOeOtWql6AWgQCC/jSGEEbVKVfzbwsKspkDc/v1qEiA5OfX505B3jX4XY/KdIWRrCvuVdNrayrLT76Mw2W30O7T4xOTzLg4WnfJ7K9Mv1koUD/wS0b+ok+Ph38cIkT3pcCaFR0QOLFfCKd/GlC8M8X/71ripS5nPpibGRUWSiFNd3CzXgbY6o5aenhF+83twyZ7u7hk6A1HTUO8MeRvys1Oxok5n9I3ofxHet/CILu6lCut1rHplyPeohIvWVlbt/m3i5cdqUQczMTH5knMhS72NWS8MIeqNMZMzo42NjGzzygzNxBS3janHRV9wmB4yMjPjtqw1KqgPtUyeGXLx4UdrjyqusQYGEoO8MuP/c3upVCZ98u6zfatarvF5GUeeGPLw5UeXiuXKfMsLAvK2+bHPaEAsMzMLsXHxiIj6heiYOKRnyWAokcLezg5OhezhUNAOJsbGihAE4Pg65HPJBhVLf9GVJjoz5Nnb4DJurq4fhXQsk8mQkpqKmNgExCcmIzMzA6amJrC1toKNtSXMTE2hiw4x6lcMXrwJxPsPIQiP+IWMjAxYWlnBsaAtShYrirKuJVDMuTCMjYzw94NnOOh/AW8/hCIzK1sI2rSOsVEBNKhdGWOH9kTpEsUEtQv5HFKuWgXXD4IqK1XSiSGPXwcXK+/m+lVTh6/eBmH19iN4GxQKqUyYWsjGygIetSqhT5fWqFTBDQYGirsgYaz/mcvYsv8EEpNTdRmvQhujAoawtDCDlYU5jIyNkZ2VhYSkJCQlpyEjM0sVvgRoUrcqVswZSyeRpqLrShHNEHJmNKxWhnefJARbsXk/jp29oYKroaEBLMxMYW1lCQmkyMqWISk5BSmp6ciWqpooCGJGRgXg1bYRRnn3xOpth3D+2gMFuIYGBnAuXBDlXIvTbcbIyBixcXEI+/kLIV9+IDY+KWcyyGBnbYlu7ZuiS9umKFrESYXZfMTNzs7Gu6Bg7DpyGnefvGb0mjlzq6JbCRzctABGxkZqFZ6P3oTYij1TRDGESFMTpsky+Q5wsiWMm7tePi4T4wIY1qcjenVpk8OEHLzV7MNk8KFfw3Aq4CYuXH9AiclXrC3NsGDyUDRtUEcQUcnqJF1q2hLJRCL/IJHAQMXklYtF6LcwjJ6xCmER0fIfx3p3w9B+Xry4koN+wyqJkRjpSxRDfiVmxBgbGdkp9z5x7hrcfPAP/dnGyhx+WxfBxbmw6syRUGseMRKRsashUq5I+i0sHGt3+OH2w39gbmaC47uWo2hhR4XuCSFT0zOQlJQCqUwKMxNTmJubwKhAAXVEgs+UZXgT+AnpGeov2qYmxqhUoQyG9O6IejUrKTAqJjYO3YbNkE+aIo72uOi3kXc8RCR2sDJWoZm67U4wQ9Rd+gaNm4+X7z5R+NNG9UXfrp7yvlLT0rH/2AX8de46YuMTmFmofIhJJDAzNUGFsqXQoVVDtGhYG9aW5hr3518xcVi4bi/uPX4JKc92xzY2NDREpfKuGO3dHbWrVVRQN7589xFDJi4BWZlCipNjQWxaPJluj2zxP3MJyzYfoX+SLfn+uT2qkhmAxMTES86FrAVdHgUx5E3Iz47FizqdVUZ84ZqdOHXpDv35xO6lcC1Vgv4/MjoWvX3nICaO56gRIDoSGMWcnTBxeF80b5CrrY+NT0TXodMRG5cghIYqdSqVL4Oty6fAxspS/m3u6l04d/lvwfAsLcxxYs8KemaREh0Ti5a9xuasegkent8LExMlcRkyfAuPFKRm0coQoihs61pRxe78MeQLegyfTZE6uHEOqrqXp/9fvvkQjp25wjtAgbyQt92+cgbq16zE9HH8Itbv/EMw4TRVJOKw39aF8m3t/YdQ9Bk1RwRsGTq3bYqFU3xom8zMTNRrPwTZUhldKU8vHeTdvi59emeiTSGplSGRcenfTU2NnZWxrdVmILKypejarjHmTR5OP4+ZvRZ3H73QPDCBXBnatzPGDulBYS1avw8nL6hKbiIoyFt13qRh6OrZlH4j0l7Dzj6qW6AGfIs4OSDAbwNtn5GRibqe3lQIK2Rvg6v+W1X6JFriQjYmGjXgGhkSGBrVr2hhB2aT5JTLN+9h+tLtdBa8uMqYBo6euYoVmw/myIVa+ayRlrY2Vrh1Yjutc+jEJazbroKCUnvddVNV3cvi4MZ5FF5WVjbqtvdGdrZwTyErSwvcOb2Tto+MikbrPuPp/1fPGYVWTT1UxqnNnqKWcsTSl5gOXszqtBtML07zJw6GV/uW9GCs2WZQXiesvP3tUztBLokxcQlo3n2U3uCqA2RvZ4Mbx5kZnZ7BbD98Aoi69s5FHHHh8Dr6ec7yrTh//QG94T8OOMDbxMqECG38ThRqGfItKvG0jZVlZ2WIiUnJaNTFl/78zzVm5k5euAnX7zzWC+GqVSqLAxuYGevRcSjdSlSL7itCEVYuHO6q/BkVg7Z9xgkYT277aWMGoW+XVkhNTUP9jsNo2yeXDvCK38QcXKyQZUe+DngZcv/+fbNKNerzelts2v0H9h27iJIuTjh9YC2FWa1lfwHIM1ZubUqUe2f3wMLcFPefvsaoGSsFwVVbSUiHnMYlXIrgzIHV9JeTF29h0brdgm3zRDdHJCwuPQ5tnIsq7uV40bv95pkFn+MEL0PCo1Oe5nqHKM7Gpl6+iEtMxsrZI9GmeQN8/hoOL++peSNcTmvuLK3Tfggy0vVgIRXJlJ6dW2HWWGb77TR4Cr6G/dQ+i3LwZ3eMBp2GITklDSMHdobvQEYwUS7JKakvitib11D+XYUhmlYHl/v3z+2GuZkZvaCdunhTR4YoMnvV3HFo3aQOfsXEo2XP0TrCFLYSNQE/vW81ShYvQg/5Wm0HCQZIBBwi6Hj2HYsfkbHo0KIelswco7YrvlWiwpDvkUlX1DmxkVtxjdYDaQfsbGjZawx+RcfpTDzuPvb86mGqohg/fz1u33umO8ycliIXh7w/cpd4dvkQ/XvL/r+wx++0ZlxyOnp+5RDVr3X1noKQbz/RomFNrF0wUW1b4ozn4mCp4DCowJBcyYr/0ExITEJjrxFUD/XiKnOgEwZpUl+oIwrbMXumcPfgGq0HQCrVdtqI5Jcg7uSOe0CP9pjs24d2Ur3VAK1SFwFPJhRZIe36jEF4VCw8m9XFstmahQNliUuBIcFfoyY7OjqsUTfU0K/f0WXIDBA7wpNL5M4h/EBnYKqXjtq3bIilM0aAWPJqtxssktoCqgtiiCIcdsXu+eMstuzzV/jIB47dNRp19qH2msE92mKCr2aBJzI6dloZZ3tGklAWIWKTszIMDQ3VOj6/fBOEQRMWUymISEPiGaKecPs3zEP1SmX1I11xutGBD/LWfbzaYPpoZnWQVaKpcC/J7ApfMs0HHVo30diOOHjbWRjKlV/yFUJCAqqWrazRHf/Rs5fwnb4a3NupUJFX2xx+eGEfiMp75vLtCLh+T1v13/KduzV3HDQF34jEpaZYmJvh3lkiJufuGif2LIdrSe1m3zfP3xVkQyHkDAn9GbfP3tbGW9NIn796hyGTluXLCmGXe6teYxEVHcssX4kEriVd4NmiASqWLUln6uMX7+B/9hqSU8SYcLVfJDu0boQx3j3g5GDHqxi8fOsRpi/ZrHbbrVPdHbtWz0RWVhZqtWW23EcX9/Gq45VpHBufcKCEE0N7OUNiU7KzDLUEy3wMCUWP4XN4zhB2wNoHzsdw7kwkKhjXEs5Yv2gSnAs7qJ0fb4JC0H80c6PPSyniVAgXj6zT6mTx7mMo+o5UrxFeNG0EOrVuiOCQL+ieowVnJ5k2/LKl0mw7c0NqUaMMIWFkDZuXSdPWMC4+AU27MboltjMyG8isyEsh1j2iZiCFGLWIwYpbfkbGIDA4FBIDCWpWKQ9LczP6OexnFNr3Vy9WasOJuPmQWcyWU5duw+/EZfyM/EWtjxZmZlgwxQcNalcBMWgNGrdQLci/T+2EtZUFNu7yw37/AJgYG+HRxf3MSlfSUPCda3dvBJuS8DrKkKAvEQOLODkyYpOGwr2HsJeg9gMmISw8UltTjd+5ZxJb8Z+3HzF9yRZERDH2ayLfE3eetPR0cDW0vtNW4NHzNzr177dtMdzLlkI6sWd4DkH/bu3Qr2sb6nTRZ8QcJCQlY+/6uahZuRyu3XmCKQs3qu1HvuX2HI2omHjUr1ER21fNEoxXWHjU4AqlHA9ShvyMTX1jbmbqLqQ1e4jfObUDVlaWWLLxAP46d01IU7W6LDsbK9zMUbcTb5HeI2dT+wJbirsUxtkDudL4+t1HUbWCG5o3rIno2Hi06KF0qxcoWrFEJPbx1NR0XPTLddJo2Hk49YoheBH8Vm/3g9+JgByUFLfmgva2uO6/hX5j6bN16WQ0qFtdlS5qcEtJS3tf2NasImVIXKo020AizBW0fochSE3LwObFE9Cofi08exWIoZOWCGKIukrELHr3zC6FASnXfXb5IIiNnJQrtx9j9fbDuHqUHLKcu5BARpA23Ns4e/ErXcIZ3Ts0x/aDJ5CYxOhW2Z2gp+9sfPjE75A4YXgfDO7ZnnpCNuvOTI6nlw6ggBpHCz46yGQymY2ZgYFkgUxmMCkdwiz9/9u3fSYvxpOXQWjTpBZWzp1A7QfEUpaXQvyvnuTYDjSJ0W2be+Dr93C8+/CZdsfO8HodhiItTVN0s6qwQYhFiKbAUJ5BsH3U9Ryi1kvl/rm91Ctm/c7DOHj8sgKzxdBl3QoYSh68+FzSvUJJZoQCyrnLtzB39R4Q/6i/TyvK3QrNRcxWcj4QPRApQtQUbD/PrhwCcZbznrgEL14HCsA+twr3IqdOMDE2NsLjnINZ3UThrjRi2EpLz0DLhjWxRq7DUp4M6iXR90FfSkvef44c7FykECMOCCh8klZjL18kJCYLaM2tkosYlzg12wwUbEIN+GMjijgWxG6/M9i6/7hK/9rmBLsd9Rs9D2+DQlTa29tZ48bxbRpXUee2TaizA/f+cf7QGrgULSyYHiyePyN+jZB8i0o8ZWNl2UVwa86e/eD8HurjumDtHpwOuCUGhEpddmsg9xChvlJr549Hi0a18fRlIIZNFn+Ondi7kt55bj94gfFzGWMbt7gUdcL5Q2s1qk5YcffPkxexchvjFSP0/qHcX1xi8jlJVFxaqImpCeNQJbDUa++NtPRMrJ03Gi2a1EdQ8Ff08hUu4il3o+sKGd7fC6MGd0N4ZDTa9WWcC/gL/zbRpH4NbFw8SS3BHextcU1JeuLC596fGnQciuTUdFSv5Ib9G+YLpKRitdS09K+SmKSslAIFDJmbFk/hW/aT5q3FjfsvUK2iKw5sWkgdmmtoUb5pgk8ufM+vMN4rYs6QTq0bY9E0HyQmpaJRF8YVSUzhToTO3lPx5Vu4QnOiWyM6NopXy/4q5ufxPn3g3as90tPTUbf9UFrv7IFVKO5SVJC5WhnXrKzsNElcijRbbPQTq9MiByo5WEkhljViYdOlCJWylGG3aVYfK2ePRlJKKhp2YpzWxJbju5fDrVQxfP6maorWtnLJJPqfoIol63fjrwu3FdyixOJBJn62VCaTxKfKZAbECVoEBHKTrdmaqKMlYO8HY+esxZ2HWpzk1PRhb2uDG38xbjhitMddPZth3qShiE9IQpOuI0SMILdq0cJEl8VcCOt4eitcSMlv7HnQrNso6p/MlnJlSuDYjqXM6mnVn7qS9mjfFLMnDlNYHdoECy7SdGNNSBMYTaMwXBn1wyIOZduXT0X92lWRF2VfjcrlsW/9HAqPSFlCy5RRA9C/axt8/voDXkOmCW2mVE+G++f20XvE/WdvMGr6CoXvTy8fRAFDQwwavwgv3+YGRV09tgWFCtrixav38J7EMIaIyERUFlu4TNORIcDoGctx7+lbVK1QGgc3L+I9GIXOjsG9OmKCTy/Rzg3+u5ajbOliOHvlLuat2iGWDvL6XN0YsVYSqyVbWKc9rjMHV7PQxGs44hNTQEISAv7YpDMObEOdGfI28CP6jVmoYF9v0MlHo51CHYNmjvNGr04t8OlLGLoNnS54UOzFcNTMVbj/5JXgdnwVWQPZ01eBGMZRBZ0/vA4uRRyxy+8MtuXcdQ5tXoAqFcogOjYOLXowXiUn9yxHaWqM0s0EkWeGcM2a987sgoWFuTAPDR5qjBrcHcP7d8H38Eh0GDBJEGGJ5vdxAHOfFWYC0Eyo8m6lcHT7YgqPeGYSD01Szh1ah2JFHbHb7yy27venGme2325DpuLT13DGbZSoYcQcxGpGSQ91DVFcGonTuIsPEpJS5Q5hScmp1INcbGlYtxq2LJ2S6wclAMBo7x7w6deZBO2jTjt+XZrQLZPt7vrxrShoZ4MfEb/g2W8C/fnv07toABF7+d2zbg5qVSmP5JQUNOjEiNobF45Hkwa15ViL7ZdtSKeMLmIvC2D/n2ewce9xmJsa4/55Rl7X5hbEtFWcrcQg9SDHDVNYe9B7CxE51+36E4f8LwhgIbcK/2rhOl2TwKCQL2FybS/5m4Res3j28p2JoE/fqJ2G1cOJREKlupSIvdouhpo6kV+IJMCzS4x6fMbybbh0/b5A3HIJw54HG/f4Y/9RlWAtBXg1q1TA3nVMsJCYi6QQpA5vWYTK5UtT9Xvr3mMVJsqxncvgVsoF8QkJaNKVsZyunD0KbZqphh0I6Uu5Dr0Y6qI64c7w2m0H0UD8uRMGo1uHljqHEAzr1wVjvLtrJTLZDm6f3glrEpfx+CXGzpK7NAmngYY9xczMFA/OMS5OT14GonZVsj2locfwmfL7Sru+4xAeGYMCJFoqx8NRSOfatjKqOtFFucjtfM22Qzhy8gqsLMxw5wyjjhejIOTCYrWvgcFf0HsEswKUi6mJCR5eYLzMPToNQ0qKVlcA9bRSopAEMpAgarISuMGdE+dvwLKZI6mt/+OnUPTwZZwddq2ahjo1qgjhhaA6CfFJZ0Wr35Uhp6SmwYONhwjYDyMjI2za6499f2redviUPe7lStOQakInEqg/eqZqOMLMcYPRq1NLGjdC4kd0L+qlLq7SMCs7G6u3+WHmWObCyu4IJPz79inGyqm+iBOBqfpdrIGKr/N6nt5Iy8jEkF6eGOfTV7O0pGXdDuzhiUm+fWk3ickp6DZ0BiJ/5frvESdoYhTKm9e9djY2/1949roFihrkvX4nsXn/Sdr4zP6VVKlKDGOXbj7Eq/ch1HpKnMU9arljw+IpcpOzpt645KAGKqEmXBU6cn7wP3MFyzYTz+9crW2nQTmxFdrHrlLj1skdsLXODV0mA71x7xlevw/GtFGMr2zN1gN5U3Lo0J3aJqvnjUOrxnXod03iNR8AQp5HAfvpvUVooSZcUlmMkwMfcO4l8diOxShXppSoSx4XJuuaQ377/iMCxEikrhC3pJ2HT9F/uhRNi5UNUWPhhoVHYNzsNfgSFkF1bsRkQHyvXAo7oEn96mjXvAGKFnFEROQvdPeZRSOUy5Zyhv9uYVFgcicH0qEYNyB1Ax8yYSGev/kIB3trXPNnzJ6sK40wYsmwZv4EtGzEXLDGzVqJvx+/hrGRITq3boQu7ZqiuEsR6lesXF6+C8agcQuEdSOg1t51c6hDnq7l1dtADBy/JFcdr4nzOd9SUtPeFbYzc2cd5QYUcXJkDBs6Fm4wKIloJZesDyHf0HP4TEEQRw7uDt/+jCV5+ca9OHZONSqL1aYSE2+LnmPh1a4pxg/rSdv0GjEHQcGhnL40Hajqv5mbmdIUGaQs2bAff124DseC9tiybCq1myhrNcjuQKKFg0K+wSMnyQFJIbVsMxMrwoaNayOCgqMcryupNqGZpwdWPic+uReOMAH1rXuPUziU+RBr1rA21uccoEdPBWDFVj+Vasd3LYVbacbSzHX7ObhpPqpWdEPQp7yZkSlgCdDVsznmTRyClLR0eHTgl+LI7VyeQQgAN7iHJLQhLkOk1Kjkhn0CzbkKrqSksRBna21cJhneWvVmIoZO71uBksVdqK9ufTUDI/XINnQ2J/L1yYvX8Jmau+cSpZ1n87qYOW6oPH9I39Hz8I7jIeLZqgGWTR+ptR9tuLPfZ08Yih4dmtEZ30vL6m7iURNr5o6leb1IIVmCyMolzCLzmcSps9809U9eaLDlOluTykLCEYQMqvuwaQgO/aEQOE+cmBeuYS6N3MJ1dmazIDSuWwVTRw2gbjTKOa6mLt6Mq7cfKcC4e2Y3zQqXkJSCxmLt6jy7wOLpI9CxVUNKVL9TV3D/yUskJKbAzMyEeqiQVE21qlSgfXKbbz/gj51Hcu9e/juXoKxrSSEkI5ZI1XAEIQE7QqCTRCy1c7SvXm0aYv5UxrS6apsf/jgZIHcFJ8ueeJ6TSxjxaarddjANeDHP8Wxn+yJqmVMBt7BqyyGQS1rOzkLVk0d3LEX5Msw2FhOXiObdRwpBUWMdrpSnDRhh2oWrtzF/zT65CE4m0SW/9XByVB9KoQz35YfX9o2qVKFBMfRQZ4u2kDZtCLLfuefA+gXj0KwhI8u/DfqMWSu2o0KZElg+a5R8BRCPv0plS2DPesZ95urfT7Dj0Al8/hLGm6+RWOxIKguSQJMtJIdWy57qQ5CF4n771A6avunOw6coVdwZhQoWhGEBQ0izpVTlHhL6HZduPqA4knh9bvGo6Y6tK2ZojTXhtlEb0kYqffwePdHJwZ5J2iG48EssvX1nIvATk0F25SwmyYByITOM5DIhebAszU1xNydukdR7+PwtTWjzNugTPR9IvsY61SvRZGSFc3JVkXoPnvyD+rWrISIqBm0EpcPQPDBW69xnxEy8DxaWAdetlDP2rp0Da2srwVRjK2oM+tSUcEZwT5yNtVWPUYiKZTw1ShUvgq3LpoJELBGx9XTATSzddJB6a7ClVpWy2L12rqAZRg5Qog3o7dWGhqL9jIpG25xMPIJx5amoHEnLB4sIG+7lSmFYn07wqFNNEL7qcNIYFk0afYtMumxjbdE6L4OibXMY03/0HLwJ4t4PVCE386iBm/efyz+QpT98gBcqli0NYzaZMcmtmJaO2w+eUmVfdFwirT+sX2eGIZHRaKvRe1H7iIgeioRCk0Ic/4iuirg5EX8zYushOjRG0BCnNFTXc0JC8lUXR0sFWiucIaShttQaisCFIfbi9XuMmbWGulpyC0m1um/9PJpUmfWq1042xRqDe3piwvC+orcsvmsWX3Sxrn66WschAW6/Vk1Ao8IQAuhHbMpjSzOzXCOxVujCKpAZl5SUhAKGBVSkKbKiSMZS4rS8/fAZecAMH+SiTvaYPnogxs/bgH5eLTF19GDo41AnCTOPbFmokP9LzhAdLsqaqJKcnPqsSEHzWsp1eBkibpUIY4aoWjmDJyI0UckkJ5N7gBmsrS3l2lMSoENu7F3bNsC8KSMRl5CEptR7UXg8hjJOA3u0xyTfPjSxJbngcV1lReEvoLKo9EzMWZJ40sbakj9DsIAOhVcRtu0pw2Mz9bRrWhfL54ylqSxISou8lE1LJqNxvepUchs5cw3MTIzxIMfZOi9wlduSsIPihfjf5OJdIQQAkbgS0iFVW0GfGOqwHcikUlRvPRCN6lTG5mXTlVQnujBZhivHttJE/pt2+2HfsQA4FrShv+m76JTijyDxPvRnX+fCTqqaPn1jqAM81gZTzd0NBzbOR2bObV8OSiyTiecMsUYaGGDAmLl4HfQZNSu5YW/OZVUtiiL7+REROaB8CSe1WT21LgB1aWJ1oKGem8hQreUAlHQuhNMH16vGqIgkFEGOPcAbdhqGpJQ0DOvTHmOGMimauEWAeYOprlQxLT3jh6ONiUrKXWXYGgn19OlTo7KVairl2tNlS9AzP3JCF+ysLXDzJJOmVUwogzI2xMOdeLqTwoYX7Fs7CzWqVtQb4npJpEywef3pZ4eSzk7n9OC6KmhwQic3SYNkZGSIRxfUhDcLBQRQU7FyPCEbQykIaS2Vvv2I6OxeurAWVxwRz2F+i0o6b2Nl0V44cmIS0ui24ohURbYW1ionzotRsc8enVpi9rjBSExMQiMvRkOteCnUDUcCJyExMcClkHXuKwUaiKj1DOG2/ZWQEWNsrPpchXAm6bfmgNHM4Svf+3PSYejSy+EtC1G5vCtu3XuMCfM3wc7GEjdPaIo5EcagfHuuggxS8UEXYQiJ2DVE0/HQsbNYt9tfnsZixPSVePjstWg4pAGbzs9n8iI8efkBk4b3wsCevLmOBcPP9wddCCZ37wZaValVTrf3IgQPRVhF1mTst2UB3MuXwZOX7+EzmQkvE1O4qcLZbe8J8cLkfc6IOxE1T8q7/wTbeNZzE0UrUVsWO0i9PpcnhnI8dYlkVblcKRzeygTbiDtHGIA3/toGe1trefIxJwdbXD7KZPfRtbwLCi5Wr6rbd7HtdWII6eTJqy+ly5UtzjytI7oI2+6EgPWdsgSP/gmURwNfu/MUUxYyHi9CysKpvujcphGt2qDTUCSnpENsagzlfj5++u5W071YsJD+levozBAC6LetFA0HUXhEFNr1m4i61cpkDLUEAAADDElEQVRj5xrGK33Sgo24cfeJRnpYWJjBf+cyOBcuROut33EYB/+6jPKuxXB053JdaEnbBH78VLxOZd0f28wTQwgCd+/etapUwyNOJfkAefRLppewO63EIf5TxI9qz5oZqFWNeZGHJPOfumiTQhAqsXd0bN0IvgO86HMYbNm2/xh2+Z2jvslEfaLxkUs1k4Mc4PdffbITe2bodYWwwOjjxJMyf4kSifUofpHX3DoOYh4E2Ld2JmpUFZQcDzGx8SChaVExCdQjkQSvmptrfpCMb3ZkZGbGbllr5CDmeTx1syzPK4QLWPzlUevkF1xhw84jOHD8Eq1fpXwpbFk+nb6fqFzI+x6nAm5g64ET9LwgxdbaAtf8t4rKAMfCFXPpEzIYvTKEdEjULCWcnc4J6VxMHSELaufB49TayBbShmRoIHZ5kudX+TlVor9aNmM42jRroFNEs1B1iNhxiqkvqC5RSBYvU/kz32NiggDkoRJ5MIDkzvoQwi9xkhCCVo1qYZxPbzg6FNSpp7S0jLBbYcGltb24pgtwva8QLhLEnlK0sJNfvnaiYdTkhWr23UnyzjF570RQ0bAcf/z81b98yUL5ZiPKd1oRy+P3qKQTv8ccLIjcOlWKT0w64+Jg6aXuMS+dgPI0yneGsH0Sx4mSFardzg9vFu6ZoW8TAfEOefr5XWO+96L0xQQunN/GEC5jipWpcjrXGU9/t3Z9Eog4sX0NftXZw8NDTNb/PKPw2xnCYky2suBvMRMdCtqs0PRmSZ5HqAJA/QTIzs7OjI6OnelazGFdfm9N6sb1rzGEixAJhSjmWHytjbXVQPUvNOTPSiIvEyQkJh3+GvFlEhsSoP9JIBzif4IhXHRJeJ2ru3VPG2vr6aamJhX4UqCzQpCQu4kyKaQymSwtLf19fELCyk9vE46RFwmEkyv/a/7nGKI8ZBJH3+af0OLWthZNrS3NOhsbGVU3KlDA0cDAwEQikRD/aIVCvOllMplUKpWmZ2dlRaZlZr5ISko9ExeXfOtytZJfF0gkwh+6zX/6q/Twf9fVjq07HkxWAAAAAElFTkSuQmCC;" parent="sdSFOSKggI8gM6giwSen-287" vertex="1">
          <mxGeometry x="44.1" y="263.9" width="29.8" height="29.8" as="geometry" />
        </mxCell>
        <mxCell id="sdSFOSKggI8gM6giwSen-320" value="" style="container=1;collapsible=0;expand=0;recursiveResize=0;html=1;whiteSpace=wrap;strokeColor=light-dark(#326de5, #55ae70);fillColor=none;strokeWidth=1" parent="sdSFOSKggI8gM6giwSen-282" vertex="1">
          <mxGeometry x="165" y="240" width="220" height="150" as="geometry" />
        </mxCell>
        <mxCell id="sdSFOSKggI8gM6giwSen-321" value="ingress-nginx" style="shape=rect;fillColor=none;aspect=fixed;resizable=0;labelPosition=right;verticalLabelPosition=middle;align=left;verticalAlign=middle;strokeColor=none;part=1;spacingLeft=5;fontSize=14;" parent="sdSFOSKggI8gM6giwSen-320" vertex="1">
          <mxGeometry width="48" height="48" relative="1" as="geometry" />
        </mxCell>
        <mxCell id="sdSFOSKggI8gM6giwSen-322" value="" style="fillColor=#198038;shape=mxgraph.ibm_cloud.ibm-cloud--kubernetes-service;strokeColor=none;dashed=0;outlineConnect=0;html=1;labelPosition=center;verticalLabelPosition=bottom;verticalAlign=top;part=1;movable=0;resizable=0;rotatable=0;" parent="sdSFOSKggI8gM6giwSen-321" vertex="1">
          <mxGeometry width="24" height="24" relative="1" as="geometry">
            <mxPoint x="12" y="12" as="offset" />
          </mxGeometry>
        </mxCell>
        <mxCell id="sdSFOSKggI8gM6giwSen-323" value="" style="shape=rect;fillColor=light-dark(#326de5, #55ae70);aspect=fixed;resizable=0;labelPosition=right;verticalLabelPosition=middle;align=left;verticalAlign=middle;strokeColor=none;part=1;spacingLeft=5;fontSize=14;" parent="sdSFOSKggI8gM6giwSen-320" vertex="1">
          <mxGeometry width="4" height="48" relative="1" as="geometry" />
        </mxCell>
        <mxCell id="sdSFOSKggI8gM6giwSen-324" value="" style="aspect=fixed;sketch=0;html=1;dashed=0;whitespace=wrap;verticalLabelPosition=bottom;verticalAlign=top;fillColor=#2875E2;strokeColor=#ffffff;points=[[0.005,0.63,0],[0.1,0.2,0],[0.9,0.2,0],[0.5,0,0],[0.995,0.63,0],[0.72,0.99,0],[0.5,1,0],[0.28,0.99,0]];shape=mxgraph.kubernetes.icon2;kubernetesLabel=1;prIcon=ns" parent="sdSFOSKggI8gM6giwSen-320" vertex="1">
          <mxGeometry x="10" width="41.67" height="40" as="geometry" />
        </mxCell>
        <mxCell id="sdSFOSKggI8gM6giwSen-325" value="ingress-nginx-controller" style="aspect=fixed;sketch=0;html=1;dashed=0;whitespace=wrap;verticalLabelPosition=bottom;verticalAlign=top;fillColor=#2875E2;strokeColor=#ffffff;points=[[0.005,0.63,0],[0.1,0.2,0],[0.9,0.2,0],[0.5,0,0],[0.995,0.63,0],[0.72,0.99,0],[0.5,1,0],[0.28,0.99,0]];shape=mxgraph.kubernetes.icon2;kubernetesLabel=1;prIcon=pod" parent="sdSFOSKggI8gM6giwSen-320" vertex="1">
          <mxGeometry x="85" y="51" width="50" height="48" as="geometry" />
        </mxCell>
        <mxCell id="sdSFOSKggI8gM6giwSen-326" value="" style="shape=image;verticalLabelPosition=bottom;labelBackgroundColor=default;verticalAlign=top;aspect=fixed;imageAspect=0;image=data:image/png,iVBORw0KGgoAAAANSUhEUgAAAGQAAABkCAYAAABw4pVUAAAAAXNSR0IArs4c6QAADBNJREFUeF7tnXtwVNUdx79nE4gJMBAo8kZL0VLkNRPBbAIaiBZ5WqokgDhTBgIkAbQIQkvVCB0f0NYpkgcgMAhVwBEdELUakArsRh4VQcVpbaWKIBkKFALktXvq2c1udjf3cc597d1k9w+Ygd/5nd/5fu55n3suQfxnKwWIraKJB4M4EJs9BHEgcSA2U8Bm4TSPGkIbml4CajN9hcOJfSAl6c8DZElDyTcg352HGAYTu0CKnfeDYDeAxIjHkNWS6Shwvyr8eNogQewBWTuiGzz1xwB0U9HvMiiGotD9lQ105g4hdoAUZSXi5urdALm/sXSsMqgVgVYg+aaRmLG/mluVKBqqlSaKoYVkXZz+BAh5QTIYQgEqV4wwYKtQ4H7CHgWSj8LeQMoynPDSDwEkNS0CT+1oksoDh2Mi5h56x65g7AmkZHgq4DkC4CcGgYh08z08jjTMP3TWbmDsBaQIDnRxbgXFVIuE+isqk8ajaH+9RfmpZmMfIMUZeSB0LUcvrVooYQOC3yDf/bxwOhMSRB1I69KMAbWUugG0NaF8Ii5rQGg28isOiSQy2jZ6QFYNaoM2KYcAMtjoQun0929UYygWui/q9KMpufVA2LpTWfoaUFKgKWLLEpHtqHRNQxG8lmVpeXtdnPEQCN0OwGFlIXXkxR6ffOS7Wd9myc+aGlKafisoOQqgkyWlMj6TKniQgfnuk8a7DvdoLpAd/VvjQvtyACPMLohF/k/g2rUMLD5xzaz8zANSkr4CIL8zK3ARv6yQBm+UlCHfXWDGMr/xQErS7wUIW5poJSJaDNqyzn4KCtyvGxm7cUDW39UF9Y6joOipK0ATHmdd8agnvgiP507MP/y1uqm6hX4gOyYn4MKZNwFMUM9OzMIqNsbkQw6iPu1eLHipRqyURnbqJekLAfJHPQGYndYYsYWifA4F7t8KpQgx1lZDijOGgtCPANykmrHVilidn7QA9aBkHApd76vqE2EgDqTE+TmA/qIZydm3cvi3xOu80V1wZXEQQlDrqTOqaGwz8wzmunuLjMbEgJQ6J4Fip1TE/A8mRefkVJRPWI1BnfqGubpcU4Vnjm7An0/sADV6oCoj86Ih0/B8egESSOPiwbavyjH1g6eMAUPpEhRWrOR1JgbEv0S+jte5lN3Y3k7sGafc7VBK8fO3H0P5GbZHZd5v78SXMKpHmmQGl2r+h44bx/h27HXNYShdjcKKR3lLYSmQmxJa48bs/byxYe5HK7H287e47SUNZRTN7nEnyieuVvS94dRuzNr/nL787QzkxcxH8digXKECDntjJo5UnhJKE2YsA+T09J24pV1Xeb++sxMUjtJM7XmzlHYG8sWUV/Gz1FuFC5i6cTQu11wVTqeUoG7OASQ6ElR9JpQNh5fqWIG3JZCGp/TLqdvw0w69Q0TgOzlS46lDyvoseKmu1jxM/Pq5B5BA1IEklg2HxweEL9YmhG0JpCHKpkBUH9Cgwemr5/DjrQ82JtDZ24oDCY1VAE6zAxJS9re+/giT3lvKT1HBUh8QATjNDkiEqI+7XsKfPn1NNxTP3ANwNDRZSs97Y5OlMUv7A+mle+c4Y+dsuM9/pkGhRumNqyEqYVgLRKAt/WHzQHMfIpFNp03342L1FQ1Q/EmaKRAxPTQDkcim1luH5HUjNQ9JzQZCCJuC2GUeIjMCMhIIY3Sm6jx6bZkk+1QoDcTMBhIMytomK3o1JJDznv+4MP6dRUKBMFB1UvMQiaaxBXTqoRNDaR1XHf8LFg95mFvkpRUleOGTrQr2TZVuWTWkSVvhn2F/OXV7xExdWkM2AWRL4rl9s7lnyHe/lY8D5z7lhhgAojYsidcQwDcjZzPzf0zbgdva85+Z6LxpLC5UX+aC0rJqiIwkvJ16AAgBwbW8fUhOlHiBSiIPtuuYvC6rYe1JmYtVQByUrvbadT9EHYi/AfEBqTrnW89r1zoFV2ayw498v7PXLqDHKxNVjcWAeLRPZm03ygrpT9SB+HUM1JCAqoM73YbjOZtVRQ4YvP/txxj99q8j7MN7CzEgMbP8rtYlhmuiFQjzMrv/A1h7T+DCBnU2Tx1ejxXHNskaNlMg6sKEWugBwvxszX4aD98+mjNTilG7FuDD79gdA01/kkC0zkOUZqC2a7JCtBAH0lShU1NfQ78Ot3BCAbpuHo/z15u+DCUPJDzPFjfslWr0IvuQUPXZyKsqby9SEtXP6LF09V4Pktdn+f4O/bWIJkttE0+8hkhXhLatknFl1l7VSzUCqb+/fhHdNo+XAMLOYikfvGlxNURKcqUaErC/o2MffJartFwS7nnfd8eQvWt+8B+NriGyD6P9+pDGRsmoGhJQ9Vf9xmHTyGXc/cnyoxtRdORl33EFo4HIBmE/II2hGg2Eed44chlm9BvHDYWdiPzg28PmAYmsKtYCMWkesqVhps4p88ncrRjQsY+8dUSYbCb/zSNvCh4D4gwm0sxaIGJBmlFDWATsoWSdPOvseX7snBVL4wg5YC2XTl+nzo4/wr5ne3UDURjGsWEwGw6zYbHvF1YrxGpyKBx9QOyyhSvzuOkGEqgOMgcY+6XeglNT9B8RigOJAMgz7JVrYqbfPhpbsp9u8t+qdaThYrrArCRgn1CW6T/CqjbJkguoJfYhkVqsu2cJ8vo/wNOdqNoEgahayhjEgfiFOZ7zCgZHvKHVKJlqfQma8gFR8BcH0ijOlVnlaNcqReu5dR8UPiAK1cc2QCTaXEM6dYGmg239si3g4MhLIG3AtPkAkSi81UBYCH3b98Q/p+3QgMKfJA5EYgtXs5oNCXP6ZmP7fSuauuHoSpo1kJO5WzCgo8TNrxFS9dryC5ypqlTlIDISXTPicRQOCHnhR9W738BRlgn2VrDmn236EFaCCMWeTJuB5cPywgY77FLqyB0J3e/1yah39KGNSOvcj1vbak+t71iRrl/0gci3A+wlS/aypdLvvW8qMGbPQl0aKCVmi4q92nbh8v/Au0uw67RyvKqOog+kMUSpJiWz6yAcnFQmWQ62s9d983h9L+qrKgSU3L0I+Xf8UtHy2b9vxrKP1a9aVG02zQWSngtCtnGUWdGkfeu22D12FTK6DoSDEFyrq/ZdqfGH41Z88sNfg1ltZe/MLxg4Gd3bdPbFUeepx9/OfoJH9i7H+RsG3RJLaBHyK57h1UzsJgfmtcR5/oc/bw7PgGO4whtR87K7ih/1TEXO6+EnLBTKKA6EOSvNeBCUssF9rFz3Gi6Bajuj+6mgoGQOCl3rRT1pAxLIpcS5BkChaKaxYK+dGd2GyoqHtV7ArA8IU3ZtWgo8rdl96UM0L1FbSUi70mpR/gtIGIqCg5fUDJX+Xz+QgPc1mXfA4WWX6rfjDsg8ceRDMD7PGlCMQqHbxV1uw/sQpZyLnTNBwNpO42AbUVJTfJClKHBJf4pJY37miMY+zHKzcwuAaRrjsnuy91CZNMGMD8GYAyQg54tZHZBUw66F893lZ3xrocLN+AzPISExDXMOnDPriTEXSHA0lpkOeNnHvZRPSBsvoFG61QN0Igoq3jXKoZwfa4A0DpMXA+C+ENLswvv8qz0EhKxEvov/TSGdQVsLhAXr+0BkzS4AY0RiV9NNxBcPB1C44ekwEgve1XVTtZa4RNMYY188tCtIInu9qXujQ4UlGKOJyJfiEiiGReuTrdbXkEghSp2jQfG2xEeGpSXjAMNhIuXbC4rpKHQbe9JO8PGNPpBAwMXO50AQcl2cv7bwiMtjo6wLeRn5rtkiN1AL6sxtbh8gLOTVY5KQeHkfgAzuEggYSoD7HDQpHYX7qwTcmGpqLyDB0djwPg2fXu1obOmDfdR1UJKJQtdxY/3r92ZPIMFmzLchxnatjFrmZ8vi81DoKtEvnTke7A2ElZl9uK7UyfZ8Z+uTgL6Byoocrcvi+vLmT21/IMHaktUWjhoXKAbyF89neRpez52Yd/i/gumiYh47QIL9y12DAAdb6m6jolgtvOQ+zHOxD8/EzC/2gATBpM8FCOsLJMpAnkSB6/cxQyEk0NgFwgrhX+bfBtDJDVzKkVA7FnOOGfiZHGuxxjaQgFZr01oh9QZBzhe11spnfG7NA4jxukTNYxxI1KSXzjgOJA7EZgrYLJx4DbEZkP8DJ+NCsF7W77MAAAAASUVORK5CYII=;" parent="sdSFOSKggI8gM6giwSen-320" vertex="1">
          <mxGeometry x="95" y="120" width="30" height="30" as="geometry" />
        </mxCell>
        <mxCell id="sdSFOSKggI8gM6giwSen-327" value="" style="container=1;collapsible=0;expand=0;recursiveResize=0;html=1;whiteSpace=wrap;strokeColor=light-dark(#326de5, #55ae70);fillColor=none;strokeWidth=1" parent="sdSFOSKggI8gM6giwSen-282" vertex="1">
          <mxGeometry x="300" y="50" width="220" height="150" as="geometry" />
        </mxCell>
        <mxCell id="sdSFOSKggI8gM6giwSen-328" value="kubernetes-dashboard" style="shape=rect;fillColor=none;aspect=fixed;resizable=0;labelPosition=right;verticalLabelPosition=middle;align=left;verticalAlign=middle;strokeColor=none;part=1;spacingLeft=5;fontSize=14;" parent="sdSFOSKggI8gM6giwSen-327" vertex="1">
          <mxGeometry width="48" height="48" relative="1" as="geometry" />
        </mxCell>
        <mxCell id="sdSFOSKggI8gM6giwSen-329" value="" style="fillColor=#198038;shape=mxgraph.ibm_cloud.ibm-cloud--kubernetes-service;strokeColor=none;dashed=0;outlineConnect=0;html=1;labelPosition=center;verticalLabelPosition=bottom;verticalAlign=top;part=1;movable=0;resizable=0;rotatable=0;" parent="sdSFOSKggI8gM6giwSen-328" vertex="1">
          <mxGeometry width="24" height="24" relative="1" as="geometry">
            <mxPoint x="12" y="12" as="offset" />
          </mxGeometry>
        </mxCell>
        <mxCell id="sdSFOSKggI8gM6giwSen-330" value="" style="shape=rect;fillColor=light-dark(#326de5, #55ae70);aspect=fixed;resizable=0;labelPosition=right;verticalLabelPosition=middle;align=left;verticalAlign=middle;strokeColor=none;part=1;spacingLeft=5;fontSize=14;" parent="sdSFOSKggI8gM6giwSen-327" vertex="1">
          <mxGeometry width="4" height="48" relative="1" as="geometry" />
        </mxCell>
        <mxCell id="sdSFOSKggI8gM6giwSen-331" value="" style="aspect=fixed;sketch=0;html=1;dashed=0;whitespace=wrap;verticalLabelPosition=bottom;verticalAlign=top;fillColor=#2875E2;strokeColor=#ffffff;points=[[0.005,0.63,0],[0.1,0.2,0],[0.9,0.2,0],[0.5,0,0],[0.995,0.63,0],[0.72,0.99,0],[0.5,1,0],[0.28,0.99,0]];shape=mxgraph.kubernetes.icon2;kubernetesLabel=1;prIcon=ns" parent="sdSFOSKggI8gM6giwSen-327" vertex="1">
          <mxGeometry x="10" width="41.67" height="40" as="geometry" />
        </mxCell>
        <mxCell id="sdSFOSKggI8gM6giwSen-332" value="kubernetes-dashboard" style="aspect=fixed;sketch=0;html=1;dashed=0;whitespace=wrap;verticalLabelPosition=bottom;verticalAlign=top;fillColor=#2875E2;strokeColor=#ffffff;points=[[0.005,0.63,0],[0.1,0.2,0],[0.9,0.2,0],[0.5,0,0],[0.995,0.63,0],[0.72,0.99,0],[0.5,1,0],[0.28,0.99,0]];shape=mxgraph.kubernetes.icon2;kubernetesLabel=1;prIcon=pod" parent="sdSFOSKggI8gM6giwSen-327" vertex="1">
          <mxGeometry x="85" y="60" width="50" height="48" as="geometry" />
        </mxCell>
        <mxCell id="sdSFOSKggI8gM6giwSen-333" style="edgeStyle=orthogonalEdgeStyle;rounded=0;orthogonalLoop=1;jettySize=auto;html=1;entryX=0.005;entryY=0.63;entryDx=0;entryDy=0;entryPerimeter=0;" parent="sdSFOSKggI8gM6giwSen-282" source="sdSFOSKggI8gM6giwSen-320" target="sdSFOSKggI8gM6giwSen-309" edge="1">
          <mxGeometry relative="1" as="geometry">
            <Array as="points">
              <mxPoint x="40" y="315" />
              <mxPoint x="40" y="516" />
            </Array>
          </mxGeometry>
        </mxCell>
        <mxCell id="sdSFOSKggI8gM6giwSen-336" style="edgeStyle=orthogonalEdgeStyle;rounded=0;orthogonalLoop=1;jettySize=auto;html=1;entryX=0.5;entryY=0;entryDx=0;entryDy=0;entryPerimeter=0;" parent="sdSFOSKggI8gM6giwSen-282" source="sdSFOSKggI8gM6giwSen-326" target="sdSFOSKggI8gM6giwSen-304" edge="1">
          <mxGeometry relative="1" as="geometry">
            <Array as="points">
              <mxPoint x="275" y="410" />
              <mxPoint x="430" y="410" />
            </Array>
          </mxGeometry>
        </mxCell>
        <mxCell id="sdSFOSKggI8gM6giwSen-349" value="" style="aspect=fixed;sketch=0;html=1;dashed=0;whitespace=wrap;verticalLabelPosition=bottom;verticalAlign=top;fillColor=#2875E2;strokeColor=#ffffff;points=[[0.005,0.63,0],[0.1,0.2,0],[0.9,0.2,0],[0.5,0,0],[0.995,0.63,0],[0.72,0.99,0],[0.5,1,0],[0.28,0.99,0]];shape=mxgraph.kubernetes.icon2;kubernetesLabel=1;prIcon=node" parent="sdSFOSKggI8gM6giwSen-282" vertex="1">
          <mxGeometry x="7" y="4" width="41.67" height="40" as="geometry" />
        </mxCell>
        <mxCell id="sdSFOSKggI8gM6giwSen-342" value="" style="container=1;collapsible=0;expand=0;recursiveResize=0;html=1;whiteSpace=wrap;strokeColor=light-dark(#326de5, #55ae70);fillColor=none;strokeWidth=1" parent="sdSFOSKggI8gM6giwSen-282" vertex="1">
          <mxGeometry x="30" y="50" width="220" height="150" as="geometry" />
        </mxCell>
        <mxCell id="sdSFOSKggI8gM6giwSen-343" value="ArgoCD" style="shape=rect;fillColor=none;aspect=fixed;resizable=0;labelPosition=right;verticalLabelPosition=middle;align=left;verticalAlign=middle;strokeColor=none;part=1;spacingLeft=5;fontSize=14;" parent="sdSFOSKggI8gM6giwSen-342" vertex="1">
          <mxGeometry width="48" height="48" relative="1" as="geometry" />
        </mxCell>
        <mxCell id="sdSFOSKggI8gM6giwSen-344" value="" style="fillColor=#198038;shape=mxgraph.ibm_cloud.ibm-cloud--kubernetes-service;strokeColor=none;dashed=0;outlineConnect=0;html=1;labelPosition=center;verticalLabelPosition=bottom;verticalAlign=top;part=1;movable=0;resizable=0;rotatable=0;" parent="sdSFOSKggI8gM6giwSen-343" vertex="1">
          <mxGeometry width="24" height="24" relative="1" as="geometry">
            <mxPoint x="12" y="12" as="offset" />
          </mxGeometry>
        </mxCell>
        <mxCell id="sdSFOSKggI8gM6giwSen-345" value="" style="shape=rect;fillColor=light-dark(#326de5, #55ae70);aspect=fixed;resizable=0;labelPosition=right;verticalLabelPosition=middle;align=left;verticalAlign=middle;strokeColor=none;part=1;spacingLeft=5;fontSize=14;" parent="sdSFOSKggI8gM6giwSen-342" vertex="1">
          <mxGeometry width="4" height="48" relative="1" as="geometry" />
        </mxCell>
        <mxCell id="sdSFOSKggI8gM6giwSen-346" value="" style="aspect=fixed;sketch=0;html=1;dashed=0;whitespace=wrap;verticalLabelPosition=bottom;verticalAlign=top;fillColor=#2875E2;strokeColor=#ffffff;points=[[0.005,0.63,0],[0.1,0.2,0],[0.9,0.2,0],[0.5,0,0],[0.995,0.63,0],[0.72,0.99,0],[0.5,1,0],[0.28,0.99,0]];shape=mxgraph.kubernetes.icon2;kubernetesLabel=1;prIcon=ns" parent="sdSFOSKggI8gM6giwSen-342" vertex="1">
          <mxGeometry x="10" width="41.67" height="40" as="geometry" />
        </mxCell>
        <mxCell id="sdSFOSKggI8gM6giwSen-347" value="ArgoCD" style="aspect=fixed;sketch=0;html=1;dashed=0;whitespace=wrap;verticalLabelPosition=bottom;verticalAlign=top;fillColor=#2875E2;strokeColor=#ffffff;points=[[0.005,0.63,0],[0.1,0.2,0],[0.9,0.2,0],[0.5,0,0],[0.995,0.63,0],[0.72,0.99,0],[0.5,1,0],[0.28,0.99,0]];shape=mxgraph.kubernetes.icon2;kubernetesLabel=1;prIcon=pod" parent="sdSFOSKggI8gM6giwSen-342" vertex="1">
          <mxGeometry x="85" y="60" width="50" height="48" as="geometry" />
        </mxCell>
        <mxCell id="sdSFOSKggI8gM6giwSen-348" value="" style="shape=image;verticalLabelPosition=bottom;labelBackgroundColor=default;verticalAlign=top;aspect=fixed;imageAspect=0;image=data:image/png,iVBORw0KGgoAAAANSUhEUgAAAgAAAAIACAMAAADDpiTIAAADAFBMVEVMaXG2z+vveEq50/G20Oy3z+vtcEjueErveErvd0vueEr2ekbvdUm40u7veEq1z+v0dEnveErueEq2z+nueErveEm2z+vvdknueEq30Ou2z+rvdEm3z+vveErudUnud0rvdkrueEnL4OG20Ovvd0q50fK30ezveErveErA4P+3z+q2z+rtcUrvdUnveEq2z+u2z+rveEm2z+vrdknwdknuckrudErveEn+cT7vdEnydkjteEq2z+u30Ou30Ou2z+u50+u3z+ntbUpMaXG30OvqZUq30eu30O3sbEm3z+u30OrpZErteErveEq3z+rud0m2z+nqZkq20ezyc0XteErqZkq2z+nveErqZErpZEq1z+vVpJ/bbETvd0rpZErxcEbpY0meh4K1z+vXlY3veErn9fnR6fH///+3z+vpZErrbkbtckoAAAD1rYftdEnteErudkrqZ0rj9Pfl9fja7vTW7PPh8fe40evra0rd7/X1+/3A1+3O4vLT6vHw+fvvdkrU5/Pf8fa91e3q9vntb0rG3O/5/f7a6/X9///m8/fS5fG70+v7/f7D2u/J3vDL4PHs9/rf8PbtgmztckjtgVbR5+/+8vDR4efufE/W09H61s7thVrqjmnX6fPT3eH84tz1r54IBQTseWP2vrDuimDkgGzynHn//Pvs7e3tcEbzp5fra1Hymonqb1f4y8ETERAjIiL1qIP+9vXjpo3yl2/vi3bgr5vcv7LscEbatq32+PnodF7cqZ71tajYzcnW293GZD3Rzc3nmHfj8fdVVVXjj3nV2NmLi4v96ubrfGf3xbnsc1euq6rZysTZwLzS5enpd17Vw8ElEgtwcHD5z8fknYDsrZhRKRn/+fnbxLrU4ujseGHfnZDo3dfoa1Di4uL97upDQ0Obm5vloYb73NalUzMyJiLqwa90OyTglYbftqbAv8DteEyUSi2DQiikpKS91etlZWXTnZHwk4Dpz8M2NjayYD/vpobDtcO+xdU9KiK5ubmXh4HDw8P1rI/ecEU7nch/AAAAZHRSTlMA8NQQNHgggcJAygxLIPD+Fqih97xv2lOvb7gqidw6jzBmA2KWCi5F4geWq2N2iefie8L6Nj+dWwhsJemfPEvQF9RZAFXeRCmJyID55bb97evMWxH37Wizfr14G/7RrhKa24PLJcBrwQAAAAlwSFlzAAALEwAACxMBAJqcGAAAIABJREFUeNrsvQt0nNWVJtpuO8zcSXyrZ3zHM7jpnr5mTA927sTX6qzbSfMwFI8AfasNq2ERViadxf1VqlIJ/VWSypLwsSW1sa2ysQuDC//gBwhsh2swb4yIIY0hMY8J+QOBBFaSIg/SCemTxHn186a565yzzzl7n79UVbIku0quX7JUKpVcUp199tn729/+9u/EW9dpff1O6yVoGUDrahlA62oZQOtqGUDrahnAaXGtvPz8yy645JqzrzvzhiuvvOHM686+5pILLjj/nJUtA5jVqz7vkutuXLpsxUWrUvZKxBIxdUt8SsxZuGLZeTeeecm8lS0DmD3XvLPPWrZieSIll7pfLXYMPqTMl9IEYgn5L5FKpZavWHbWdfNaBtDU15LzrzvvwgVia5vFhr2Olh57gBj+pvQQF5535vlLWgbQhNc51513kVx6veIxu9wxvPLYA0hLoW/iWrhs9vqC2WgASy64ctEcsuFj9XmAVMQDwF2JVGrOihsvmNsygMa/LjjrIrzJY9PhAdRpkEqlLlp6wZKWATTuNf+6RQvcTR7xAP3H12zYVmRs8+bh4T179mzas2d4ePNmxti2DWuOb4l4AMeQEgsWnTm/ZQCNeF229CIVxpslJx7g+NYNbPOewe09vdWvkcE9m9m2rccjLkD/T7FEauHSy1oG0FjX+UtX6Yw+5niA4xvYcN/q3klfq/uG2YbjrgeIKfQgtWrp+S0DaJTr8huXJ+TWJwsVS/VvLQ5v6umd2tU3XNzaTzyAdgjLbzynZQANcO7fcGFKYTwp7AG2bNg82Dtt1+DmDX+Nlh+ApFTqog/NbxnAqbwWX7IoEU3j/nrb8Pbeab9WDxf/mgaY0iAWXbK4ZQCnyvWftSoRi9E8LrV18wwsvr62b97qJpSJ1Kqz5rcM4BSgPWevIMCO+Lhl2/CLvTN89ezZtiWCKK04e0nLAE7uyX/WHATkyY9bipt6T9K1qbglhpJNcc1pVjfQlAZw2aIE2oBy75+81Tc24FQTY8suaxnASfH9110US5ANeNJXn/gBFIRedN25LQOY4WvuWXOcos6GPb2n7NqzwSkhzblxbssAZvA698o5KXL2b2Ejvaf0GmFbaGFxzg1LWgYwU1n/dR+LpXARb+ue3ga49mzFv1Mqtfy6xS0DmInrkoWkPtdf3N7bINf2Yj8uGCQWXtIygOmP/C8kadeWzT29DXS9yI5jTCJxxfktA5he0G9RLIHSrjXDvQ13Da8h1INll7cMYNquleclMKtnw6behrw2bUCoZCqxdGXLAKYn8b9yQQLRuDcM9jbsNbjBRgKx1JwPLWkZwHSE/jjI3ra9t6GvwQ24SLD87JYBTPE650KcZTf68suUYBuGBa44p2UAU/H+Z+EWnmZYfmsCEAwkbjy3ZQAnnPotR+SLNYO9TXMNrkGwwMLzWwZwgrG/buETBZ/h3qa6hrdYWCBx3tyWAUz+ugZ18faznt4mu3pYv4EFEh+7oGUAkz39lyF2/7bVvU14jWxAnKHzzm0ZwKSC/+W27LNlU2+TXnu2GBtOLLy8ZQD1Xx9KJEz2t62nt2mv1dtsFLvgupYB1Bv9rbACDs27/QEetnXCxKK5LQOoK/lbpdp8xLYp9vQ2+fXiNgMJxJaf3zKA2teN1vs3+/YHJ7DFQFmJM1sGUOOau8iWVDe82DsrrtW2myS17NyWAVS7Ll9ugv/+uqGf9tvW3Xzb+kY2gc0W0rhofssAJr4ukYVfuVeO1wv8t9/cIa9bb2tkbPi4ZY1e1jKACa7FZyVMA26x3pd2/a0d+rq5vYGBQRMLJmIfahlA5eN/hWm53VI33Xf9aIe9bm5oVKjfAIPLlrQMIHrNX2j6fdbUX/fd2IGvOk6BntUjg4N9+Xx+7dq1yVKpVEqWksm1a/P5fF/fyMjIDKad243cSOrClS0DcK95c0y+PAnsbx1Z/45bqxwCPSOD+fzaEr2SpWTJvSufH5wZO+jZYELB5Ze3DMAN/0yUNJnC7yg1gI51lcsyg2blk+QqyXd6F1xr84PT33S0WcvQpRac3zIACv7rvbFlUrwPZ/2jUcDqvnwSL72z+x0PIO/AD5xuK9jUb2LBa1oGYMP/8wxSsnVSld/1VQ1A73u92+HAN7tfv0Xv0j+kfcE0gkJrjMLQjS0DgGvJIoP+bCv0Ts0A2s3Ot4tv97bd8Wj9XY8gTULcnbRWsLZv9fQHAue1DECt/xUG/GeTfTkrxwAjeezz9YLiHV9y76D3EevQRpCfptOAaY2h/mWLWwYQj8+9yPB+J9/su9ExgNvk6iflqqFtTdfb/TIZ8QnYOLQvkAnCtNjAsPEBi5a0DGDlQh0WbTmBo9ZNA0fySbSYka0+8duEj8SmMF1+YFO/dgJXLDndDWD+cl38O35CrH/iAkb7wPVb9x19Y5X/2S+iHoAcHqVS35RRgkEtNJa6cO7pbQCXG+rv1hN7VQkUvD5y2ldaeX0//Wy+cuwg4hCECawdnJ5kQHQNrDydDeCcORoZ2Vpv7X/dzbeObrzZYr7rrQ9on/AgZ3QNGbmTRR+SrOgMStZkSqX81NzAi2sMKLjy9DWA+au00OuGOtO/2zZGIL/2daoeuC4/8eLjFWRJvc/p6pOtzypZTpLGA/kpZYY9a3QcsHDu6WoAK5cb5m+d639zJchnJL92e6GvYiDP7GZmsMJhUv6DbyeTobSHUN/Aa86Syeo2sHYqJlAwgMCFS05PA5i7UBf/60z/Uem/o2NUL/9ahPRG3b5c+HA4ZMMhC/MsZHnxSXwxrL8eho/iQUw+UPsDnQBOZAal0tqRKVkAxAErzj0dDWDJhVpvefOkmD+k9CuWnwC9FQLA5DDLs3yYZ3n9Oczbe0J5I6TfYcPCPhhe+4qpY3JqJlA0eMDi088Azl2hq7+bJ7/9IQroyZdwuheN95nZ+fmiXFjxWbypO8KiXH9pGWGeMfUN83U+hHODpIwUJZxaOLjNcEVPPwNYpPN/NtnTX3sAsfw2kzMZGzNHAUsOm21fhHWFFZd35O3i65WXZsCMbxCHhzwhtDegNqCKyVMxgW2nvC5wqgxgmf7Lt9Xl/jdG1n90sDRB1i+TdXXGyy2udn2oHACTC2vcAFPf0R/AT5hH5o01sGQFaMEiA30nXBrSucCVp5cBnGUUv+qJ/28bjax/x7pSBVCfwYrAmV7Mmw1ezCMHH9LFzuuv0YlgbUKZQ8j0eTABXHiC0FBhq2ZCXHM6GcDZBv8rTD76U1d+gsBMRv2wzVlodnke3WR5HRaoR+VNaGC/NiZkbCc/LDJFFRNEgoETzwl71sBeSFxw+hjABTEAANfUcXiu31hp/QdLE6F9STj5Q7OP7TqC99cnfRGZQZjHkUAxj0+OvA4jh1U4EEEK1cGTPyFaes9x3T58zuliAPMWwP6vY/3bK7n/jo19pWTl1WehelOHvfH16oY96NFt6//1uWB8gT0GjEMRRpB00UVjjCeUEq7WTSOr5p8eBnD5HHB6W1afSPTf0THaTnN+FKEnk3mWV048FDdCs64hY/akzzN86tudXiQZgokXivoryCVCwAgiwcCJ5QPb+3VZYO7pYABzl0MBoH/7iUT/HR3r1pacnB+2vloZGfqrNStaV16EICBErt/mAeSf+QltB/D/WdhI3ap0EpRKJ+IEBsEFJK44HQxgBXT/9Q9OHvwR3n+7Q9/TjB2T1edNEBiaHW8TgaJFhTQ8EKLU0ASDofMlhpFC/TTJKGHghJzAHq2HsHT2G8CNWvyndu//+tEK3p+wdxgkfQzQGuO4UQiP97NJB4p2yWF3w94PTXyAnAID+MA6CIUhRrGh0gk6gc2ACCYume0GcJkmgNVu/7itwvbPl0oOTSvJLIZvj3wcwhfl1/oeRmJC6yFUmMfAT4RwmpiwIGQQCdrMQVWWWJRiWsqfAFMUfMCCy2e3AcyHALAOALhC+Lc+WXJdrq7v6QAttEB/JMp3jnmG1hNuoCCB5RnCCJmuFenIEL5mw0nLMEF+YPLHgCoNJmILl8xmAzj3wroBoJsr5X6lSLE/qWE7vTBwwEeOdIa/Ynbbh/bIJ1YUorzQ+fk8s8AC+IGkGwwOnigckFo0iw3AdABtqUkA2zhB8E8CLgZ+OrR7FOd6IYr/zBGPU0DGbCZg9j8+GazfYHmSQlhvocwuEgyW8oXJJ4MKEbxh9hrA2boDaHDS6d/oi87pzyDyt1gvw+m82e3MRnJwZ4iPdoIGmgyBoEb2TduHqR0bWoGtFpq3tT0nmAokzp+tBjB/QZ0BYHT9N+ZLSZJzJVUEZvczs+e13aVFtG+LzgozjP+H0WOE2Xjf+o8i5AM6jNQWBLgAJZ9ONhsoQiqwfMnsNIDFF4ICRK0KcPutFd1/iZT8k7ZqX9RRPobx7brTnM4CADvl5UD/KM43BwdDKUKok03tXYoIfXBOqMkGAoU1p4AccBIN4EaYqLSmMFn4Z32pREleSf2iw24MnbMc+wJ7YBeNaw/veu2Zwy/sb7vjgzs+aGsT77tfeOLwO0f32mjB/E/GQEJsJcyEBUWDHSQjmMAkA4HVehjxJbPRAOaB/GstBDiy/qPbSxbwAwegi/S6tOec86jGb+5jCh449s7hF3a1BW28rY23jcPVPf5B5wd3fNDd1rb7iZ8cNekkYYpQXJnRexgz6QAJBCYJC24ClGTOytlnAEv09I/hScJ/t/bRpgxTyUXOntZ1MOuPpILHnn5rV5tY/EC8Bdz3O8fFm3hX1x3CI7TtPnw0ZKHJI6LVRFJK1EmBSgccLzDJUJABT27F7DOA86AEuGGS5//Na53Kvw7VQmZZfdjlk/Rde4KQ5Y8e3t0WtAWBWHxxZTnnvt/d2Tku3zvho/AHbW3dbS8cfs0JEUkF0bnBJOAokSHsBcStnsmHAbFU7MzZZgCXaAWYnsmt/zqn9MMYzviLuHwX5kO36Gc26NEndsHGx5fn+b4PFmDexoUd3HHHHW1tO37wTljMU1KB5QzoIwhcBQIMndLApJhC2/WA1MtnlwHMXaU4QDVKQJH8b51b+dXLHUI+HzJ8CNhEAN9x9Ildcu+rVR9SHwPx5nvc592dnRntB5QTkLeEI2jb8cRR7FUMhdDCBRhS1oUoNsywE5hUOjgM3TJXzC4DOA8cQHGSeg+0rS9kzHJ08g5aH+aZE6vJJQuf3k32fjZQay8MwQs87kkLwCYwri1hfPyObt62++mQpBk4ucDZgQEJwnw4bI+BSQMCW0Et9czZZADnA+PheGFS67/ebfbRhBxL8CM1Hxbi4F+s1c7DO9q4dfxi5bNi6YfETc49X5gA9zuVCWBHAAfCHd1tbbt+stNQgWx4UUSpAgsxT0A6AY0NyvfBSeaCJzETOCkGsFhnAIOTYv8WnNN/GFE5GUrGcb0fVwLDvU+0tanVz4rlHgrUCaA8QDYQQYBcf84hDFRWMN5pvYA6CoLDGBC0/QQYdAAbkO8szA+ThHBkkpBw7KRVhU6KAZyViNWhARVdf4L8hxaFcwEfEgLYdPDwXwaBjfrEskvvL6MA6QXE9g98L/B9Pg7bX5sB9gLj4218xzOoHshCRBczLUZF8+uF0gMM4/rAZORPdNvwJbPFAC6H3octhUnI/XS86CL/Ou4qItJOhPNnS4HP7GoLrOMXyz7EgyGwBWkP3BNr74l3zu0pkJGrj4MC6QX2vUPqCxRpCAkfQXwSv8oJ+oDVICH0sbmzxAAujKk/aNNkun/aqf9HPTwOkxOKeSElgb2+G5y/OvbVgqu9r5ZffeF5ygv4EhPqxB4gYgLBC0dxeEFRIRY6KIGKD9DfMAkL0PMlls4OA7gulajdBegCgDj+SzJS5I1EAfKWqdeK92MvtNmwT38cgtxPnwDCPjxf5AG+zAX0/s9YI8iYYECeA20/2EmOfmNwxPUw24WCkeHJ4AF69PC82WAAc+cobKsqBOQCQLeR8z8kfD+nkQMcL8oGwp8E2vvb5VcugMMtMITAUzGADAO6kQfIaGDQ+AEBFLcFwU8wCoijD7eWCGcWAgRK9WOCg1o7ZDYYwFKQgdwziQRwneX+JJnt0Y2uPu7z1B7gLun9A5nwy7RfmcAQuADpCrg+ASAG0D5gXCUBKCXQjkAmBG28bd9dTsFYGQPmlpjf1vEBk0CFQU00cV3zG8A5CYVub51EAkA6f5MMsz1D0u8XRjD6Yv5pAfplBdRvznod9HGIBAN1AIh/nskEuMfvQAufId5ApwPKCeAGMrXyAE6ihhNDHUG5wNr6q8PAEFy1pOkN4ArIardX6/9z6j/k+Lc9/aGL/Ts7USxH+JYK/uRygwcQO1+d+gABKhhI/IMYQLwLG7CbHi++DQYEOBi0vRVignHRtAk4MIHWm7HVwUnwAzYBe3ppsxvANXXoQDkB4Ma1OAHAPf3mlLX9PIxWAI7uM7kfN+Ee115gCG4FJhe0u9/jPkCCKBvEB0FGw0Oc77qLUspCxCLEagNF+NWHDSpYv5DEVsUMSFze3AawZBXoAPfUHQDcmielv+iritv3CNWfhU/jzD8wYb/c94GO/jj2AJ4vnYAXyMMAAKFIEECwofG2tuAdxBIMaXtR0VEfkH7AGHTdoPB26BNY0dwGcFaqdgR4syv94uA/Ie3Qo926mPQfPtEWGNzH5AAW+BsykKCBB0waIN8C38+Av88gWHAcuQBlAZw/wWwdsEjbi3AeYCoIJhKoOxkECbHYJc1sAHMXKAewpv4OsBdJz0802GMhQ1EApvzsfIHr6I7rwJ/rcM/4gSE+pM8FiQP4fiDXXr4LTHi8Ewf/mQrg0Pj4HbzthZ14/6M+A9s7hJvNk5NOBXq2gJhwMxvAWTArb7DuAOC2Eu77wKm/NoY8c8h5sAx7d7dp/2/gPpPv60jAHgpwyxOHQKDOAd9UBiNpwDhGB5QT2HWX43+Y04VsCeiKKTTZVGD4pIgHzagBrAQHUKw7APhCpOkPB9Y64CakAJ3979CLLz8aR6CMAaqBQ6gwLL/n+X4gVl46AC6cAM8Q95/pxEgAcgK8bcddjs/HN2lvgjyztJhd3yTxwIXNawBLIQJYXW8AYBMA1e9fqcnTAYXhMUd3qPB/yHp56wBsYGDCP+0XlP9XMYA4AwRR1EkEMi46AMhwsOOuImoXxf6IMVd7RlIEkpNjCG06GS7gd2bUAcRqOQA69Wm0D0v9YKYvwf6jff/sNUH5yZJ4X5/1cK+9YSBhUQ+W6y5PgUClA4InihKBzgzNBmwwKH0AzUtImci2HGskS3Pb68aEt4ILWNykBrAUMKAqDuBWpwJo9X3donvR6dwl9Lx39Pa38b5B/OCOIZwSWHhYwkBcBgC+ygdkFJBxQkDqFPQpwHccpdgEC3FYEjLbhibgLMMQqDcM2JRIJWKJVOrs5jSA+Ymag8BvdhBAvf+HWVh0tHrCvFuKt1TA1wLC9eGG9DcUoMyPo2wAviOz/8DkALImwHn3eCdZ+HEUEnZ22kKR8AFHiT/CYUmRyhMqzugkwwBAg5YvbkoDWKoGJPa/WGcGcOtaS/1n+bzt1KaFF4eMwfLsaNAGNT7Y7GqX73vywIEDB57cp+kg+gHWDQypRFBnAQoW9BQapN7QwiN0YByw4XEeBEdD2knMQswRsrilLg6qMGB1vVGAmjJ5djMawNwFNYnAGx3tR4P/mSMUejMp6YfGgDL+h5jfnP88++RjN8H12JOBNo9sMITfFCFALr9aemkIuDDsgsGd2CzGRRyway8JUkLKEaIKJUASEr3jhcm4gNRFzWgAV0Ir4It1ksAsAhAywu0jrHyHEhAytlfE/zqm10nAjgM3meuxmx7boZGfIfRP08JMDMBlVUDYwTic8ygOyKCEQOeFwgL47jBkeadn0HoEq1cEVgJhQN+kXEDqsuYzgMVzVIcLq/MA2KhHcwwzJM/HAPojEQHxADt3cR3RBabpY8djauWNDezTKAABiMSbjv0CFQXIXIBnMmTJxzvx19YDdHbK4iBqDMFQYLRPUXaPgpmvnoQLiM0gQ3jGDOC6hPIAq+sc+bdHw/9GjcuUgRj1qEgKJGT53W2BAn7EisKHHdb96xs79IJzSwtWFqHqQb7xBBIZoLueVIQIPjje2c2Dw2He6U81UjNYb1SHLGAChbpdwIx2is2YASysNQ5gncMBVPtfya7Qqho5R+mX7AdcZ/U2AQyQ/9dG8Fhg6QDmuJBpoHABgRdw2SMCuBDX8Z7j83X4hwsD3UHbO1SHkLSmFEn/kviLwAX01c8MiaUS5zWbAVwAvYDb64MAbkXHPyr2O1Ke5HWVXz7dFmjOPzcZ4JN086vryawhBpjqgLqpXICuCSgT6Ca8UFMMIMeCxgQ550cjqmSoW5U5WnU6DFhdZ0VAuoAFK5vMABapDHbCZvB26gC26/1vqFRW2B+2EYmzITq4i1usx3iA7GPu9pefKTXIVAsDCAI4QIHKBvw70DJXOAcyqJXsDh7sCklbsm0brUhigqJAfZlAYYuC065sLgM4BxhNE5YB20cjJMBkyXb7EJnvfOjodenUMNzdFmQ161/6d/Fxn1n3x7AV7DNxgmYDQCDomUKAKgnJMLAbrXImShKllSHOnyCdIWF0FAkhMcEcsvoOAaZcwKrmMoClMBCgPgxwdE8S9j8zOIrD/S5SCQD1oj5hqP+63CscwJM3VbyeRA2iplsQXIDCAoAVolxA53glKKAzQhYQeFA2aHvNBH42EqQixUxrDptUoL6aQE+/cgHXNJMBLFmgyhh76nMAqgaQDCMSz2Elvo3ZXEcDXfod0r2f4vMB4v3NeXAAzoCsRQFNDOCDEQTGBPxx6+YxM2DcloP0ESFdwK6dtG8hjCQthDfIJgEGFJULWNFMBnCdyl2O1+cANlrhvyIZ3lJ0iqpU0jHcpZeQa/q/NIIDkQBQWYLpD1ZQIVSNdQxgYkBJDNJo4Hinyw3KGEwgY2pGAg14wrFaFrpKU0iEUvuAulzAiIICZogeOjMGcEWqejcwxYC2GwKQA6lVkP9EsnCHQejH0H9hix9AyR/yAY8ZHlAW4IBAfaGJoRD+QXWQd447DkDlgJ1RTGC8czzL+WthZAyJVY9hoSNZpnxAvk4wSO6ns5rHAC4HJsPqujAgVQTEExxdgk1U9r+YD+/itr1DsQCACnigwu4XRwCUAsBdaLaAjAE4lAQFIYBLZhDnaInHSQkAsURNjjgetO121IlCJ2PF1axQu4C6uCF7lAuYs7hpDGBpDUGw9RWKQEj0y0ZTRAcAke7ERwEBKr6/zuogxH+SIkAmBjB8ANwfpHEA3zQJ6uOg2+YAlfY99QCd3ZwfZpGOMdrFBG3M4lTQLmBtXZkgMCuvaRYDWAKawJvqkgJZp/u/nM2CxTqjIz7Cn9il1wxwIP/tq4QD3XTTvsAyRTliC6jNH3iIGOpxyQ+ekA2COogzkAuMcx7sxZ6fTaRdCNENIILb6wsDZRCwolkM4GyFAUyoB0EjANUHEmn5c149qw2oXMNOqf2DC4CW+fvYTY9VcAKWBGQIQkYpSNGCAl0VDsRB4EeDgCg0bO/t5vwtNGCmSNhBmC9YtOMrk3WWBLbDnPX5TWIAai74xCHgzREhOMKoIyw7PLcNSXGwt3iAiruBJf9z7j15UwUf8KQ5/VUVyFAFufX8XLsBiQm5LUIaEra0YawoIsCAoxS/MjCm1RFECsOACA7WWxOMpVI3NocBrIQywOp6MIDRtU4HMEHRis5wT/PqHmuTfT1E8UGzgYaCx9wA8LGbHgs8DgmAbRmBbEAve2DRAO77/A5cB+isxBFGQaIEA3YTyN9iAU47u1ExlTMPCvUXBBY2hwGcCVNh6ioD3mY6QCZQACDDns3hujuwUB7e/YriscMcAsYUdnkQ99tIQHOHLSnQA7EABQj70fOfsEM6CRYgU8F3wshSh3g6sZG1RIhgXS4A0MBzmsIArlAOYEJR6AoOYJhV6vosOrRgG16/3hZYx5+15SAg+nr7HELITfs80f/J7d7nSDdKMwICH8QCuEwKslFasO0VcbIDYAnvYqR4SZOZYlTbWPqAegxgm3IBNzaDAcxXKGCqpx4HoCMARuIjOu6xSO6Tt/c5PeCmJUAyff3A2/EYPgIe2yUie6CL6rpRVmcD4PkDWQ1QNSEZBnB3j9u60LhDFVV4YDZoe6dC33LRGWWBhAbrdgEABSxvBgO4QYUAW+viAfShHBDP8FReshjmQ9p9pz68Y5qAAyT8ZLFAsZt3P4biP1ntQ93hBA9QzGCx8L5iBvoQEdoOEYQBjpvNT12AjAKC3WFk0BBuEkQ8Jz1sKFlXFNCjoIDYvCYwgCuqjwUgzcDrtAiQPioJal6RaSk+7Eb4L9F/1so/QgI02HfgwGOPHTiwT8wFEAuKReJs2gDMYBUDKFIQpAGkJKwTP7rk4BUyJgoIjuIBNQoKptQmhqXEwuF6J8tsU0HAWY1vAPOBCdBTTw44qCMAVDANMas+ZESWTd0+ahUgSQqo/bsUgPSkR+dC+gXKvEg1wCgHQXcIEMIVJQASQjlLAIuFuVwQFyGQicBbeigN7hcvkrEWZNKIEA5YW9cZIE/W5Y1vAB+qngOQHHCjqgG4x2YxUlLF8z3z4QuG36f7/IwemAoCAx/QPF8ldAra0fVfrRk3pN2GTP24RYB84IXQepDLBXGaByUcmA3adgKjyYwppOFMSNpdYf7wSF1wsNxY8xreAFZUzwHWRcqAYUUE3T1GEbFuZ1ugc35d38MFwawWAQ98+0F6dxsE6moAOAXIApQXUKqBKg2ILrXtEDKhoTYBpR90OLTF/yi2jbtI4bQbTibzdZ4BqRlghk23AcxNVM8BcB3wVhn/sZCRGlp09q9RClQv5eEAdQDZVl+wAokF+jqch5xeYvxDJg/U1BGjEqE8gEEDfJ0GWFLYuJUQJp4gQ/Cg8Szfp3N82hEQEkwAh4SsPmrQHlVgu6LRDeAVq9CwAAAgAElEQVSSVNUcYH2ECh4a6r8z55NFBoCBM91tOOAcCUEpRMA2fYP+m4rpVWzHdetAMGTaAlQcYFWCVH8QHCLjnZ3jEwEBaOltB5HAAl5zBxnQSVPMmTwnlSPqoAb1wFjRuQ1uAOeJslUqweoJAfPQB0AGPaFXpkhr6tAp+EWJARokX6eAKDMEqr+PED6IAXSigBgBuhqkC8GBFg8NPEUNriAhjCHBcRQFiDCw7QdWvqRY+XTDIsf1l4S2zsxIwek2gFXKAwzWgQLebGaAhXh3VD46Lbv2iTZF69MePKvX1UwDCaDPB8nAigUGUwkwgQiSQs9ywmVfiIohtXKooxuZ6RzPdEajQtUr1B0EYaSOaafMFiuB3CxZj5T45pmZKjrNBiDp4IlUfz2SoCMiAijqVgA7mi902u1DJAOeD8OANPnC5s+i21zr/QC3x1MYr37QECEQyX+eh6pBvqGH8wzqBIoe/ogfaCHCcdkn5CLAmAxkUgHDfknWxQ0bVFtrVWMbwIcUdWFbHSHgaEkSgYvOlHdnRB8j3kCggG1k+pehA2lxKK5nAUHfvw+YAEdS4dwSiHQJOYC+UBUxqiMB5olRaRic90WShPHOTj94ixIbABQwtHCn5MGUfFQdYeAW5QLOaWgDWCHVLSeigxMQ4LakygEqyH7iwd14LJe4460AxX6GFJi1t4d4gGJA7dtNQ5jVDUGgsD33tR+Q50c3wfosDSRj0OGMCxWMd/MdIYvSWsxBwEKqIxcqEcm+uhJB4QJuaGQDWJKKJVKx/tiLdYAAfaVSkpIAikQLnAzttl6BqMEZPDgg5EAeGCRAhgDis50UM4TTAdUs5HmaFBZA3CClAvxK0tGZTtoaQC5JDjwaopnmpEEYtzXY9rc6a4J7lAdY1MgGcFlChgBr6sgBNioiMCWBMtr9yQyabpCA17ASJCoJ2TBAjQGwkJ4q8yF1iKwtCZk0UD1WuQuoBnoe0ALHOyuyQjKd1AeMa9kYyQ7FwyzpmBMWaXth9Z0BPcoDLFjcwAZwZSqW6J+4H2CUzoQzo6DofGbE/8VeVL10hzmigdkwDof4Uv/TDAIxhX4cONoIErAjDzIHBQZrDXHfEQZDmF+UHaIzBJ/vrjTFPFIgRpMmhA+o4wxYo1zAvAY2ANUTPNF0KJID5JUDQE3ATh8Nq9QlJlAgHbgRLXBuKR54EIg8033pAaxIMK4DQAwoHYDCg7hnoAA+3lmBDYYSAA0NWjlpqRdQoeoTRiSuimiwTFjXGVBUSMCZDWwACxRe2VPXCVCyUtpYVs1WBCkPRI0DUu3Aqg5g4QAzG0jPijCFAKMApVqHbWOwnSlkZgdBk7BnagiWGGyEgjPUIDKuCxjv7PaC10IW4YYVsYoIlj/VuiE99QYByxrXAOZV7wnGVJD1SeaQvVhYQQKo6MwKey0wyZxdcW52MnQHShdghf885AECFAfYnMCznSFGLcgPOB+vmOkR5QAqJWqCANolVinVoWXBevKA1TOBBEyrAZypfNS2OuoAfTIFwNyICIu+GAXQZT+gieHMQCAzCcq0/+mM3jK+rY6gJhJyO0HCKgXJLADaAz1egf4T4QTQLCEjKoIvhETahooaOYp3ugJSzxkASMDlDWUA596wbGEqtXDZh5bE48uqkoHWEUkYlieOP6Ks4nKClQd4gYSAWYsFoBK/Uf8LrAysh4YG2eZwPD1Mpo1cFw+5SgkynQ4HMBPhBOjuINtCyvkOyAIiEYAzao6hKej15AEblAs4c+mij6XmXHjeJY1gAOcsBEHg/uXzdCFgdW0Y8DZZBVB6Ce4QOMZcLqXOqll+B9c5PxoJakVAsf6j9gE6D4SHc9xQZN6gEujZs8BX3WHjiBWacYSDKGnY9BD4nO9FlABi1k5AwMxLEA7XkQfABIEEDGJLLVt5yg3gAlh+CQBDQ8CWOpLAwZIJ9COjwB2xHTwU4BhC8Kw4iC0I6kMdavu23Scg0HHWtBRaHEDJxcrpAb5nWsQzlTgh4xXVgoxldAu9EFoNdAYch474tSoI5OsrByjOrXrRPzb/FBvAyjmKrApKVuo321BHEqjnQVZU/3KGBCDZ8NfR3M9gCOtAW51AxQtWSI6t8lpBgCEzSmjIdgirQyAwwCFED7gWhMdKZyoSxOCrbp//hFkAgBGNmKKjKG4homSpdk24P2Wv2PSMFp2SASxeFjMeQBUBqvQE4hDg5qQ7gZdK67IIG0yZxWFu534OkRlgVgzecLwCgPZ8GwOAilBgoQQLHfumdmAyCP+O8YlWmTiAcSIeIDWjyClPp8u5XgE8QT3jpdeklAA37LjpAAWmZADzYfm1R4pJgfhNtVGAdjEPkHJBLJnW0VvMI8HNJ1BjB5oFa3AdOwrIqD6png/Ps1LySFMuIHqREgf0DZUoEGJxOL7PUGmYCuwQFQv4wQuMtoIw5AmKiPNs2h7EWx2J4Da928y+u/CUGsBlqRiKAWIwJXykNgowKLtBwwrTlxml04VFUhTejadCWDAA5XPcaMAbHMhXxWADFgbWiMzXujUQMgAtFtNNSX+dFcs/GVQmlLGh37YPzwyMQsAhc5rfVE1wbR2kkJh5g9d8yak0gDMdDyBv9teBAoAkjJ2vidVzSEZIJ7Xv0ouXtd4/a1v+zLB47plJYFAXsIPEzYP5EFIY0QBQYOuBdpgwzQR0vh+dNa89gB/QiQakUxDrIDA7UEi4gJqJ4CbYY9YDTBkUmJIB3JAiMYC0g8TWukIAczS6GmCoC8Q6BvCXoWnqRorveAaMoQVrvTeB5shSwBCaGYbPCp0GQK7o+b6pBwocYNztBqpUBM5QzrjMA0k+U4xOPCi6Pe+iHjBSuyCIPYD8PO9UGsCHoh5gwgERN1M6MMtjSUhGOqpZxZ7QYr64F8/9xJxgMxw4MJOA1FaWcJAo7CFBEG4/WOlgNDNItwUoUmCGtIBmojSQDGUJZWQacBcRjMSpDh2CRrhPrHYQsMWNAVKn2AAiHiA2EQ5IQwB61jMSAISIOldEwsB5KQ08hNqBLLMPoYBZPQbCsDxFCJBFraRaI5C0E0JHgB+gMNDvxnl/lCE+XrlJoJvzL4YE9nMnnjmRDoSDdSABWyMxQON5gMHaMNDaUjJ0qPNUCAZT57TgDmP513iWB078PsSHhrxsdogMCeRI8kum90YUIIt0gtENjR7b8FGOD7mD5P1YIbqz85aBgc4B4vp1OajbF0oRbs+by3t1cE7xR9auCBabwAP01IwBNyo6sAuQkTZK20VjO4PCp/H0P6/7js7O3EAul8ulc/ISzXlZ5RdMo5evEjt9bAwhNuCQpQUGQALgmBgsSIERieDOzoGBci6dLqfTaf2pPDCAi0GiGvCMVQmKAoK4URgpBoTJ2gryw43vAfpr44DroBKopTRZhfHg1DEoa/jJW0LYUb79v525XFpdOfmeVl8KM7jDy6qp0Pbysln5o+qjUhhF7+KN/gBcbsQ3YJ5VP6H+lC6jONHnbzlSlxgFLNp5QiHuiGf5sGYUuKlxPYA2zDW1xwO0l/Juv1cxX2EkkBst7wKYb1ysfk69+mT59YIM3GHJ/YrnV/OquP5AC5ZKkGL10/o54enL+reA5x8w9cB9dHCgFQ2jU1DoMBxWOwgYaXwPsKF2ErC6JEdDUx0dhk/HYnRscDHM7xItAdnxHNmCOfNPr4v8N5D1fTsSTgf9dGocnR/nGRKBfes2giADsOJ2x5tP5bS9ytJafCEWhLsZQpZnFQYg0+Qnz/I1oaBC43uAYu0koE9Bn0g4meR/QAR2GoPCfHF34HV35ux6p40fcFyAujfjaz4YQoDwG5oyJGMA7pGOQqkRcoty/XbX20XPoScVvqAMpjfe6bftypN+Jrff3YoIkhpoHaSQVMN7gOHaSYDqCLQ8P1oPCIsupVJ31OzupB43Z/Zk2XUByj5uySo6iKUCw2AhoxJj6UW4J8A0Ffoy4h/I2QMfb3f9q+TSNDAY6A52YVE4hjPCMNr5YDKCOtKA/obPAjbVkQSYlsAKGiB2IjAdFc7CZ/A2LBt/XEY+uYy+lqbQrYR/OBocacnDWC7EC7TfR02FMgYYyDnO3qx62TxhDpmC+NS5y2GzKT9muwKp/qV2gHU0ifY3vAfYXjsJ0C2B5DDEo7cdcFh+edf+q3IVd6G7Ce0jpHlkBRkgQOivRROzVjNGFQM8wQ3kqKmwu7OzTI/+HPI55Crjs6FcPkqGiLsoIHNEEEzhs69OWmADxwCFmpWAdkYLfmT6Oovqqcgvn72qnEOLnzOb0J4DsAY5eyrL27d4RkYSgEL9hcEBhUGozN/zjSeQMlEDaHkdO8u5ZxCJDsu/DPGQEDruzpkmZBxDHVjglkb3AFtqJwEvlpAEdNGFxMMKgnrs2P4PzAmr16FME/Kyc9M8NJcznGDUE0xFpkFUIID6oREJsYGmXuWytcKy+9wkPcntv4ue9BO5AhMDire1ve2150g2dAxwvLYB9OUZxvjCaPsPoygx+2rZWf4yysPJ91BOiBx3t4AA7bgQQx/FWqOKEyTrh7oskLH/ZS5y6uSo1eWM2zFffvC0i3JEpYOokHCYXNtec5Bog3uANbUZwfkS7Z+v1ACC20XDXw5clbNnOz19j9z+1O3fOkRzAnoyiyXp9ExDCWoIAu8PAwS1SISvB4kP5NJku+s0Q95RPnTf7U/dft+hMnIPJFXIpdNXvR+GToM4+aOtCLb6pvjc09vkHmBDbRggSVQfQkce2NXbD8P9lcC+8kPPvXr3PXdqsYmX73713qdyKFovU4ywM0v1xIhooGoug9qxVg31czm8r+35/uCvnnv4ve+av+bOex5+7qFD6EiwXqF81f4wrEwLYhF/IDPj2nngmkb3ANtqwgCjIAzkYMC6JSDEE7iFKqCM/qlPv+/g3R2jHWTuiPjy8TcPHkq70Rj81ICPeKRDWDDSnAWmhCziP55Lk+gONv59z90z2uE8s3jqe+5/JU2MVHmM8v6dUVoQkgdgpCIoTsbB2rTQxvYAEwCBGAZgEfofkQZiqIyeZ3u/ls6RI7h8+/33dEx0jb796lNpBBeUrRMYyAaIMoRbiSA41NJi0gXwHE0m1XM/dDdde3K995CNSszv+5mv7XUG4On6NpUS08aRHGx2D8AqRjHtDh+swhxIoqdlMqe9Rz4gWV3u9jerrIFaiKfKabobVeiY87jmAFoA0AwSNx5AuYFctNzw4ME7azzznfceIliE/Okje8G1OSoI2Adg6nCNNKDhPcBwTSBwHXPH6lVCzNWXO79GQ+77Hu6oeY12vPcrXLDX0E26k9sho0gsTKcHUAAQHYI8hwp+avsfOnhnHU8tTYDCAp/ZvxPNQyEaQcypFEpSUHuTe4A9NYHA9UncHxfSdhl7Skre+P7P4Bfz0P23dtR1jb55XzqCDqbTA3jnB9w0B0CHoaflAfxc2sUTHnp5tL5n/u5DaVI0zqXT+2l1w0n/i0QZn+WbPQbYVBMI7KXSYIw5mT96tb5cRmf5oec+31H/9RwKAHX8mBO5gFUJDbDUCM9Cd1Dg8wHrwNVPv3L3aP3P/N4rCI0U/8VVX2ZELTwkw4QJbTCs2RvQ8B6gtgEUkqFTCYFW2ghs8ssBdBC/8t2OSV33vFJ29rEoD+rJYbaXzKoMcogBbiHpZjqdPvj4pJ757YMWkZD/rnoWVwMxEyA6G3Fts8cAm2rygXos+kUYoKHbOvt62RzCufTtd3ZM8nr7YDpHcEHxVRYBAWZwmBYKkggA79auG9bw0JuTfeaON4/gZDSXu+o1zIDG7c4OLhgmk7PfA6wu2fDXqf6R1tm9GNb71eMdk79eTSPUHg5m3wgMBFhjRHxUc2N9B/W97+UTeObvfkvFnpCP5A7tZa5wuNMFabKE2RkD4FLASJ5F1NOZM0iBiQAQ1dgf+vwJrELH6JtpjNXL1ehEXCBdIwSSgCKP5RC9p5zOTfbk0RnhK6RS9cH+kEw/ZIQfhAsftaDAJvUAxABKzKXJu4N2xSskAwDYQQdHR09oGToexmiO+pix6F9g5WZNd9AtNHmY/MmjLeB2Wpt8lg6PDCs3w4csPzLrPUBfPjoolA7aFfZwrGzx9191nPD1JqrUQDjgDSFxEW4FpmQMyDHZLJd+5c4TfubHXyFI5Ad76RgJ2/tMDSI5Mus9wGApjLK/3RI5228yuPTtb4+euAU8jNF5uRkHOJk0gmYQiwogSh3T6fu+e+JP3HHnfaQq8WXmpAF0qIT5w0eqpwEN7wH6ahnAaB+jXTLMGbQrc4RnyiaNPzKVVegYvd8WBiEO7Day4oghxDn3PcEAQLnj1J6547tHcqiUeNXTDgcKtT6h/tDTwAP0JSnhtxg6xBlxxwcmey+/1zG161dpyuZM57hVFQjsHLFgyPOAaQYk47un+Mx3Y0JJ7ggRisdwACoSsnxfs3qAaqTg9soxgMMAQTDQM5aD9/AUV6Hj8SOEtSlcANIKGcIjBDIYNyofnOozj96LoagPnsEUaBZpfVJ31RKLa9JawM2OPEyRztZz9BOL4RHzwt1761SXoePuCGvY45xoTOjmINJrdHvH1K9XNH9InijGzYX5kDKGkVR6X5PHAHtqeoAR5ggjkD5KeSY+YzK3+z4/9VUYPYjI+2WIAkhfmMoGvAym+pXvmQYDuAeTCK96Hc+Mo63v2i00vwcYrt0ZmCQc4AgmxPLF/WYfPjw6Dcvw+CFaFcgN+I7WlKKFItJRLn3vdDxzx0FLTsnl9odOb3hIhomo+/JN7gFqG0CP5UaERcKHgWG74eumDjMdbrijY/Rh2zCoPvt2YhzXBUKvO40aQI+8PS1P/fYRTCk/WmGQgDEJmB0y+z1AIWk4v6wCNzBfzL9vtuvd07INOzput1xNub7CBdhKAAweuAWHCQ9PzxN3vIo7mb7NqHJwGBFKZE3vATbX9gBEEgjRZDQQtNNUgZ6aplXQcJA5A3Io+tc6wz4inqWPfH6anlm5APA8h8KQYc9XzLvNEWGyr725PUBtA2gvOcofDMuDCBDoKl3DrR2HHf3KSy/9/LdfqPWwzx9BnZuqaZQj5WD5uRtD9/fXsbZ/89tjX6j9qOdwV9FXGe4DKOaLUWnEviavBbCa5eD1jKpmOHURlt+v+Ti1agDvfmmsS12/+bsaD70fk3TKoiiIw0BxS6DApnxzqEYEMHrXL/62q2usq+vRL9V65scftDDUVV92pbCRNCIMDxps8higWNMAbksaIQgMhJm68M4PdOJUA4l7SS+/uH5RfTPe6Wp5UIUAUQzOoT6SWhjQ1+1Tj/3igeqPfQgVI8tFon/JkDpyEcaHNTsOsKG2B6CKAIzIhIT54ldN6abqNvzCl/D6d3X97btVt+yvSFdfLu1rYjDoh/vduOGzOvz8wG/wU489+jc1AGGkJ3QUsWFRX4itCCVHmjwG2FqHPAAZE+n0zRbzv9Qb5qGqKcD36Pp3dT36bo26MOnnvsXXbFCAAW6xPX25+6o+8wOPdpHnHnvkrmqPHz2Stk3tz9K5QZYkbBKjkd6qLqDhPcCamgZwM4uQgLE4bOlr+sR8tboTdg2g6zdVT4FDtHd0QA8Y06XAHCoEPldtPb/wt+4T17C9g4hhsJ+Z+Qdh0WmHUBFRszOCttQhFY73OwHFxc29pg+vWiPOXV0VrpdqFQWRiETOo2ODvBwqGlc9Ab5e4Zm/V8cZoA4CZ2ggVkVTf3+z8wEq60Ti1rBRKg/EGIXHXtdbsSoI8L1KBvDIAzXyANTJL4MAO1BY1gH0SX2omkd/t9Izj1XLBd4uWx2r9FEsIFqMNow3PSt4AokY/JLm80Q4hZLl2bO6bFPND787VmkZur5fsy5j5CVzGc9MGRK+4A4EEz00WQfQ1fWlakXLp5Bq1dNaHo/l8ZgE2xnU0+R8gAlmxqHXZ3TEYQGTciD7tj6Lq9Gxv99VeRmqBgE6D1QLnUFKAdnAG0CVgqoo0KOVn7pa/HGvVTRJP+tOEsyz0EABAglseg8wWFMhpDdJu0GJOGh+PzDqc6OT3oZdj9aoB1gXUE4PmGZheRklUIE/VHnqByo/c9dvq/cnGP/yfhhRDLEjhcRbDQP464b3ALUJAeuZDXrd2aF5BqIr6W9Vi8S/VHkVHqkKyFBZ4QGOBgiIJCBnWsGq+J5bj1Z+5rGfV+sWRM3m+wkx2KpiaEyklgE0vEZQHcWAdcmQ7nyWLzLQzi6GWnvrqdHJxoBdXV0120Wt6l/O163BkARYDm+1QtBXKkcfVTOQO1Gr4CHmyGKxPBJOZ0IosL25dQJrYsGjG5kJ/YtoXDyAIvqVqloImMADjFXzGq8SWfl0zrPD5rnnW2Gh9H3Vnvm3E5je92thEGB+HzA6MozMzWRhrb6QxtcJnAALxkjQaNLyYXB3vJQP3qmPy4Md0xwD3O0IiQr1QCMTZT1ArjoL5a4JDOAr1RzWfVZdLLeTSgcjNpDcCbUNoDnnBawnQACBAHDfbD7cq0/ie6stw89PIAt4D8n7inX2UH+wx1E7eFUD+MIER0BVLPApxDQ5hmehulGwyAKbXSt4Sx2TowkvjiplHdOvVNVc7IHKy1AtEut42RH1zvpofIyHZk9Up6F8b2zSvqfjV6bOUE4fzTMsge8OSqllAKmG9wATzAzCQEmvw4qxxZGweEx38VXnZFUKAsYeqVoMeNy0CKm1yHoGBwYPAM6hugH8S8Xg46WaFWEdfhy1w9FIP7wyhZoDA1LNOjVsIy0HMacz3uyGvXWVgipDgd+v3qmF1lgsRbfvGVII91H/cA0m6m8q5Z/V2QgPlW27wReTDClih7RFIqyVBa5ugqlhNVtDRjeacRGYEqXigJ36mK5Byvr5JOHYjo6XHdk37nEzdlJlAQAS3VeDDFTB9v6uvu408e8uOzUZcaI1JFJLLn5TE8wNZLXTgHweiYPQPrkQpgKkn6tBCH4pUg2u3aRhxH/FSnA5UVi3hqMG4iM1/qOvREGAGu1LT6HJRscYjn2KeIBqMR/W4AP1bm4CD7ChdkF4xCWCW33YpKZv31uL7P9zysr4Uq0esrsd5TcxSUbLxXocKYI/WOuZXTDopTpY6ebaCf6ekQmJEBQP14oBtzWBBzheOw24zemTxxohh64q18EHkoxgFAk++vO6GPp4whSX8yTBCEgxqKYqxFFcEXrkX2r+pg8av5NLl1io+wOZaQ0LbRJQgxHWBB5ggjQAR4HrKkgD6nBoPzDzazcFjd569OuPqNP/K3WwuO9No0kTuXQu8LROsJCHGkD5Qa2G9NGO0Ze0CTzy9drU8O+iBPSIWvaQ0WHiTKgi5etIAprAA0yQBtxMsUAWGacFx+L7epnqa7x44Ohv361bJ6CMxNwHfM8DhRChFD2AAsRX6+g2+/y7//L9l77/lXdHR2u3kNyNZEe+XNJxf+jEAJAEVPUA21ONPzdwovbAdTQKDPMs2iEnFDKe1Zp+U5PnqITHEvG+gcDTnCCBA9yCBH3urfN/vLVO+dj7UU/CtxluBnaHBtSKAfc0hQco1o4CeyNDdEwm/NXp7s4zOFAujYZNpjMyCdATpb1u1Dz21DSb3kNl+7TPlMjEeDo8j9WKAVlTeICttWdG3Ow0hSG1zLv0Pjw4vavwMJJtU0iwZ+ZFCUggZ0OE3NvT+9RHUE/C66QZwh0aUCsG3NAUHqC/UDMKHF2Lt0CIhDJZqA/qV6Z3FQ5iWnhZtAZ5nu4MFRKBuIv37ml95pcR+FDemcRioSG1flEKaq9VDG4kD3BDJAuQpjBYOwjoKdIRseZFGU5+We+WO2cgBLAxIFfLD7UA3y/bvqHyvdP6zPej4GN/0pEFIPoItdggq1MN5gHOdj1ArAopiAQB68J8ZFSgkogdflZv1PuncxXuccb/3sJlFqCLAZ53C9KTvW9aDeApNFj228kkqzAkPbQqodUsYDgV9QDzT6UBzHM9QKra5DAcBIzi6aHMEkNYPnlUx+m3T+MijN7rjHbMBKAUpURiPZ7FMOF70/jU382hMVKvY4U0Z1hyPqyx/r3bqAcQH1fFT6UBLI4liAdI1D09dHQwjOJA6uUoGZ2el6dvFT5/CAnA5xQO6CHJcC/wjXxAeXoD0OdQX3J5Z3KYITqY7QqU8kC1QoA1KNKCl3zRqTWAs1IkC1i2UNnC9ppBgJwb4vTGKVgsWfqy3qfTeBS/SaaMl9MDvvIAwAnzdBAADzoyjQbwCqKh7E8yx+sX0SSRWiFATyrqAc4/pQYQj1+EPcCCy8+LJVKJeiZHdYzaqRlUMo4Nf1VDdocen75zmM4VT2eEBwALUIwQL5NDYi7TF388jBxL+plkklWYkEtCgIltYBNJtuTtsxafYgO4fLmNAVbNk1HhxNMjb410CFqlHLUrFFnODF97brpW4W4sESRlwsSQWFCIELUg4Q9QZ8D0aQQJrUg7gjR0SOEMswKS1ZdfwEBOFjD1A2DKBhBfcl4CPMB5c+Pxc9TNv64dBHSsp6oAzKYF4beNqNLb0+cAyHjpB9V0SDsxSAyLGsCz6afLBTycQ3PG3y8lSfnXmZJewwHItrBUKnXNheABFpwZP/UGEI+ff+OKVGrFjeowmqNcwPbapJCNjMzNsIKpTOUBuWmMAt7EErBiNbrleBg0MUgMi+NoRmHuyPQcP5+/D4kP5l6XiW6FscFwAlR3AC+qdU8sjl+y9KLEnEVnzo83hAGQa1mqSj2IcAI6Row0AFHPFAWh/UZXa1oSASEXjUb4pHNlX3gAL7CDYzwv8GFYQD19CXVf9+IZpvtLSaqLRIcFyEJAFRsYVu510fSu2DQbwNnVukNoInhbnhk4kMxTT5ZeN4jdtGABB8lQ55woBIEHMDGgGBfDM2TE0HRoBb9s592X0+mnlQNgIVJHt1B4rROgfYN6bc9saANYCTIRhZpnQEfHWlwNxJOzkqX9JnGahrP4vbQzf146AF/DAPJdDRkX+lMAACAASURBVIwq4wdORy3idjS3Ln2EASG4cmt0n1r/CS2goHpCUvMb2gDiF1abG9E+SuoBebcaCJT5ZPKrJmWbumj34/8TH8MSBVQOIBsolWDwAGJgSM4OKsxNwyFwL1Gp/2oyxHPR8dAUTQesFgIMqld2YbyxDeBGZabFOvKAjSHe/1Y+OM+SKgpQY1unmgn8CmWA6mThcv973A4OVx7AE0Oj0fXmNLiesn7P7WclhuaikxZhBQO2Vz0DmEr/pp75z6wBnF+VGUrOgNE+xpzpMXk4AkpHbc720NRrcUgkVjYE+L4OATQjSHoA7nOrJZdL5w5NLQS98wiZQPlaMnR6oYgN9NUIATUOfFmDe4D4nGpoMM0D1uVNY7gNiIVDHE6W3re7Z0qu+FV7+OuB8mKpRdAXoLlh4AHs1DAlUjGlqWGvGAYSYABJ1BLgDk5jPbD87dVLwQsWN7oBLKvWHuKcAcgj2hkKwgUkS3vL1htPARB8s4x1OqUNiAnhngKCjVKw9ADibr9M0oUpzA2E2aGmAnEs6SYAZnagNIga69+7Wb2uy+KNbgDXJKp0iTt5QG+eEZlMGxQlk88it33CFvCwMz48nc496MsjIAAPoNCgrBodLyeH2oLBVCzgzttzSJBIiEMlk8OhMx8ROQFdB5jQALYqz3p2wxvAkgXVwEBSD5BhIEOFEf0uXIBMBTWGeoKnwMM5JAwHzcGiDChWm5sJ4kohwhMFIW6ZQRA4nOAp8N1XaOq5P0wOO3OSMRk61JXg9ipkIAkDzm14A4gvUiSByrQgWhMebWfOzEiZIOXVIXAI4bcHR6cW/xk4Jit3v0wCgiGNBMm5weIeURbOYVn5dPpbJzg93Laii49/IzGAkLTCI0ywqEPAwkQmsHlGYMAZMYBrFF1tgjOAQAEdG/N51B2ubkitmGRJ4IFoMz41aV/8+EEE/+sqEEAAMgnIQjFQtgeLwcGeTAQy5uHKcxyafDZ49yFbV5TX60lGyl2IDqi+7umtEQNADnBdExjAEsUSmugMIGHgaC+mh1umjCgIlEQYoJV10rlDk6Tq3vMt5/zPSSagwgB8mQRwXQyUiaD0CgIPvCVN6GPp9MHJFYbePohrT+Iv+HZSVQGKFSRBlFSgOgEmDgIgB5j+E2AGDCC+SBUrWT1h4EY7N4c0CIUiCmBfxpN80wcnAwk9h+Z/mIps2VeIn6/4QCAUqEIA6QHkBHk+YPF7ZQevTIYj+N4raZp6pr9cSiatFm4FICAcMYvfXjUHmP4TYCYM4GzlASY4A2gYqFwAHqBim8RKpZ37LY0vl05/q+51uOd2JMpiyOAiAPDlLvdUY2CWD2m10EDd60sfMIDJQ+K5c/fWa3xv35tD08lUALhTOACtBmpCHiwXCjBwYUILUAqxM3ACzIQBzE0owtJgPWGgpQdTnrQMA5I7X6Eu/GBdMfmd9+Z03I8lwnPy8JcZv685wXpwtCdTQ/1diwaYeOCV+iKBN18hVSfx78jOZDKpukEjuqiABvT11jgBtisHMAMnwEwYQHyRcgHb6gkDhQvArIgi7H/wAXuPqDXQ5eHcr+6uRdZ67yFE/TKJZLqc4yoB8GXCh1UCFSfIg+/IZDBnf1Bv5m89VysUuPO5r5mo1eSRR/YmS9IBYP4TpYTne9AJUNECisoBrIg3hwGcrYKA/p56wsBR5pTGTFGwlCwl2d4jzlZM3/dclYTg8ftfQWIvGALOyWWX5zwHGAiiAKUQEXg6EhRugNvyAeISPFTtDLr7oTISG9TPf2RvqZRkw4wCHrT8kYf9P2EWWOhXHuDsJjGAc+coFzBclwtYT8dn2yHCMhMQcQDJysSSPPRwRRu4882HyJphSK/sK/iPq40uPIBqCVAjAwQWqPJAT7LDhAXkrKaYmQB833OVy9PvPXdfDh1VBgPcv1ecZEncEBoiC1D39fQaC6gcAwxDHWBJkxhAfKniik8UBjougA6OtpoRCg2QFoA2FizwKwdfffNlE5m9/fLdrx4U82ER+pZLo3RuwJcIsB9YDwCjY1WDaFZWh2RNIPBlROCXI65EmcGhXz338HvWAL/73sPP/eqQiVRzxARk/GfUMCwZgMxMJBFAe2UYWF5L481iAOcAV3yCMHA97dq6GSYIhowM0zY+IHw/TZIBtMcfPPLKU0+98rUH0yRWLCMgT31+UAoCCZxHIf6qGAT6IDA7PNBQkC+MhXveQI6oC1OFofSh+25/6vb7DqVzOEi1EKJ8f79UEudYkuWZ2waLuIHABSxM6AG2AxF8XtMYQPwKFQUU63EBHaN9tDaK+UFJ+QI+Q87zctrd5uSAIOuhIoduGf2r4M84ALX3hwJABOXqB/Lb6lGcZ/CBksPPTFc9Z2fD4m+Wv6p+e6aVAYn3R6ogNgSsHAMUlQO4KN48BnCd6lyYoEmwdz1F9kdDtz6OxknKF/HYETL3M+didVj8JZ1zHlAW9X4uU3wdAgASaCiBQiFAu4AAigVCSriMDoEy8QXW3bsuwIyGOMbk/pcpQD5qAZoG1WNPgAmOgC0zBgLMmAGcu0BBAcP1RQG9RDvZbg8oCiRZcuezOMFCsp7umzUCvV1v8WHpA8D6Ak83BsLml6xADwIEeUhAwcDnt0RDuzSuLeQIYogYYOlnS7D8KstheFAkTnnyNdd/WBUCZyQEnCkDiC9VQcDx3noSAdEoSAYoKPEMxmSpKCnj6NKx98kRUMkFlF3wT57+qtQrUV6BAkCoL/Y/qIUrNxB48A0ZAATAEOJ8ANWGEayAWIY595bg/+yF5VcQQJ5RKYSiAT10BNArvH+hogmoKTEzEwLOmAGcA+2Lm+qKApRwYB73zhdBUTxk8mUsJUvsi0fQdjSifjlU7KdHgBwT7wvQV0d4GgoMPKMRaIZIA0ZgP8IN3l3Gk2ZQRGChiRzNVNP3HS3h/V90+V+6GqyYQCb+r5wFbIJm0HOaygDiKxKxiUcJR11AD6mS2jlaIRSGpBHs+p/lHAZZyO0o9J8rZzgH2E/Gd7Cr5VcezAw2vGBRDfBUpQAKBhAvcD9D4SDianI4LlW/yiHOSyX4nZMsJBwgPC5ag4C4EFTBAhQVKLYi3lwGcBm4gAmKwrQiIATErYC66ZlWshnD+rUs7faDTGQTojOYBICi9MPtma+cvwUCuZkdDhNkTTkQforEC91lSixwDwIcJGZ8vgN+46RsBNJjgi3cYbtC8nAATJwDQBlg2tnAM20A8YWJap3iTlGwY3QdYssgIEDBQ2ACu7nPg+xAmdTq0hXjgPIA9zX0D0c73tWaEKiQgEAzQ31PFwvV1vfhLAh8nz9Izp8y7ja3p3/uQVFw9Pfp8z8JZT8c2JKGwB6z/wtwBLRHZGGkA7go3mwGcE2qmnKwywsYlbphtFgOgzVYPoSX8wWuanWZMo4Cy5jxp32/wnJ86wMU59dTfECoBQ7ZkTGSFEaKhQoR8CFzFOBQtkyHDjmqQ+lcmUO+uRvc/zBMQjKC0CGteOaBCVYFCO4BB3BN0xnA4uVV+eFUNxCPkjKwoH2plA9I/sCHM90LugfKaZqYmQ8DnEMyz/WJrvezAAMNI8wWg3RJGFAg9VjPRAyBr+/k2QdzLsoM/ij3oLRN9cQvqO2PBwMwFkG7NBEIvUXTAKb20fLFTWcA8TPVrz5RTTCCBt1Mhohg/hT4gNIT6gCXS+H7PHPLg7ky0t/I5cq3ZLg57FFQz+EsF3sbbgb6/Ic8MABSEDyD5wdceQLVMgTW4cunHSgTtHmgfEsm62ufI9zOW6oCwPA0CDIjDmxBzYiTG78AkYDjAnr6Z6Ql+KQYwJI5NVyAkwqO3qbS/2KoewX06ov9M8ySycOKtAFb0udiiYT3zvCMdOmwCDqL17V/uZ3hLIdgUOkDBUNaIwKQANkcAM/ge55pILCxgH5an2ezGZ7JqqdVrj8wD35COoBhVxCG0AFCNScYbfz2CoQgcABzzm1CA1h8I7iAF+uLA+VY8SIdrQtlNHEzWUoehoDOt/G5euMKudMwvnYBNgnQZ7n6BE0hWil6SJ4GkAbYZ0Dnv7ltawryWbl+RvysvucfFgEAkICwDSBNKNEW2duLuMAVY4AXwQFcGW9CA4jPreUCbnPVHKOyYWaqloAEnwHmLvd8vCfN1jOblZMAQO5mHx3pujWUGzbA0JASC0S+w/forrY3zH0GL9TJhXpW7h9WAQCeCwuRAHgAmeSO9JAycKECElScQSLAzBtAHFxAanV9h8Do6LpKZyWgw2Ey+bRvz2m0p83W861zICm99AEeOtLVtKhAa8VDb1BgCkWQD6jqgfIl3NCJjfFxQzA2qQb82DNq/7N8GJ2JYPSw8iYBtNvfQQJWg/7aDDqAGTUA7QKKvfXhgR2jvUYz2NWOEve95qv2HRKf462nwX5D7rM+QK+hIn2pYSFKKFwDAkooCO95GVNoX8IRn4jUC9CzwC3vHVEBQFJAzE7FsqynkV5bBiq0V2SFgjTsnCVNagDxK2u5gHXuIdCH+4SNjL50o8PJL9IzWq9qgDe+3fO+Z5IAHMbrJFAPCzEewFBC6MYGL+KhbADVC3xVRrY+QDyx/5oZAUNHo2He40hvpArgxgAaBPxQvFkNYO4cpRw6IRzoZgK6Y1z6AUbGyrI8uysw9Xp7JkOsb7eg9tG6tOfTMB7ebVcg1IOUWKAFECyFWHzigU92OnI4vvsd3/9ikoVOA2jkMOhxEaBCpCIMIOCMOoCZNQDhAqrMkRJbwEGER/MMi4UYfqA8Fv5G9+74JBA0Gxz7AvsVx2G8rvXDsJCszAWgLBB44GC4h4N+IJFarhD2Lzbv4AZw4P4x5QAAygQpYJPVhBgDtkWACA4weDIcwAwbwJI51WbKV8gERvswLRCj6OJ1ExifRfVRBsCRNVgcyHcy+cA3vG8DApg4gJu2wcD8mN3pOt2zeQVCHHxSQfACf2/IdBsYwoAwL9ASQQsoE6BAoOoGiq06t4kNIH4DWPGeCV3AuiggbJ0mmSbEklzJOChU34bkGLYPPPoVd8J4GQJoNgCMDQSJAK6BAPNjgad3OliF8TfcfMf4CRtmcAgBijShQaywPgwB6FzAOQD2pGYaBDwZBnDuchUGbinUFwaMJrGavkqYDYd6eIcCcwHV5/bURzm+hfzUV0HFd8gAlUAQYAFygwcqEQz0cW68ABwBKOrwfOcOH0hHXIUAIcKzirQbjPIAUQJg48ACMAFnrgpwUgxAFAWrjJGJhAG9jMzTxO3UxTzb50Exh+OQnHsItrfwYPRAsCHAkJ4VgCuCHjDGJTPEIo2BbyhFgbWIQLcREKKRMotdZipiMaIGJ70CqgEpv1+IdgYxeOEuiDe3AcSvAO3QCVNBXBXauDZJRJRNPUC+euFuDmc/Buhtgm4+ewatM5GCPcolLKS7AYxSmKoIo1wfXImHzgU47D0Pw8bcqRYEvr9bz4YNyXAAQwfqQzWgdpoFmDNgdf/MEoFOngGck6iBBqFAcKMVCmGUJipvDr+AKn0o3LenNvcDQwKD7e7jxF2TPqAbwMyMAiDINy3CEEeI/9ELNI0QNjq3vt/4AOQAfL7bYj/MchzMH5KnAQAFAdotBiT7gS9vegOInwdo0ODEFrBecQNu7u3RRXRaFAL/Gb7F7d4mkT/aiJ7p/oI7OU7cAUcQ/UDo8DdpYGAQBBNH6FNHgpAUTPBtHODj0sRbTvEfq+EWlSp4O7WAAjYFPRxEvC2NN70BLF4JsmHHC1WEcNevW7duXW9v70geIBTbQmFhlOQTfkD3v+70AdK/rxmgtHJnOgI9mwTY5nDFBpBQILh4EkeAqBjQimGXm0MBjMYkHOIX5D8IiRQY1oVmIWKBqQ8F9EXBRoDymjO3+Q1AoEGqT4hVn4ur/va+PBUOYwwdoE+gA933EVhn3LuNEQDB01m9WkLj31EEwA1DXHcHabMSW15NFrAdQ7bqCOaEag4B/CpPIPVjhAeqL/p6SDN4O/0CXADQAGY6BTxJBrBkeQ2GMDaCnnze6AWiaECZwGGf1PkJ6S/ABWIfdr9mAqmNqzevx236P8RtEOgBlu9hTggnrQIqTuCmvcz3LCao60T8sKt0oDjOFAFC5T9sCe24CHBRfFYYQPwyGHG0preOq8fSKImojvj3k8D3XYaOcfp2I4Lsp8bqKR4QgECYXfgh7QICiADBVgJDENMNA7bqqLrITXHKOB0Zg/wkZITijFTQcB9Au0MGKRgLAAwwMW+WGIAeJDNhqyA5B0byiAyERXXC/NO+w9ABAl/A8UZU/3yL1ft4WX2kE28dgLQEgwP42hDM2W9cADyXDCV8eTsgxADP5/xpFqlmMCcAwNBfpDFoODWDegCnxAB0VXBidhgOBEaooiJqpXsHH+827KcbESXmNh4Q9TzP7llbCgyGKDUcb2tjMJgH4HmaCuRrdcnAg+gTnu0dTAZkKAXQw4HbHRyIngUaAvjYklljAHqU0ESzhKKBIBUO0/vnNbsZNUPHtz2/HGE3PmIHQrSuUT4lD6TFQYa47Q80C2o8QEBCR+kA1MnimYTTNw0FEBnw7FHNBQydNKDHZQEW2ivEAGtOEgZ4Mg0gviJR3yGgnOCIwlFQH52ygLs44gDZLN/2dCDaj88pQYAb/A4FgYFNB5VYnD3ZsWfRtsVNm7F6ahwKIgjpiwypQCNIMMoBao/2BbZDBhBbFp9NBjB/QS1mADaA3r6QbH79Ih7zfQ9zgID0r4MwUv/zoiQhDntbHf9ZbQOgGRxA3xE8GvN8DOZgWUPYAUBYosNRfgx3AFlBoJHeaCMovi1toqBZAHNWzioDiN8AYMDxnrosYAQfARpWze/k4JR9W6nTWB1O1M1N8Zi/R6CBXrohHQRKE8iaTnHPknv04w2srD1/QKBAmyB4yr68gO9leDqojmf73ApwQZ/92Bv0bAEM8Oz47DKA+AoAA7bVXP12mQwivQDTMx4aGoDN7/Fep/U/OJh//DwC6kEeyDSGAR8oAFKoj2A9bpYWM5ADz7NCU9gVGfsK2kTXL6y9DQJG8PFfcDyADQVhOGBiUXy2GcBKkQlU5Yb0Esn0Pkc8UvKsd/DoEqvDnvB0TR1APOZnb9wfkKxBC4VraQCjFxp4+jSBgQIQA+CuAhVMBJJtGNjSNEYgAtkVrjiNxhXke3or+P2CWxMahlhp+dxZZwDxC2D29ZbtVbMAkw33FVEoDZSQXb5HiwAW7sN1OVP8Ew/6Wdd37tZAkYYBeGCZgIoXoqZHYm0Q+eA25WgwAxnkhD1KQDRlCN/fF+YJqyHMawpQ9MhHRiA+b1edQInYvPjsMwAlHykAwUINCwAfMIKxQAWo7TZUD83CMWe2KQm6XQE/7fq7z7/qWdRWzgweMkxAoxUWDBmnb3CDHb9skw3FKn4k2YApAxhWgn763YwqQQitI1nwUn9agdT+8YfewnFAzK6Mz0YDWHwRxDfbqh8B2gf09CFZNRVI7fYNaZMbXp6mBXs45jdNZMFPu37e0fGqqQQQD5C1tWApFYcchwR8nv6KjgFQfmApgapVWXMRISjgLwhTDbHqUZ+2afznkdVXbgACgNSK+Kw0gPjlC4AcMlzLBUBVdIRo6rK8JAR4CHf30Z7VXEFuuwIki/eHYy99vqPjYW5yfJ3321xAoQBZ7jm5xL2f//mQp5tCkGYIQh6U1anWAcgYXqCax0VKAbXHXMGeBep7m2GDnKwM8KQbgAQEq5FD8MuifEBIimrsLZH2cd+yNgPE/ocgnnQO+h5/vusXUslfp23YA5iakCoH0hiA39TR8f8NedBZiOnGOKL0jT9SIaTPf+BoHo84/B9IAN2KQKEP9n/igvhsNQDBDpLXlp6qR4Clxo0gViAL809wrou0ZgkwDG97em3f3me6fiNJh/fs8wDY5WZQSGCIoQoJ0DKBsuH3sY6Ojr/fofIAEBoxQKSPlce4rhlKs1F0AFsOGOnBAEDB7QU2VrF6C2QAN8ZnrwGce6FychPLx6GzEUWC2g0chjgNIXLqMMagvykSqyO6rasLZgkcgDNjyDaEmgBAmkKAq4FPvt3RMfpTX0uLaIURzEHC9ATdVqjpALoE0OP+WSjVwWTgApQAYivis9gA4vOhLjghPQg8pM0FetB83fxhLjcdQeQsMYMbCM/jOiYPPD429ls9SDgQP6T7gTQlSACBkiEoqgEmsj8gtOgf+GHASduBJRd5Pu0NArJBwPlP8ETAkR58ABTaeyO9wBDyFE86AnBKDCB+mYoDYxXxIPMaoeJ4Tw9qqn6GI6k/XfwPuG3+Uce0jRRF0vdG10uadvzyATQy1HICtVyQdRvBv8o2lZ//vU7zaY+h1h62MYNVFuBPhxH+R8XCj97+8jaMBUstmBef3QYQvxGKApUDQZsj2Uigx7aLPW1k3XE+5pEewcDDTIHA87459qjtPHh1l9n3hhNoe4SBFBjsgiGFv3heE/+cHkMfigDcqg8aSso7hsTW1xOJa3AnGJBAxff6YP/PkCR4IxmAKQr0b58QCSYxs7QAeE3fCWwBxtZiaI+gqcspYoDv/6yr6xiaKnSv1gUb4igGkK4Aikr8SRgIcuujbdzqhuEew8DGH6YtAWqB/DUduI44x38BVr7Qa5VBVAIwCFpA/efFZ78BzF0OFMGKhUFHLwOygREQC/ui1nEIEGGHKAPg5nAIB3/Y1fV13H/48mNZQwrmUAwEXyA3+a6H9SP/bszTmz2gtGMfpSAc4gMRXQhv9EXgAoy4eU1F+E986IEEIHbRktPAAOKXLwA0YGthoiQQsaRteZjlw7tUD2+AqTuo8I+pf0ZIhD/f1fUIbUJ/+V8NKTggOiGe7+24386l+8U/6+YCS0Ti6JlMvwFgDsoDHCva8B85/gLC/wrkKCgcB4DsYyvjp4MBxC9TSuKxxLYKDgADQVgzp09sq2OKu2kJGwoARAI9Zg64Len6Y11d3x91x8vt0xgAlIOUE9h3PxoO+MDYNz3PYku6MRCCAG7RX3A1oDywV4SsfbS4ZZUAqSyI/N7WhGIBLjgnfnoYQPy6FEyVYhMVA0nv9HoZCIywfLhTbFfExaCMH5gHhzk7ImEf+tuusUcqTXo7EOjGMBkRZJ/8VzoX8OtjP3M6DHyrRaZGz9luUu19uFQH6OmN+n/C/pZeQCGC2xJQArwgfroYQHyp8AGyW6g9ygptRxUzLJnSk2eh9QCkO9dH8oCBTsmhb8TzftzVNfbSrZXG/b189/333vTYgQMHDtx0/93uLMJ3x8Z+GNiGMIwzwqHv4fDA18oDIZoCQHd7VBKqvbd9m04AzoyfPgagJoyLP3tzNAgoVI6chBNI7uCg5uajZgBM2w0sXUc3cPg/7OrqGjvWMclr9HtdXR8oaRDLQPDdqN+n4YHH+a68E/2bM7/Q7pYAett7t/XDgXhe/HQygCUXQipQyQJo3IQDgZ5dXIbqHsfNAD6mCFkY0OCzn+nq6ur6zWQN4KWxrjd8YJzCR1QXNG7G8pSh0rRvxKlrFvCSF5xCQDGR6Jc7YdHi08oA4iuX68rgZhoDVkAC2g2bone3IGjJ1dBT/nyHvYsp3Zo5+IawgK9Pbv8fHevq+qYZNkX6jI0SgGcPCBMRei84hX+nEYR2BrJEQrwMidiFS+KnlwHE538Mch/CDjClsoIroqXs4Emd8UMnrunjxBowWiZAn88iCOjqEryQ+q8HHhnr6vopx1mlphqg4gNHakQcEIkDkTCfxgG4HLg5AQjQRXPjp5sBxOevAv4DsgDClaHyGfLj+rc0O1vpMQUw6zUgDH5fc0X1zb+XBtB1dBLr/5uxrq6x530yUpwQAmx7ip5HrZJT/x/oghcizH/r1janwA0uXBk//QwgfvmqVMQHoFy5QOUzVBjwDxoEUEUAH4ghjhRUoCNA7QjGpAE8cnS07vUXj38jgB/npCDgWw6AijiMe5Bv3+iJmG+Btv9rHIglIBA6het/Kg0gfo7xAZtJFojKp85rWfhGYH27IwKAxvwYWnAAdI5vKhfwyG/rW/935fqP/djzPKwtR/XHbI8QERHl30D7vxDBNNDnImRCieWncP1PqQHEz5mTclTk2glTOppIfwNVYkzrBtUGNDh9YEt4z3fB9VI96/8vj6gHP49mitt5MoZdbBgJXJ8R8mE/Kji/NOL+WW9WaN+WAAdwStf/1BpAfN4c7QMUJohiPsdjqoOh8CPUtIdPfO68IQ8g4jP/DbWkY2NfeqCm+/8FGMsb1s8EqFEYDyRCBELjl37kCL9GQCDVEratP6EcwPL58dPXAIQFwMXaCXxSQDkzeiF/ZOB3PyA4AC4BBISvK4+Fn2kXMPbI92uk/4+MwUN/5mu8Dw2TQcMJfMsH4oid9OsCEvsotDuRoP7zNiQ0A+jUrv+pNgBxCoAPKKJqcHsEDAST+LVlg2g5L7TrPVsMQAU88ekDvapdXWOPTmwC7770yJh55Gc4cI2NtkzgzhRFGgVm7uyvI/w/ZyJMe2+hZ0O/gn8Tp3r9T7kBxM+Zo/GArT0ufzoipdv7axgO5bABJQKkqvkc1wLtOI9vWgvoGnvk639TafW//z30oK5vgswo5p+gGQRUplRzFHzf+06BxjEFVw6wvbfneCKRSvTHTm383yAGILNB5QSOv2g2O4LPTTQtvvyO1YE1dADtnFUTp4f7903kHjyPlrZrbGzsb3/xlXfx4n/lF492deH17/qhbwGlwKvsAAJUGdT6kt/pdXMY7MtERjgo+B/9sVgqcerXvwEMIH75qphuFxisQAojKprfQQo+GqIHAWGJCwUwVihAnTuKNvjPXZFr7Dffk9dvHhXn/hj95htGK87SkH2SdkRGEqiE4IFeJPpSiHxs7+3rT6QSqViiP7ZwbrxlAMICPqbjgNQmlClRIUX5CvY8oOJx0+jrW76251kE2EfqUErYz3++a3LXD+GHA5v+afphdECBUZbzfK9QiJIasB8Ykks/6QAAIABJREFUlssvcoCLGmD9G8IA4vMX6jggsZmSZ11RzQdgCqgtxUNRwLTzo4qQCQQkOPDNSa3/G22Y7AGBZ+DZueJoJAH0BcKksd7eSqmsCQWY2v6pWGpFI6x/YxhAfO4K4wM2FBRcXuilavrq615OthxSDcckQc8su6UL+p8Zm5QDQIV/GwVyO1ccSRByKFDKb+4yh1bBDWhE+L9G9MX0x/pjiWWL4y0DMNfiZbphJHF8pFIxSLuDXUjLl0wJQ0wxqBLpvB1SAf7jSVjAP3fbwr+HgGDPR3mh1iJV+oGQDewu0N4vAmcObhGxf0I4gCsb44VvFAOwktKp1JY97S4kbF/Tfb5FAY0yBzedOV5g6vS4kV8Fa2/Uvf5jz6u151Y22DcTSAPTgmYbBTwjXvxkO+74pya8WVJh5f6/JN4yAOe6ZAHURmMJ1lvoraSj19veuzvA+l2+25xnOgMJMcStCNS8fuZp9TEtG6wdjFIIVe4nwPOCNWfsBdvvRQhghd7ChoSgf4n3OefHWwYQuc6fk5Kdo/2JxIYeignbWOCA7+l42zJxUI5mWgNtQBDoanHw4zrX/5ueZ2oMOqY0/5UdKKrLkeAp1K/yDy4FRLuxkeP94m8TAcDC+fGWAVRKBi6CXCCW2NJXiPKpxNsPPN92hhpRcG4icTzx2wx4MDK//1xvBqD/c+1BPA7/pcYBaBnAt6DENwq9qAvA1rP39CvwP5FKLJobbxlAxevcZTH9IvWzglsIku//YEtBti9Qg3GBzcZR0UjL/HLf+6CeMGDsM9wUlJEjsRrkSIZYJ4haqyTwvkEnAAEvtGdbQsA/4ghomPCvAQ0gHj9TNQwIG1gzYrI/ZATfCEhXgB3ZFyB9KB+YwbiBL6gbDvp738d0AtsFGni4vGBk4+F5HDoA4bIMHofmv1RizgXxlgFUCwRWiThZBgL9e5CaUkG51PU/8QH7Dzie2Yv0+j3L2Q9I+4Ac6/v8WG0IEMSgQQIaWIjYEqwPQDREuO9HBad+1d5b2CyDP/lXNdLx35AGEF95oeJJ98cSiWJPgfbW9xZ+ZGJ6jzQF+3RADNL5tICA8AG8hgWM/dA3TYfmB73AcP+wKDGWDTPdQ78umOy/oGLAF7fK5RfFn9iyJfGWAdS6lsYUV6o/lVCQAHKm7T/y8HEcEJIertnoEwLrCqsD/Pk3qgIA5n81s2FkXmEdAHdmlitOiu4e8n9dcMiMm+XOl/n/Ker+ajYDiF/2MYUIiKhpw4iWUlBpwa9pYRbJAXFN27L8DXMw+2jIa0C4AQ4A+BnfJywDQgU0M6dMDUKLllqpMkEHwJHr4BpZ+hX/EhfOj7cMoL7SwDI4BcS+2UzCwF8HPm7+92CCABENsOPBfNzWa3CD4IeVncAjP5UEQntscJgNhWLCAA8i8dDkIh2RfAdTAgtFlfsLeCNx4+J4ywDqva6ZI+GAlOicOT6IUMHv+JbwQ2eDkyFCANYHSMzFTBf3PK+tAiQ09uM2z/Nd/pdnQkLfDBE1w0KxBrnmCr273pYD+7YkVOtPrD+2cF5jvtINagDxlSuEjJBqIk8Ue8yp+m7gIceMxgQj9UYTBFiAxsp8SfFvn3/ws0fI6r/xsw88zzOTozXDQI+gQ/TjgEwRxwVJaSqGD1IY2QC831gi1r90SbxlAJOEBBbEEjBiILVlsz4CHvCUW+Z4SrCH2YAqFLCCziAgSkaJyCDv+Z998403RDjwyDd/+rwSEEREEi+wvGPPtiAGaGCwnU7uG8lSbrhfrD+R0i3Qyy9bHG8ZwKSdgBYRkKNm+tS2KvgE5sNMfTMYTNUDzcrYMaOeVfbUc+Z9jfp4uLvMIMjAO4Y55Lor2QwN9xBpQKUhu2D5125JGFw71rDbv7ENIB6/RLMFxTmwQcnKBbY/O9AIjKzIKRdg4UDUMkaHfltFSSvz5ZkpI2YwqGdmyGpiISfAMDc+w84T4v4+GQH0rdGmG0ulLpzXyK9xQxtAfK6ePS/pYkz4gF1alNc6aH1Ee0i7wzPNms7+15NGoLfMIfv63BLKAN7zzWRy2yOi4wAPD7ASgweD3e297du3JRLmt17wocXxlgFMARpenjDHgKgQ9e7WEb5mBeIsPPBoAmAVXPHxDriwie8iU0a4Lv/piZOBjysAHNUXUCQgDfJA70jROH9B/Jvf4C9woxtA/NwrF2gPEEsltrAncYRPEGCt50IrAkDjwfvf8n0dYQE0hMgWFQNEPtLjQy0wBL7B1xPLf1DsT8manzTZ5dc0+svb+AYQj89fljAuIJb6MvexBJCl6XMP67cGOEOn+980DPqOsIB8OEdV/sDm/j7yAQgoMvPJNFX9fZm5Kt7vghuXxFsGMC3nwEJFpYolYrH3A6vb5HkR7q5O00gAQDu5yOhBpCrAqVMxfgQVEmx9gEYOBm4KfplSv2kq1b9sfjO8tk1hAPHF180RkGp/7J/+6ZdZkv0JXS5D0LcNYwE0CuChwmq32sS9gqoADzwk+hfoEyVwOgEJ0UCJ1MgfzfreszFR9RFdP5c1xSvbJAYQj89dmkjFYrF/+sf3oV9fHsRA3OUYqyMgYIBURJSf1h6DR1QFfBxYaBwA/+9GkxCJhfuaJOJluzPdQduzMbn9V53ZJK9r0xhAPL5y6YL+WOIf32/rzvoI+dXEDY7EgRAlHG1wjieNIm1xjkOGwJb/uNWe5FYXynfSTTPHLpPJdPvBvyQS/YlVNyyJtwxgBqLBpQsS//hL+UJbgQC1LzW6h+f3BEYt1GT/HE0VIKoCNhb0TYZphWacXIEbqVLbf5gRV7c39I+JVDMtf3MZQDw+/zxpAJlMFhF29altlHpIkxCa9WX6RfHO58ZbaB1gz0CEhnTmiJBhC5FWlVFXt+/946orlzTVS9pcBhCPf+T/EcufyXRnoSPISvX6hv+hzu7AdBCbScOoYVTHCajNMECdJnoymU0BHJFQX587frYb1j+T9YaunNtkL2izGcAffSKT4Wq7Zb0AA7GS8edhzoYdKaLJw/bkR6U/WyHQrYAcscrsYCjrABQ+CKVFs/ziCPA+GW8ZwIxen/yoeq25CgVwQq/Ym6iPz7O4n/XnGiv0SN6vswkc3usEwwELbJ3Q99DuF5fveR9uGcDMXmdcrD1AFkzAqINyG7NjLXF0D3CI9cxnU1QEWr8K/3yOfUCABwRwHzce+YFPlj+T6eZBvGUAMxwDfFTtf66PXdMd7HtI0cfKSFO1MK3qiMRGTd1PR4iWUmZBIyUKyLEaiO8uvwhN/6JlADN8fe5i/WpzcAJci3Xb8Bzqv/pu7pNino8iRC0GzwOKAeFp8yAL4PtoLojv+X4mcnX7f9AygJm9PnzVxX/BM2b/KxPIKrFu1S2AdYQVTwjxPwiPMCBUQis5QCJ+T08NtpxCFftnMpUM4N+1DGBmr0+kL75W738whKzMvzSDB9UDzIh5pfns6c3Pkdivk99xokAmGD46TPAxp8DPZjKVDeDftgxgZq9L0x/5XewB9K3uLCR+WCvADhUNuJUUgoOda8QH9xGjTMCH7kMP94AAVpiZ4Mry1hEws9fF6fQZV2eQC8gYL9DtGykfzBcGr60n+8lYEba/b1hDRnMG2gYCKzwXmDKzHg/RPdHyZ3zfb2ulgTN5Lb46nf7kf84gF8CxF7ClWozuoVI/YgxothfEDqReZBEkrBEp/7sqyy9SUn7L9S0DmFkHkD7jP/As8QDYC3RzwgmwCCCE+dzC976m/luT4BgvDjzyk1KJtMryZ2SJ0r/l2j9tGcDMOYBL07n0Gf/F59wuvYYE4J5st96v3MOTHn1cH8ajBkiLP5o9qH/C1BMqpP10/SUeMZD+VMsAZuy6Pp1Opz/5b4SrBQ+ADMEcBN0+oD62ide6fT1XlKgNYiUxU+bTChE6Pqi6/N06SRhIX3VGywBmCgW+Ni08wH+UJFyO191YAlfAQLce+W0OfTvSxdYKieg8VhXgWCVa/kzV1ZfuH5KEgXT6sy0DmKHr07mciAE+CoA+LD1KBmxWYHICJA5CZsrpbl+09oGdD2eFwqXzr7H83b4tQeRy6dzFLQOYkeujYvlz6TP+E5SASRToHgQaGqAcXqocpiEfG++jFAC4QNmJMB9UAuZ2PIlfTqfT1/5eywBm4Pq4XP50+ow/NmP7shgRRPaQVf+ycm86lT3LGzXHAvQOcCMFaiZRdNfY+yr3h19HPpP4DdNX/1XLAKb9+pNrxUsrPMAfcVOe47yCA+DUD3TbhnGA9xA9CM0Es30FiuTHs5naVze0DZv/QRwB6fTVH24ZwDRffygDQOFgz/gklgfkFV2AqRUqX5DtVmoe3OaHARr7p52EcQ317Hx9+BvGoaoXKiNNX/17LQOY1usjVyn/L9LAvwqQSJfPnUDAtYSs8QTdZM6EZvbZ4W/Sp2Qdjk+t2I9rwXD4n9PCSHPp9KVntAxg+q7f+5xae/nanhG3FEB5I1vJAUBqyFFIkOmWCWJWXL7WFgMekbi3u96VN8Cfbgw2PoBn0/q69hN/2jKA6bk++amrcmLlwQOcEf9LotLpO6AAr4ASc+wLADFU/6RZTPrqNrvfUxUkXU7ulr9mWf6ul37ir1oGMLXrj/744k986uq02f4yCjgj/udEpVPe4BVywmjV2GQHU7y6nd1vNUgyaXJ9+vqPXvzxM1oGcALXhz9+/aevRS9lLq2DgE/Gf5e7VA5wAhXjQQIQ8cyUr+6sHhMC2YKlk/h+Rnoq4wTUdelnP/FHLQOYzJF/8aeuvgqvvQr/lRNInxH/d9zp65ebkPMqLoBXyA4yJ+r7ze73Amd6Oc/AL2l+cW231376+o9/uGUAta/f/+jnLiWvX444ARkE/t8RB6DeOf/Lv4y6AG5JA3yKHkB2pfqB92daHsz3kT6B73Ge0cdVTp9Z6A+46upP/affaxnARNdfffwTn7v6WrPOObPnVV5V1jZwRvzfR5r1wA34/+0vaKGYHAQ4O8iSgKCuT9luIw/yP8wMIY7HCAY+v4UsubGCnI1hL/30pz76J3/aMgBy3v/hRz8VOfDxMVpGWWDujMX/1RX2MB//x1/4kizgxn+VgwBe9ycAlbWz+bdKXJAMEFUmeIv5bXEQUCYuTPiCSz97/cW/35obqK8zPnL9Z6++9iqzWex+0TfsvvpsPP7f8ZQA8vF/+zPZCsB5FBLi+AOnFcRan7o593GX8H+240jtR/k+EPFfOfRR/w3XXnr15z7x8b9qeQA3+PuTi6//7NVmr+MDwDiBz8Xj8f8T93KSGZ7//s8BySchIa+cAdQVD3RnuFp9FG38r//BsxMLKV/4Qfvb5tDeh19ebPyPNlpa2HhZwB995BPXf+7TV1+bc5PAcvpaWWr/hKHq2Y/KIv7rn1vhYHm54CB1C7zGu/wvUD8RvP/Ff9FNRh43k0RURfDSHFp67fKvuvTTn/3c9R/9yO+3soC6r8XxxfH4GX/48Y9//OPXX6330bWfUzH0/2V0PcxH4ID99z+wesASo+NZzivhxLUzAvGTvsX5cYvwn/0bO5veFJZVcen3r79U/7ZXXX29+PX/8IwPiz+nhQNMxSV8Np0uX/u5PzaVIUfTx3T3Bv/HH5j0XA/0lK4gm+GZiUEiZ9ubjY/HkqIWYe+//UdURNRixOokOCMe/0NlsZ/9/XhzXM3WHBqPx/8XW8oLkMA39/3//Xf///auZTexJGlLLABjhAAZgWQBpoWEFzYSkgtsvMwtlhe25BWqTe5+aaIfJx8yHuJXXuKSB6qmZrrrdLkmo92eqrLBNX0iMyMjvou6nkt/DtB7BOCff2JWE54WBX/6dY/RDESkIdCKOaF/1NM7lK1BO1VZePt8/zU/YQLcgLgDJ2eAQP6xbnxU13Ppz0VWYFjXiM7vCP/C/0v//In/Ck89PHjkqz4oUnFuTuigMc5MSugb/UtMSYA6bo1WzIGBVAECfPOiA9l8Hln+G8kILG7tCBieNsbEAAAh/rrcExAyc0L/hseL1AdIelPIKsO9kgC19AxRkfeUcZyDm06S+0erPQK4USdqQPomyTLhvNrzaWP+JhY7N4wdS3xjSHTTQ0mAWkLIeyiHsF+RzTbmZzJvCCDq/hEDLMphqJe6TPcyPWB5E7Cu3WTN0NR2oB96LAlQS/Qq/mBM4X5sJzcvLeVx8sEscXYE4aWOlSu/3gOIHWzblxVxsvQS69olAWqJA2T4bhHxNVdcxNlvTIzS7o5JLiijjCjTkOoeQG/q1/mVQbVvaCeBj5IAtURD+UE7Nm8FOJgrUGN6tab1Z/kOe3ru22/tAVZKgRfzKreMzElgWBKglmgz44vVQcODO5oPlD6AWtP5Z1YExtNzX5uDZ3sAiJ/YxEzZogD15oHLkgC1xIuS6wuPIP26bSaapcNr+tlBtr5J98udnvssLRh+//quHYXozwemg6IxpS8NrZIAtcRAGTcwm8MCTMxEbLzFzA+n4iXH6xsh0wDEk6rf/+r5oBc6PemBebHCB1IbAd6XBKgllmIRrq2CYWsGcmUXM7/ekbZ7fcYTG1Af4lnVD4C3R/YbVreBoRmg+IUqbRm4KwlQS6xRvP30sb42QwR9BET379uONAscKQUJNdSd3wP8ezfaSmeYbwNbs5SrP20E4TwZlwSoJe61fBeI0P+9GSpBL+r5wbHjuIazSjLYQqIFnd0D/GsbH5haAMqYzC1NS3MBUl/B/3pVEqCWWAQnwOTiq4y77swSRRsEqM931RY9GASZHsV3keWd7wH+uztDZQ7O4gFzc6/aj0qHFG5KAtQSOzL2Q7GI9p/GZmmTpK+y/4HJlQB4rVVqoWrMf7IHhPftzPU3UHdxbe4UF0CkxC3uSwLUEl0LSu6Ne/9wYeYsBZIa+H75bq8gMxAg1VDMpn6ZA2E82rG90es/Nf5dy4wFHcC/8t/WLwlQS8xY5lWtXwB7bebAst7IRrDrFznFM3Ow1BnIesRygQDrrkaYDxbDb1vmAoQLQL/yXzIlAWqJG6Xpoft1/YAYT7oBceLrl+fmQyH45c4AShMKswkiuYTAx04f9lQlbCIkJVv/4QvvJQHqiSYqPxBl/XtpWhrDR73ixSR3BxUD0KQZrS/7MvjzTd9uDiyI8mT3pgnV9R/aBs8lAeqJS3J5IDRwWtzGtBSGj3eG3cDl9IEMNWhVMS8LPTYZB7OM+JN6DCPzdrL+w+sbJQFqCtD6/by4D54zgtrkOz6c1dAqQ3E9K+YLPF32eYgY/3e4d9aeAAuejDlZ/+GjUxKgpuixs4ui52DDmA2CU3fzuDnMhk5sQjCsc3EZRbWYZeNIiJFtPyP+pG9cmDAPztZ/+HgpCVBT3KqinOg5FtvG3Eszn4y9LO63FbyPAHxBQX204Ej6k6U5AynCO2OmTooH+RiUBKgpjqhasyzpOzFmpEwE6dpu+0tUXlIa4MsyP6fz/XBgzM17FU+EFnbGdCB7m/Rmy5IANUUbsrlOWoBDnwCQJH4VhMfMHdf77BwE+WmflQ5cJKzNASrYIutgbCLy6KQ4WJcEqCk+qHdvVecP18YsxNedS4SemVuyhLegeN7APUOHCiigNoKWaZxgi3zH2QzwHOrwviRATTEEPtVTwecf3MaPiU4VfA5mjSISjgIXtEA9Q2oLukT0IAWYjWnn2KLwsq7xM4czeONFSYCaYsljIAUMx4Uxd8j28AwNPJoWIYeoTUi9QtUvEH5H7AiEveDeTFDcwwlPtDJm7c7gjT8lHOBzJkCLGn1Om32M/ZyQzaB55V5FRQnyFcwg/UIBYjAgiYb7NBp5gIHGC4Y94MLfNs5RDlYlAWqKe3XZk77uypgx8pSPp4QTs1G3+xMkb3VMQC1CnyVPZo5KGiDtATNjFudYBzgrCVBTLJBvgGogdGPMWC1sooNtzSh+N1aIw0h8MUewEKZ/pPpxYTa2IiluHTwYMz7DN0C7LwlQU+w0LJh3gGbUjsjZwQ7nvjsAmuMvA8R43OuRPmMG/C/uzJOTnp8LbgMB97M65RuEaWRJgHpipR4x+wTiozEruR0wiGfjRYVoxEsOkTQGQHIQcJneU/qmnQcfCZwoNZyu/UAaoSpU5aeRJQHqidmJA5APnxlkA4SsDoBPZqFmA2l6ED0BNSOIIYTyTGFsuuw/KpZSe2OazDoIuMSkVGpKAtQU15id//Hw9uT8L2EpolOzfbszd2Ia56yeAoCgANEJypz0x2zXzEBkI2J3GW3TmDdmHUSRqpAmzyUBaoo/+srui12//TT+wbLbJ7f7V0FWjIxA9RQAVIWfdYrib8GtzJ66TCDNRH/UY44mDN8xLQlQV7zRiQ4y3wvk/AfuA8psfyY1Y3UCANlQ34JmD/tTYWX6AR9qxUHYAn7NB9LMTuiUBKgtquR9/wheTCzO0uLmjt/ejOkCZ6WxTzBBDe9NXxLowBePPVEe4nEb8LXebbonCEHdwlVJgNqiB4Low+gHHMj512CruB/smy7XC5UuoM3Ff4gQwB8PxrxzheBSieCLTXOkO4OCFE1KAtQWt0iAPiC/d5h7f6ETnR+PFOzKjUFRAUU+LHsNb+wQWku3XCFwq8D/Ba4IN6reYFsSoLZo8A7AW7bbRLwwas0PANvzbQNHo76c/Vfp6OecAgg3/gYtcGYRhdvehP3HBVI0LwlQW7Qjvz/dwmMj/8knQM7v9x+3xvM41MmvxH0wx/qgJgv5G94+/KQILyIcMQb0/zId/Tw7RhsysCRAPfGRbt/s+R6HgaafK/z6j6PvG2GFB5gpf1Z3gdQGcuBv/JPU5kE2nw9qkGtpQpN7CIxKAtQWA2nh8Xr2w9g+Kn5/LPPb/nKoFz0qBZEzCmLU37OhfjRDJUoY3yb0ezapkEwYo7B/3JUEqC2WSBc2YQg9+AaBKPzSCp94ceF80X9PRxBJc8r/5qsxc2Cj6ZRZQQ50oclJKWO6JQFqi7XgdKgX4KXazSWenPBDY66VbBB+X0eQjMUjQfjSMw0sG03H7eXWBM+CVHxIY8FelASoLe4j6y+T/AhS7acn/NyYvVr0YjXAyp8Z6J+OkPAbb09Cpz/JAWHo+K7iIADYLcAB3pQEqC0WNM5Pkh/+cYQvnJzwsKHZHbPFFAEQlcYQrX+FMvJLPU8PYgA+ZCyC+CbNkgC1xY74m1Hywz+aVxN3gMoJj0/G9G3lmNfS4BnoH5S0SLzwdUFg5rEXEBShrwGVgmx8k7eSALVFV4B8Lt3f4ywO0xgQNY+nX7GazaTB9c2fxAPjvuB7SF6MwhEXOX5XmPn0q9giG1vEJQHqiRmIBFBaynEW9w6ZRpADDxV9gwy+pwVDHUBVJNilwb+D59hc5lZD3AjawQKKZUR0y7EkQF1xjZr/Fz7iLO5dr+/wMQt6Atzd41u+zP8Z9E81An2Dv/D1wytiIzkihqImPGJl5oC3JQHqiyazgrk8i9TcXkX6P0B1HzV8L6J49E4gM33L2I+wjdzGpa53AEeZ9pyKQs40dywJUF9cOsX9iNV7pOY+59L/NuJ3GECqVcHTVmBRQ0UA5IIfL3w9RgSmeWJUAWiwdSTBD9slAWoMoAEvE/XXKQGg0s+nA1u7PFIP0b/ymQcHVoHNk/y8d6egKSINCqIrREc8S5K02KQkQI3Ro6fFHb5Izb2tSv+/x9LQhYFeWNoW1F6Ax49seJhtEce41JXUQLQLMAEQwDqE0nIsCVBb3KISBggrMFJzp7n0v42lWU8cBIEbR/EpD1vKMIDIZulzuFi0CSVM530sNgZ0APBbz0sC1BgNXrH0ECI1d1q1+wiruOcU8ceS52A4EJ666jYAYDXQN5zqExRd8vDE40rfEjuZVUdbJQFqjDYLA1Bbf2Vow87aPu1UGWDVSzDtHw9NzJimzB7wQqEmaBGgUzrCLm31c34R+YaNSgLUGC+yA6QD+iH8+bFq9jNRdwPkVh8BvDyfrCcDRREgDV8O9f6cOoBEIIzXjVaaEiOPAxclAWqMQUX4l6i5neqEN6zXW4BMLNTyp4bPJRELV2M/Cxjq/U38M2RN4HnoBI5CbahQRG5cEqDG2GZun/6XX1MCoKb8W5zH0lD4vyhyIQB+P19rsXAqDhzX+0+xLWD5DWKxd0c4ER4hr0oC1Bjz3NoDyLi7jZl4qIOA1JwiQq7sna56OPJcf+UMZgVkAC7U+ztSmyJWQWw4RLKJC0SCWEU8lASoMVogioDhVz0qDjPGdsQKe60vrCh7pxbCl4QkdlWQoV/T4fjopoYhswpitb8KWARIqGDfZrguCVBjjMgFiJ5pGsVcJdnQQO/1T3kXS8OKsjcXD57m9VpBhTHYLzA9HoAZCHFXiejvh9gujFtA+Iv0SwLUGET5Z/BvUup+Ib+f1PXFgNTsYEXZm/h/05Q0WdmQtoFU718T5pMMyWICXAsiMG02lyUBaowvKM4eYWmmWdxHJvkPgd4XlV3P8QBiU2ddKRuQQEah3Ourq0H4iPf9PrDmZCpE3koC1BlavJHpGklDlJQC/YoOt8O2sxXZ/9RCDAOEndYcJ/KAf3Es91gcKJ0QqeHTYCZRogztSwLUGT3h+od/Uw0wAZKJTN27cDJfVWw/2Hc4ILn3BAER5GfoMKZ6v8fzwXjjSA2fTuY7DoDlCKg1aH6bNB2xQQ0ignmk4zyWhqc8oIj5idv2O4jcQ7zyh9091fsHmgMktlFKgHbGP3LWliKwzhiLOlzcB5JZw4DVQ+NTe6fKoLr+w59M6VlalhwDYKRwqveP6DK94F36SZnKCIArreAa43EqLuDx0E7D2GGi8cTGLqTb4eSEBxSP++TwMGexWCUJFbtEobVAvYZYDaSWbwvZfyS+9HBZEqC253+FohUaqTlp/W3Z1Tt+KV4OJniWB0j67rvzHGE3Si9WkCFxiB7bCBMTrkG76ATWFA8N1KPYsD73nABOYL2YgHoDPMcDDOrC8U5/QhAMe8BT3FSsy0iDiQPadBnFwCt/TH9JAAAHrElEQVQHTB9KAtQQzSVGza5E1Qi7/SF9cUnU3oTzmaRnmNt+0Ge6ur9X2gMpP+KuMgcRGPfbAJGAp5oXGL6MsN2XBPjJMRsEGA4DQlMpRnCcpcL8pmmfTwCs2H7E/YGR/G08Wf8YpIINzYMVD4imfq3cczhdH15WJQF+4uK/b7BEZwJkJQFHuoPNWTUuIvljbbjNtT/oqsg43mWVIBh/Sqz3n1hrIJaPxALvv+eew1F7GGDa2pcE+Cknf+tIlm+MBSP8Fts1zYXo41d9atwvMwYQc4NY1OeuQhBMF4JxKhHVFBED1SjGuoI+itQS/1Mb61lJgL936S8Gr6D0fyzII7WAz1x/z9OmQND+WMctRUFcCAEOWNLj5ixBMCVAFxj4C8kuIMbls82LyqhPGm+YvcliXxLg74kv82l2P6f/ytzxQUFjrQn+n9h+u5QWcrSnmT9SmzgEVo2DZJJoHgT4G74gOhC7fIyYqQf7uJ1flAT4i9HfLQ+5T7C60qeDwCp9tnGS+aFV3k1poSfBRCo6yMs6uStQWu2xnttnogE620yLtwvQTDVVbjwvd/2SAP/1w9/eWq3FqcSBRbcFMjjuLpF4aSHG/XotxzT9CwAf8rJl7gqUOvxf4l9D/XT/ScO/R1AZI544kHpRoeHua0mA/zT2d1f+Zu20yScow1gmBjey7ss6rnEG+e/TStUycPR8FZNjoUxBuBawqZJT5sJIQDG+lU4VQ5ltCdl4MIwJ/W+vdvuSAD8cN5v2exTvtupurow9xSzk+f4xe2kj6vvTdCcd862qwYytyLrdcA0Qvyt2EVJq9bQHmYXcF+Jy02OTQiTNoZycFLcHfG/fX5cE+PcPfzR5thnYRhYXY4CSvUdvWMXij9ExUic86fjHGydKgWwzglrUCdQVwZFCQCr3Dqo56Bd0Zez3uJu8a79KpTscPwi4DBafJ6PrkgDf2fcvtu0QV+oj+yV9Hsw349NN9fIWQIDChPnjZp4S+rHgXvUrjywUrCjC6Vm1QRmJWYuvp2Xd9XizHLz4v93Vmf8D6jdX7fZy1SwJ8JNiIGSdeJCn83oDQv9lsNCLfuWW0MIpBcKC3lN3URmJAVHGfpf4jRLg8qVyXeBj/h65jxeUBcPhkrF5n0Ccg7n3nxJgxjKD6SKA7beSAL9erG6zksE/MLJxukfL3D5rz3H5HjL1wGQCRFt1Q3SEU5fo0C0J8KtdGwcA1fVPKBEzYtkPBeTNTuJHpn4xYlBQfjskG1oxFhzsSwL8QnE94Aa+VOC2If0aadfTQ37N3+GIdHd0qYZw0iruKAYQcQdwclMS4Bc5+xdt6cWpW7jQNRciDkAdAqx4fA2d8IUS1lBwvjeKAeS46Q+dxVtJgH/64a8Ww3dy7iHbr3QUyDl9wx17Aotat87faCTIYAYUyiinC0AMIGDSkW/xDRY3JQH+sZ7RYnkk1W+exLFu1/tKN/pUGZ/EICs9pFla/065gatKb/XOrX2nUUP+53e2i4eSAPXGxWjYsWzZl5kEpdHcQUMyxrqMTy+qFHGXXB847kM+qa9/OXCigZYbIi7Bcfv0UBKglnK/u4lML5cd/MD03/CnywyivUbB7qZvOpF2bljtChDuCtnY53KogT8KAKAcJI/Dp9ljSYCfdt5fjLadd1QwPDn4M/q/nVQa7lMr2N30TVenXUQmFGFAnQI+5w/z+kOAP0w1VPMK/w/az5YFnyMBLlebyW1EXmcQnHM2gLfr6hX9rnpwW0KLZlUgiQSnfjBaW1V+u1kfFDhQ+w2D7AtBR7wxHM0uSwL8HfH1ItR68by3ufNXxQbwddo5V5W/HbBycDtC++j1bUV0jn7K8+nY52Y06ExfcwdyVYPo6aXPgovLkgB/Ld4ufihm181v/ad+9NO8/ODmMaGKPzpViC9Y6HzrTS+b17Mf+5v1SwL8wztIO5WGev0nsGgWYyc7ABf4na+/+3+f3z0BugcraB4eFnTOfWs75xREaO9vNPb5X0yAmzYgFe1q/Z/3eJxZZ5VfAEF729clAT5prCYQ5cKcauIDC32dxD27wGZygTi4KAnw+eJxMYWM0QOE7nXf9PaYJPlPkgvklkPj7rEkwGeK/m7yzgJieoDnP3e++TAfj06mBRrhD9AbjN9KAnyOplF3fZThXVDxAGUQCLffKez7SVccBIFsuRiATmtVEuDXvvJ1N8NOmgYk0zDfA8hgAsfvYnKbDW4C8AARNd+vvd2MmyUBfsWYja4qg4Ek72XFEgTs4N+05t4GzmqxUQfSQ2Bpgc7m4rIkwK8UzbsP0HyA5CucuYD4m33jB+r57lTZi2s+EhK5MGwFV0/XJQF+ibjYfLxGTK+28gYZ18m0YPPHD73jGhVGGDXfL3GSw58i9F5+g6LgcydAc7fthT3augo932I+pQN3WP/w2b2fv4Ji/DlVDeghpI/ecNcsCfDPPPzF4CCynpDbhWEFKXT4T7UaVttXRggx34/MilHVBADwPFg0SwLU2uSZtTqvosfiqnxcHv+H5zQdjP4rtNaX+8mzMijH5E4Ap8AgjzBqtx4eSwLUdNFv/XCMxjd/qV5/u+mOfviHbbqPJQFKlAQoURKgREmAEiUBSpQEKFESoMQvHf8PhALCdeH4fwoAAAAASUVORK5CYII=;" parent="sdSFOSKggI8gM6giwSen-342" vertex="1">
          <mxGeometry x="150" y="10" width="70" height="70" as="geometry" />
        </mxCell>
        <mxCell id="sdSFOSKggI8gM6giwSen-352" style="edgeStyle=orthogonalEdgeStyle;rounded=0;orthogonalLoop=1;jettySize=auto;html=1;entryX=0.5;entryY=0;entryDx=0;entryDy=0;entryPerimeter=0;" parent="sdSFOSKggI8gM6giwSen-282" source="sdSFOSKggI8gM6giwSen-320" target="sdSFOSKggI8gM6giwSen-307" edge="1">
          <mxGeometry relative="1" as="geometry">
            <Array as="points">
              <mxPoint x="275" y="410" />
              <mxPoint x="250" y="410" />
            </Array>
          </mxGeometry>
        </mxCell>
        <mxCell id="sdSFOSKggI8gM6giwSen-353" style="edgeStyle=orthogonalEdgeStyle;rounded=0;orthogonalLoop=1;jettySize=auto;html=1;entryX=0.5;entryY=0;entryDx=0;entryDy=0;entryPerimeter=0;" parent="sdSFOSKggI8gM6giwSen-282" source="sdSFOSKggI8gM6giwSen-320" target="sdSFOSKggI8gM6giwSen-303" edge="1">
          <mxGeometry relative="1" as="geometry">
            <Array as="points">
              <mxPoint x="275" y="410" />
              <mxPoint x="360" y="410" />
            </Array>
          </mxGeometry>
        </mxCell>
        <mxCell id="sdSFOSKggI8gM6giwSen-337" style="edgeStyle=orthogonalEdgeStyle;rounded=0;orthogonalLoop=1;jettySize=auto;html=1;" parent="sdSFOSKggI8gM6giwSen-277" source="sdSFOSKggI8gM6giwSen-338" target="sdSFOSKggI8gM6giwSen-320" edge="1">
          <mxGeometry relative="1" as="geometry" />
        </mxCell>
        <mxCell id="sdSFOSKggI8gM6giwSen-338" value="" style="aspect=fixed;sketch=0;html=1;dashed=0;whitespace=wrap;verticalLabelPosition=bottom;verticalAlign=top;fillColor=#2875E2;strokeColor=#ffffff;points=[[0.005,0.63,0],[0.1,0.2,0],[0.9,0.2,0],[0.5,0,0],[0.995,0.63,0],[0.72,0.99,0],[0.5,1,0],[0.28,0.99,0]];shape=mxgraph.kubernetes.icon2;kubernetesLabel=1;prIcon=control_plane" parent="sdSFOSKggI8gM6giwSen-277" vertex="1">
          <mxGeometry x="600" y="340" width="72.92" height="70" as="geometry" />
        </mxCell>
        <mxCell id="sdSFOSKggI8gM6giwSen-339" style="edgeStyle=orthogonalEdgeStyle;rounded=0;orthogonalLoop=1;jettySize=auto;html=1;entryX=0.027;entryY=0.5;entryDx=0;entryDy=0;entryPerimeter=0;" parent="sdSFOSKggI8gM6giwSen-277" source="sdSFOSKggI8gM6giwSen-320" target="sdSFOSKggI8gM6giwSen-338" edge="1">
          <mxGeometry relative="1" as="geometry" />
        </mxCell>
        <mxCell id="sdSFOSKggI8gM6giwSen-340" value="" style="sketch=0;outlineConnect=0;fontColor=#232F3E;gradientColor=none;fillColor=#232F3D;strokeColor=none;dashed=0;verticalLabelPosition=bottom;verticalAlign=top;align=center;html=1;fontSize=12;fontStyle=0;aspect=fixed;pointerEvents=1;shape=mxgraph.aws4.user;" parent="1" vertex="1">
          <mxGeometry x="760" y="355" width="78" height="78" as="geometry" />
        </mxCell>
        <mxCell id="sdSFOSKggI8gM6giwSen-341" style="edgeStyle=orthogonalEdgeStyle;rounded=0;orthogonalLoop=1;jettySize=auto;html=1;entryX=0.995;entryY=0.63;entryDx=0;entryDy=0;entryPerimeter=0;" parent="1" source="sdSFOSKggI8gM6giwSen-340" target="sdSFOSKggI8gM6giwSen-338" edge="1">
          <mxGeometry relative="1" as="geometry" />
        </mxCell>
        <mxCell id="sdSFOSKggI8gM6giwSen-358" style="edgeStyle=orthogonalEdgeStyle;rounded=0;orthogonalLoop=1;jettySize=auto;html=1;entryX=0;entryY=0.5;entryDx=0;entryDy=0;" parent="1" source="sdSFOSKggI8gM6giwSen-354" target="sdSFOSKggI8gM6giwSen-342" edge="1">
          <mxGeometry relative="1" as="geometry">
            <Array as="points">
              <mxPoint x="-85" y="195" />
            </Array>
          </mxGeometry>
        </mxCell>
        <mxCell id="sdSFOSKggI8gM6giwSen-354" value="Git Repository" style="verticalLabelPosition=bottom;html=1;verticalAlign=top;align=center;strokeColor=none;fillColor=#00BEF2;shape=mxgraph.azure.git_repository;" parent="1" vertex="1">
          <mxGeometry x="-110" y="369" width="50" height="50" as="geometry" />
        </mxCell>
        <mxCell id="sdSFOSKggI8gM6giwSen-355" value="Developer" style="sketch=0;pointerEvents=1;shadow=0;dashed=0;html=1;strokeColor=none;fillColor=#505050;labelPosition=center;verticalLabelPosition=bottom;verticalAlign=top;outlineConnect=0;align=center;shape=mxgraph.office.users.user;" parent="1" vertex="1">
          <mxGeometry x="-270" y="369" width="46" height="50" as="geometry" />
        </mxCell>
        <mxCell id="sdSFOSKggI8gM6giwSen-357" style="edgeStyle=orthogonalEdgeStyle;rounded=0;orthogonalLoop=1;jettySize=auto;html=1;entryX=0;entryY=0.5;entryDx=0;entryDy=0;entryPerimeter=0;" parent="1" source="sdSFOSKggI8gM6giwSen-355" target="sdSFOSKggI8gM6giwSen-354" edge="1">
          <mxGeometry relative="1" as="geometry" />
        </mxCell>
        <mxCell id="Upn4n6jyO4KzsuV6UhPA-1" value="AWS Cloud" style="points=[[0,0],[0.25,0],[0.5,0],[0.75,0],[1,0],[1,0.25],[1,0.5],[1,0.75],[1,1],[0.75,1],[0.5,1],[0.25,1],[0,1],[0,0.75],[0,0.5],[0,0.25]];outlineConnect=0;gradientColor=none;html=1;whiteSpace=wrap;fontSize=12;fontStyle=0;container=1;pointerEvents=0;collapsible=0;recursiveResize=0;shape=mxgraph.aws4.group;grIcon=mxgraph.aws4.group_aws_cloud_alt;strokeColor=#232F3E;fillColor=none;verticalAlign=top;align=left;spacingLeft=30;fontColor=#232F3E;dashed=0;" vertex="1" parent="1">
          <mxGeometry x="-80" y="1144" width="1600" height="1200" as="geometry" />
        </mxCell>
        <mxCell id="Upn4n6jyO4KzsuV6UhPA-2" value="AWS Account" style="points=[[0,0],[0.25,0],[0.5,0],[0.75,0],[1,0],[1,0.25],[1,0.5],[1,0.75],[1,1],[0.75,1],[0.5,1],[0.25,1],[0,1],[0,0.75],[0,0.5],[0,0.25]];outlineConnect=0;gradientColor=none;html=1;whiteSpace=wrap;fontSize=12;fontStyle=0;container=1;pointerEvents=0;collapsible=0;recursiveResize=0;shape=mxgraph.aws4.group;grIcon=mxgraph.aws4.group_account;strokeColor=#CD2264;fillColor=none;verticalAlign=top;align=left;spacingLeft=30;fontColor=#CD2264;dashed=0;" vertex="1" parent="1">
          <mxGeometry x="-50" y="1177" width="1547" height="1144" as="geometry" />
        </mxCell>
        <mxCell id="Upn4n6jyO4KzsuV6UhPA-7" value="Region" style="points=[[0,0],[0.25,0],[0.5,0],[0.75,0],[1,0],[1,0.25],[1,0.5],[1,0.75],[1,1],[0.75,1],[0.5,1],[0.25,1],[0,1],[0,0.75],[0,0.5],[0,0.25]];outlineConnect=0;gradientColor=none;html=1;whiteSpace=wrap;fontSize=12;fontStyle=0;container=1;pointerEvents=0;collapsible=0;recursiveResize=0;shape=mxgraph.aws4.group;grIcon=mxgraph.aws4.group_region;strokeColor=#00A4A6;fillColor=none;verticalAlign=top;align=left;spacingLeft=30;fontColor=#147EBA;dashed=1;" vertex="1" parent="1">
          <mxGeometry x="-23" y="1206" width="1503" height="1095" as="geometry" />
        </mxCell>
        <mxCell id="Upn4n6jyO4KzsuV6UhPA-8" value="VPC" style="points=[[0,0],[0.25,0],[0.5,0],[0.75,0],[1,0],[1,0.25],[1,0.5],[1,0.75],[1,1],[0.75,1],[0.5,1],[0.25,1],[0,1],[0,0.75],[0,0.5],[0,0.25]];outlineConnect=0;gradientColor=none;html=1;whiteSpace=wrap;fontSize=12;fontStyle=0;container=1;pointerEvents=0;collapsible=0;recursiveResize=0;shape=mxgraph.aws4.group;grIcon=mxgraph.aws4.group_vpc2;strokeColor=#8C4FFF;fillColor=none;verticalAlign=top;align=left;spacingLeft=30;fontColor=#AAB7B8;dashed=0;" vertex="1" parent="Upn4n6jyO4KzsuV6UhPA-7">
          <mxGeometry x="28" y="30" width="1454" height="1047" as="geometry" />
        </mxCell>
        <mxCell id="Upn4n6jyO4KzsuV6UhPA-9" value="Availability Zone A" style="fillColor=none;strokeColor=#147EBA;dashed=1;verticalAlign=top;fontStyle=0;fontColor=#147EBA;whiteSpace=wrap;html=1;" vertex="1" parent="Upn4n6jyO4KzsuV6UhPA-8">
          <mxGeometry x="43.92" y="57" width="644" height="965" as="geometry" />
        </mxCell>
        <mxCell id="Upn4n6jyO4KzsuV6UhPA-56" value="Availability Zone B" style="fillColor=none;strokeColor=#147EBA;dashed=1;verticalAlign=top;fontStyle=0;fontColor=#147EBA;whiteSpace=wrap;html=1;" vertex="1" parent="Upn4n6jyO4KzsuV6UhPA-8">
          <mxGeometry x="732" y="57" width="644" height="965" as="geometry" />
        </mxCell>
        <mxCell id="Upn4n6jyO4KzsuV6UhPA-57" value="Public subnet" style="points=[[0,0],[0.25,0],[0.5,0],[0.75,0],[1,0],[1,0.25],[1,0.5],[1,0.75],[1,1],[0.75,1],[0.5,1],[0.25,1],[0,1],[0,0.75],[0,0.5],[0,0.25]];outlineConnect=0;gradientColor=none;html=1;whiteSpace=wrap;fontSize=12;fontStyle=0;container=1;pointerEvents=0;collapsible=0;recursiveResize=0;shape=mxgraph.aws4.group;grIcon=mxgraph.aws4.group_security_group;grStroke=0;strokeColor=#7AA116;fillColor=#F2F6E8;verticalAlign=top;align=left;spacingLeft=30;fontColor=#248814;dashed=0;" vertex="1" parent="Upn4n6jyO4KzsuV6UhPA-8">
          <mxGeometry x="749" y="81" width="590" height="922" as="geometry" />
        </mxCell>
        <mxCell id="Upn4n6jyO4KzsuV6UhPA-10" value="internet Gateway" style="sketch=0;outlineConnect=0;fontColor=#232F3E;gradientColor=none;fillColor=#8C4FFF;strokeColor=none;dashed=0;verticalLabelPosition=bottom;verticalAlign=top;align=center;html=1;fontSize=12;fontStyle=0;aspect=fixed;pointerEvents=1;shape=mxgraph.aws4.internet_gateway;" vertex="1" parent="Upn4n6jyO4KzsuV6UhPA-7">
          <mxGeometry x="287" y="441" width="78" height="78" as="geometry" />
        </mxCell>
        <mxCell id="Upn4n6jyO4KzsuV6UhPA-11" value="Public subnet" style="points=[[0,0],[0.25,0],[0.5,0],[0.75,0],[1,0],[1,0.25],[1,0.5],[1,0.75],[1,1],[0.75,1],[0.5,1],[0.25,1],[0,1],[0,0.75],[0,0.5],[0,0.25]];outlineConnect=0;gradientColor=none;html=1;whiteSpace=wrap;fontSize=12;fontStyle=0;container=1;pointerEvents=0;collapsible=0;recursiveResize=0;shape=mxgraph.aws4.group;grIcon=mxgraph.aws4.group_security_group;grStroke=0;strokeColor=#7AA116;fillColor=#F2F6E8;verticalAlign=top;align=left;spacingLeft=30;fontColor=#248814;dashed=0;" vertex="1" parent="Upn4n6jyO4KzsuV6UhPA-7">
          <mxGeometry x="102" y="112" width="590" height="918" as="geometry" />
        </mxCell>
        <mxCell id="Upn4n6jyO4KzsuV6UhPA-12" value="ECS Security Group" style="fillColor=none;strokeColor=#DD3522;verticalAlign=top;fontStyle=0;fontColor=#DD3522;whiteSpace=wrap;html=1;" vertex="1" parent="Upn4n6jyO4KzsuV6UhPA-11">
          <mxGeometry x="71" y="159" width="200" height="235" as="geometry" />
        </mxCell>
        <mxCell id="Upn4n6jyO4KzsuV6UhPA-21" style="edgeStyle=orthogonalEdgeStyle;rounded=0;orthogonalLoop=1;jettySize=auto;html=1;" edge="1" parent="Upn4n6jyO4KzsuV6UhPA-7" source="Upn4n6jyO4KzsuV6UhPA-22">
          <mxGeometry relative="1" as="geometry">
            <mxPoint x="1039" y="505.00000000000045" as="targetPoint" />
          </mxGeometry>
        </mxCell>
        <mxCell id="Upn4n6jyO4KzsuV6UhPA-22" value="EC2 Security Group" style="fillColor=none;strokeColor=#DD3522;verticalAlign=top;fontStyle=0;fontColor=#DD3522;whiteSpace=wrap;html=1;" vertex="1" parent="Upn4n6jyO4KzsuV6UhPA-7">
          <mxGeometry x="537" y="390" width="183" height="231" as="geometry" />
        </mxCell>
      </root>
    </mxGraphModel>
  </diagram>
</mxfile>
